<svg width="24" height="24" viewBox="0 0 24 24" fill="none" xmlns="http://www.w3.org/2000/svg">
<g clip-path="url(#clip0_0_3114)">
<rect width="24" height="24" rx="12" fill="#69A9FF"/>
<g clip-path="url(#clip1_0_3114)">
<path d="M13.3834 12C13.3834 12.764 12.764 13.3834 12 13.3834C11.236 13.3834 10.6167 12.764 10.6167 12C10.6167 11.236 11.236 10.6167 12 10.6167C12.764 10.6167 13.3834 11.236 13.3834 12Z" fill="white" stroke="white" stroke-width="1.5"/>
<path d="M9.99992 5.33325L8.77992 6.66659H6.66659C5.93325 6.66659 5.33325 7.26659 5.33325 7.99992V15.9999C5.33325 16.7333 5.93325 17.3333 6.66659 17.3333H17.3333C18.0666 17.3333 18.6666 16.7333 18.6666 15.9999V7.99992C18.6666 7.26659 18.0666 6.66659 17.3333 6.66659H15.2199L13.9999 5.33325H9.99992ZM11.9999 15.3333C10.1599 15.3333 8.66659 13.8399 8.66659 11.9999C8.66659 10.1599 10.1599 8.66659 11.9999 8.66659C13.8399 8.66659 15.3333 10.1599 15.3333 11.9999C15.3333 13.8399 13.8399 15.3333 11.9999 15.3333Z" fill="white"/>
</g>
</g>
<rect x="0.5" y="0.5" width="23" height="23" rx="11.5" stroke="white"/>
<defs>
<clipPath id="clip0_0_3114">
<rect width="24" height="24" rx="12" fill="white"/>
</clipPath>
<clipPath id="clip1_0_3114">
<rect width="16" height="16" fill="white" transform="translate(4 4)"/>
</clipPath>
</defs>
</svg>
