<svg width="20" height="20" viewBox="0 0 20 20" fill="none" xmlns="http://www.w3.org/2000/svg">
<g clip-path="url(#clip0_222_2023)">
<rect width="19.2" height="19.2" transform="translate(0.399902 0.400024)" fill="black"/>
<path d="M17.4243 15.1392C17.1461 15.7821 16.8167 16.3738 16.4351 16.9178C15.9149 17.6595 15.489 18.1729 15.1608 18.4579C14.6519 18.9259 14.1068 19.1655 13.523 19.1791C13.1039 19.1791 12.5985 19.0599 12.0101 18.818C11.4199 18.5772 10.8774 18.4579 10.3815 18.4579C9.86127 18.4579 9.30338 18.5772 8.70665 18.818C8.10901 19.0599 7.62755 19.186 7.25945 19.1985C6.69963 19.2223 6.14163 18.9758 5.58465 18.4579C5.22915 18.1479 4.7845 17.6163 4.25182 16.8633C3.68031 16.0592 3.21044 15.1267 2.84234 14.0637C2.44811 12.9154 2.25049 11.8035 2.25049 10.727C2.25049 9.49389 2.51694 8.43036 3.05064 7.53913C3.47008 6.82325 4.02808 6.25855 4.72646 5.84399C5.42485 5.42944 6.17945 5.21819 6.99209 5.20467C7.43675 5.20467 8.01985 5.34221 8.74447 5.61252C9.46704 5.88375 9.93101 6.02129 10.1344 6.02129C10.2865 6.02129 10.8019 5.86046 11.6757 5.53983C12.5019 5.24249 13.1993 5.11937 13.7706 5.16787C15.3186 5.29281 16.4817 5.90305 17.2551 7.00248C15.8706 7.84135 15.1857 9.0163 15.1994 10.5236C15.2119 11.6976 15.6378 12.6746 16.4748 13.4503C16.8542 13.8104 17.2778 14.0886 17.7492 14.2863C17.647 14.5827 17.5391 14.8666 17.4243 15.1392ZM13.8739 1.16815C13.8739 2.08836 13.5378 2.94756 12.8676 3.74282C12.059 4.68824 11.0809 5.23454 10.0202 5.14834C10.0066 5.03794 9.99881 4.92175 9.99881 4.79966C9.99881 3.91626 10.3834 2.97084 11.0663 2.19784C11.4073 1.80645 11.8409 1.48102 12.3668 1.22142C12.8915 0.965691 13.3878 0.824267 13.8546 0.800049C13.8683 0.923066 13.8739 1.04609 13.8739 1.16814V1.16815Z" fill="white"/>
</g>
<defs>
<clipPath id="clip0_222_2023">
<rect width="19.2" height="19.2" fill="white" transform="translate(0.399902 0.400024)"/>
</clipPath>
</defs>
</svg>
