<svg width="24" height="24" viewBox="0 0 24 24" fill="none" xmlns="http://www.w3.org/2000/svg">
<path d="M13.6953 17.3047L12.5391 19.2344C12.4824 19.3265 12.4032 19.4025 12.3088 19.4553C12.2144 19.508 12.1081 19.5357 12 19.5357C11.8919 19.5357 11.7856 19.508 11.6912 19.4553C11.5968 19.4025 11.5176 19.3265 11.4609 19.2344L10.3047 17.3047C10.2503 17.2121 10.1727 17.1352 10.0795 17.0818C9.98635 17.0284 9.88084 17.0002 9.77344 17H5.125C4.95924 17 4.80027 16.9342 4.68306 16.8169C4.56585 16.6997 4.5 16.5408 4.5 16.375V6.375C4.5 6.20924 4.56585 6.05027 4.68306 5.93306C4.80027 5.81585 4.95924 5.75 5.125 5.75H18.875C19.0408 5.75 19.1997 5.81585 19.3169 5.93306C19.4342 6.05027 19.5 6.20924 19.5 6.375V16.375C19.5 16.5408 19.4342 16.6997 19.3169 16.8169C19.1997 16.9342 19.0408 17 18.875 17H14.2266C14.1192 17.0002 14.0137 17.0284 13.9205 17.0818C13.8273 17.1352 13.7497 17.2121 13.6953 17.3047V17.3047Z" stroke="white" stroke-width="1.5" stroke-linecap="round" stroke-linejoin="round"/>
<path d="M12 12.1562C12.4315 12.1562 12.7812 11.8065 12.7812 11.375C12.7812 10.9435 12.4315 10.5938 12 10.5938C11.5685 10.5938 11.2188 10.9435 11.2188 11.375C11.2188 11.8065 11.5685 12.1562 12 12.1562Z" fill="white"/>
<path d="M15.75 12.1562C16.1815 12.1562 16.5312 11.8065 16.5312 11.375C16.5312 10.9435 16.1815 10.5938 15.75 10.5938C15.3185 10.5938 14.9688 10.9435 14.9688 11.375C14.9688 11.8065 15.3185 12.1562 15.75 12.1562Z" fill="white"/>
<path d="M8.25 12.1562C8.68147 12.1562 9.03125 11.8065 9.03125 11.375C9.03125 10.9435 8.68147 10.5938 8.25 10.5938C7.81853 10.5938 7.46875 10.9435 7.46875 11.375C7.46875 11.8065 7.81853 12.1562 8.25 12.1562Z" fill="white"/>
</svg>
