<svg width="25" height="24" viewBox="0 0 25 24" fill="none" xmlns="http://www.w3.org/2000/svg">
<path d="M20.2877 15.9256L20.2147 15.9221C20.1876 15.6379 20.1452 15.358 20.088 15.0833C20.9704 15.0845 21.8163 15.4356 22.4403 16.0596C23.0655 16.6847 23.4166 17.5325 23.4166 18.4166V22.9166H22.5833V18.4166V18.4165C22.5833 17.7951 22.3518 17.1959 21.9339 16.7358C21.5161 16.2758 20.9419 15.9879 20.3233 15.9282L20.3056 15.9265L20.2877 15.9256ZM2.55962 16.0596C3.18372 15.4355 4.02981 15.0844 4.9123 15.0833C4.85471 15.3595 4.81235 15.6388 4.78545 15.92C4.21129 15.9502 3.6635 16.1776 3.23591 16.5659C2.77586 16.9838 2.48794 17.558 2.42828 18.1766L2.42656 18.1943L2.4257 18.2122L2.41753 18.3802L2.41665 18.3984V18.4166V22.9166H1.58331V18.4166C1.58331 17.5325 1.9345 16.6847 2.55962 16.0596ZM12.7493 12.4237L12.738 12.423L12.7266 12.4227L12.5213 12.4169L12.5107 12.4166L12.5 12.4166C11.416 12.4165 10.3729 12.8307 9.58415 13.5744C8.79543 14.3181 8.3207 15.3351 8.2571 16.4173L8.25644 16.4286L8.25611 16.44L8.25028 16.6453L8.24998 16.6559V16.6666V22.9166H7.41665V16.6666C7.41665 15.3184 7.95221 14.0254 8.90552 13.0721C9.85883 12.1188 11.1518 11.5833 12.5 11.5833C13.8482 11.5833 15.1411 12.1188 16.0944 13.0721C17.0477 14.0254 17.5833 15.3184 17.5833 16.6666V22.9166H16.75V16.6666C16.75 16.6666 16.75 16.6666 16.75 16.6666C16.75 15.5826 16.3358 14.5395 15.5922 13.7508C14.8485 12.962 13.8315 12.4873 12.7493 12.4237ZM4.91665 8.08325C5.49128 8.08325 6.04238 8.31152 6.44871 8.71785C6.85504 9.12418 7.08331 9.67528 7.08331 10.2499C7.08331 10.8246 6.85504 11.3757 6.44871 11.782C6.04238 12.1883 5.49128 12.4166 4.91665 12.4166C4.34201 12.4166 3.79091 12.1883 3.38458 11.782C2.97825 11.3757 2.74998 10.8246 2.74998 10.2499C2.74998 9.67528 2.97825 9.12418 3.38458 8.71785C3.79091 8.31152 4.34201 8.08325 4.91665 8.08325ZM19.1405 9.30711L19.6708 9.83744L19.1405 9.30711C18.8905 9.55716 18.75 9.8963 18.75 10.2499C18.75 10.6035 18.8905 10.9427 19.1405 11.1927C19.3906 11.4428 19.7297 11.5833 20.0833 11.5833C20.4369 11.5833 20.7761 11.4428 21.0261 11.1927C21.2762 10.9427 21.4166 10.6035 21.4166 10.2499C21.4166 9.8963 21.2762 9.55716 21.0261 9.30711L20.4958 9.83744L21.0261 9.30711C20.7761 9.05706 20.4369 8.91658 20.0833 8.91658C19.7297 8.91658 19.3906 9.05706 19.1405 9.30711ZM3.97384 9.30711L4.50417 9.83744L3.97384 9.30711C3.72379 9.55716 3.58331 9.8963 3.58331 10.2499C3.58331 10.6035 3.72379 10.9427 3.97384 11.1927C4.22389 11.4428 4.56303 11.5833 4.91665 11.5833C5.27027 11.5833 5.60941 11.4428 5.85946 11.1927C6.1095 10.9427 6.24998 10.6035 6.24998 10.2499C6.24998 9.8963 6.1095 9.55716 5.85946 9.30711C5.60941 9.05706 5.27027 8.91658 4.91665 8.91658C4.56303 8.91658 4.22389 9.05706 3.97384 9.30711ZM20.0833 8.08325C20.6579 8.08325 21.209 8.31152 21.6154 8.71785C22.0217 9.12418 22.25 9.67528 22.25 10.2499C22.25 10.8246 22.0217 11.3757 21.6154 11.782C21.209 12.1883 20.6579 12.4166 20.0833 12.4166C19.5087 12.4166 18.9576 12.1883 18.5512 11.782C18.1449 11.3757 17.9166 10.8246 17.9166 10.2499C17.9166 9.67528 18.1449 9.12418 18.5512 8.71785C18.9576 8.31153 19.5087 8.08325 20.0833 8.08325ZM12.5 1.08325C13.5387 1.08325 14.535 1.4959 15.2695 2.23042C16.004 2.96493 16.4166 3.96115 16.4166 4.99992C16.4166 6.03868 16.004 7.0349 15.2695 7.76942C14.535 8.50394 13.5387 8.91658 12.5 8.91658C11.4612 8.91658 10.465 8.50394 9.73048 7.76942C8.99596 7.0349 8.58331 6.03868 8.58331 4.99992C8.58331 3.96115 8.99596 2.96493 9.73048 2.23042C10.465 1.4959 11.4612 1.08325 12.5 1.08325ZM12.5 1.91659C11.6822 1.91659 10.898 2.24144 10.3197 2.81967C9.7415 3.39791 9.41665 4.18217 9.41665 4.99992C9.41665 5.81767 9.7415 6.60193 10.3197 7.18016C10.898 7.7584 11.6822 8.08325 12.5 8.08325C13.3177 8.08325 14.102 7.7584 14.6802 7.18016C15.2585 6.60193 15.5833 5.81767 15.5833 4.99992C15.5833 4.18217 15.2585 3.39791 14.6802 2.81967C14.102 2.24144 13.3177 1.91659 12.5 1.91659Z" fill="#BDBDBD" stroke="#BDBDBD" stroke-width="1.5"/>
</svg>
