<svg width="14" height="14" viewBox="0 0 14 14" fill="none" xmlns="http://www.w3.org/2000/svg">
<path d="M12.9166 10.6668V12.9167H12.4166V9.66668C12.4166 9.61427 12.4158 9.56203 12.4144 9.50995C12.439 9.53296 12.4629 9.55681 12.4861 9.58148C12.7625 9.87522 12.9165 10.2633 12.9166 10.6667C12.9166 10.6667 12.9166 10.6668 12.9166 10.6668ZM1.48752 9.60939C1.51918 9.57406 1.55229 9.5403 1.58674 9.50818L1.58345 9.64924L1.58325 9.65796V9.66668V12.9167H1.08325V10.6667V10.6665C1.08316 10.2764 1.22712 9.89992 1.48752 9.60939ZM9.58325 9.66668V12.9167H4.41659V9.66668C4.41659 8.98153 4.68876 8.32445 5.17323 7.83998C5.6577 7.35552 6.31478 7.08334 6.99992 7.08334C7.68506 7.08334 8.34214 7.35552 8.82661 7.83998C9.31108 8.32445 9.58325 8.98153 9.58325 9.66668ZM2.66659 5.08334C2.9097 5.08334 3.14286 5.17992 3.31477 5.35183C3.48667 5.52374 3.58325 5.7569 3.58325 6.00001C3.58325 6.24313 3.48668 6.47628 3.31477 6.64819C3.14286 6.8201 2.9097 6.91668 2.66659 6.91668C2.42347 6.91668 2.19031 6.8201 2.0184 6.64819C1.8465 6.47628 1.74992 6.24313 1.74992 6.00001C1.74992 5.7569 1.8465 5.52374 2.0184 5.35183C2.19031 5.17992 2.42347 5.08334 2.66659 5.08334ZM11.3333 5.08334C11.5764 5.08334 11.8095 5.17992 11.9814 5.35183C12.1533 5.52374 12.2499 5.75689 12.2499 6.00001C12.2499 6.24313 12.1533 6.47628 11.9814 6.64819C11.8095 6.8201 11.5764 6.91668 11.3333 6.91668C11.0901 6.91668 10.857 6.8201 10.6851 6.64819C10.5132 6.47628 10.4166 6.24313 10.4166 6.00001C10.4166 5.75689 10.5132 5.52374 10.6851 5.35183C10.857 5.17992 11.0901 5.08334 11.3333 5.08334ZM6.99992 1.08334C7.50825 1.08334 7.99576 1.28528 8.35521 1.64472C8.71465 2.00417 8.91659 2.49168 8.91659 3.00001C8.91659 3.50834 8.71465 3.99585 8.35521 4.3553C7.99576 4.71474 7.50825 4.91668 6.99992 4.91668C6.49159 4.91668 6.00408 4.71474 5.64463 4.3553C5.28519 3.99585 5.08325 3.50834 5.08325 3.00001C5.08325 2.49168 5.28519 2.00417 5.64463 1.64472C6.00408 1.28528 6.49159 1.08334 6.99992 1.08334Z" fill="white" stroke="white" stroke-width="1.5"/>
</svg>
