<svg width="20" height="20" viewBox="0 0 20 20" fill="none" xmlns="http://www.w3.org/2000/svg">
<path d="M11.875 8.4375H14.375" stroke="white" stroke-width="1.5" stroke-linecap="round" stroke-linejoin="round"/>
<path d="M5.625 8.4375H8.125" stroke="white" stroke-width="1.5" stroke-linecap="round" stroke-linejoin="round"/>
<path d="M6.875 7.1875V9.6875" stroke="white" stroke-width="1.5" stroke-linecap="round" stroke-linejoin="round"/>
<path d="M13.4374 4.35156L6.56242 4.375C5.60753 4.37682 4.68367 4.7143 3.95245 5.32841C3.22123 5.94252 2.7292 6.79416 2.56242 7.73437V7.73437L1.28117 14.3047C1.1989 14.7635 1.26535 15.2366 1.47083 15.655C1.6763 16.0734 2.01006 16.4153 2.42344 16.6307C2.83682 16.8461 3.30821 16.9238 3.76886 16.8525C4.22952 16.7812 4.65536 16.5647 4.98429 16.2344V16.2344L8.35929 12.5L13.4374 12.4766C14.5149 12.4766 15.5482 12.0486 16.31 11.2867C17.0719 10.5248 17.4999 9.4915 17.4999 8.41406C17.4999 7.33662 17.0719 6.30331 16.31 5.54144C15.5482 4.77957 14.5149 4.35156 13.4374 4.35156V4.35156Z" stroke="white" stroke-width="1.5" stroke-linecap="round" stroke-linejoin="round"/>
<path d="M17.4375 7.71094L18.7188 14.3047C18.801 14.7635 18.7346 15.2366 18.5291 15.655C18.3236 16.0734 17.9899 16.4153 17.5765 16.6307C17.1631 16.8461 16.6917 16.9238 16.2311 16.8525C15.7704 16.7812 15.3446 16.5647 15.0156 16.2344V16.2344L11.6406 12.4844" stroke="white" stroke-width="1.5" stroke-linecap="round" stroke-linejoin="round"/>
</svg>
