<svg width="24" height="24" viewBox="0 0 24 24" fill="none" xmlns="http://www.w3.org/2000/svg">
<path fill-rule="evenodd" clip-rule="evenodd" d="M23.4399 12.6614C23.4399 11.8459 23.3667 11.0618 23.2308 10.3091H12.3999V14.7575H18.589C18.3224 16.195 17.5122 17.4129 16.2942 18.2284V21.1139H20.0108C22.1854 19.1118 23.4399 16.1636 23.4399 12.6614Z" fill="#4285F4"/>
<path fill-rule="evenodd" clip-rule="evenodd" d="M12.3999 23.8998C15.5049 23.8998 18.108 22.8701 20.0108 21.1137L16.2942 18.2282C15.2644 18.9182 13.9471 19.326 12.3999 19.326C9.40464 19.326 6.86941 17.303 5.96509 14.5848H2.12305V17.5644C4.01532 21.3228 7.90441 23.8998 12.3999 23.8998Z" fill="#34A853"/>
<path fill-rule="evenodd" clip-rule="evenodd" d="M5.96513 14.5851C5.73513 13.8951 5.60445 13.1581 5.60445 12.4001C5.60445 11.6422 5.73513 10.9051 5.96513 10.2151V7.2356H2.12308C1.34422 8.7881 0.899902 10.5445 0.899902 12.4001C0.899902 14.2558 1.34422 16.0122 2.12308 17.5647L5.96513 14.5851Z" fill="#FBBC05"/>
<path fill-rule="evenodd" clip-rule="evenodd" d="M12.3999 5.47389C14.0883 5.47389 15.6042 6.05411 16.796 7.19366L20.0944 3.89525C18.1028 2.03957 15.4996 0.900024 12.3999 0.900024C7.90441 0.900024 4.01532 3.47707 2.12305 7.23548L5.96509 10.215C6.86941 7.49684 9.40464 5.47389 12.3999 5.47389Z" fill="#EA4335"/>
</svg>
