<svg width="16" height="14" viewBox="0 0 16 14" fill="none" xmlns="http://www.w3.org/2000/svg">
<path d="M8 13.875C8 13.875 0.1875 9.50001 0.1875 4.18751C0.1875 3.24836 0.512886 2.33821 1.1083 1.61193C1.70371 0.885641 2.53236 0.38808 3.45328 0.203897C4.37419 0.0197146 5.33047 0.160288 6.15943 0.601701C6.98838 1.04311 7.63879 1.7581 8 2.62501C8.36121 1.7581 9.01162 1.04311 9.84057 0.601701C10.6695 0.160288 11.6258 0.0197146 12.5467 0.203897C13.4676 0.38808 14.2963 0.885641 14.8917 1.61193C15.4871 2.33821 15.8125 3.24836 15.8125 4.18751C15.8125 9.50001 8 13.875 8 13.875Z" fill="#EB5757"/>
</svg>
