<svg width="29" height="28" viewBox="0 0 29 28" fill="none" xmlns="http://www.w3.org/2000/svg">
<g clip-path="url(#clip0_305_3194)">
<path d="M4.43433 18.191C4.78072 17.8045 5.20955 17.5075 5.68432 17.3186C5.63846 17.6202 5.6081 17.9242 5.59345 18.2294L5.593 18.2387L5.59279 18.2479L5.58345 18.6493L5.58325 18.658V18.6667V24.9167H3.58325V20.4167L3.58325 20.4165C3.58306 19.5952 3.88614 18.8027 4.43433 18.191L3.87583 17.6905L4.43433 18.191ZM14.4999 13.5834C15.8481 13.5834 17.1411 14.1189 18.0944 15.0722C19.0477 16.0256 19.5833 17.3185 19.5833 18.6667V24.9167H9.41658V18.6667C9.41658 17.3185 9.95215 16.0256 10.9055 15.0722C11.8588 14.1189 13.1517 13.5834 14.4999 13.5834ZM25.4166 20.4168V24.9167H23.4166V18.6667C23.4166 18.2091 23.3823 17.7592 23.3157 17.3194C23.7647 17.4982 24.1734 17.774 24.5104 18.1321C25.0923 18.7505 25.4164 19.5676 25.4166 20.4167C25.4166 20.4167 25.4166 20.4168 25.4166 20.4168ZM6.91658 10.0834C7.49122 10.0834 8.04232 10.3116 8.44865 10.718C8.85498 11.1243 9.08325 11.6754 9.08325 12.25C9.08325 12.8247 8.85498 13.3758 8.44865 13.7821C8.04232 14.1884 7.49122 14.4167 6.91658 14.4167C6.34195 14.4167 5.79085 14.1884 5.38452 13.7821C4.97819 13.3758 4.74992 12.8247 4.74992 12.25C4.74992 11.6754 4.97819 11.1243 5.38452 10.718C5.79085 10.3116 6.34195 10.0834 6.91658 10.0834ZM22.0833 10.0834C22.6579 10.0834 23.209 10.3116 23.6153 10.718C24.0216 11.1243 24.2499 11.6754 24.2499 12.25C24.2499 12.8247 24.0216 13.3758 23.6153 13.7821C23.209 14.1884 22.6579 14.4167 22.0833 14.4167C21.5086 14.4167 20.9575 14.1884 20.5512 13.7821C20.1449 13.3758 19.9166 12.8247 19.9166 12.25C19.9166 11.6754 20.1449 11.1243 20.5512 10.718C20.9575 10.3116 21.5086 10.0834 22.0833 10.0834ZM14.4999 3.08337C15.5387 3.08337 16.5349 3.49602 17.2694 4.23054C18.0039 4.96506 18.4166 5.96128 18.4166 7.00004C18.4166 8.03881 18.0039 9.03503 17.2694 9.76954C16.5349 10.5041 15.5387 10.9167 14.4999 10.9167C13.4612 10.9167 12.4649 10.5041 11.7304 9.76954C10.9959 9.03503 10.5833 8.03881 10.5833 7.00004C10.5833 5.96128 10.9959 4.96506 11.7304 4.23054C12.4649 3.49602 13.4612 3.08337 14.4999 3.08337Z" fill="#E99315" stroke="#E99315" stroke-width="1.5"/>
</g>
<defs>
<clipPath id="clip0_305_3194">
<rect width="28" height="28" fill="white" transform="translate(0.5)"/>
</clipPath>
</defs>
</svg>
