<svg width="22" height="23" viewBox="0 0 22 23" fill="none" xmlns="http://www.w3.org/2000/svg">
<path d="M1.25 9.07174L1.25 9.07122C1.24996 9.00772 1.26442 8.94506 1.2923 8.88801C1.32016 8.83098 1.36069 8.78107 1.41078 8.74209C1.4108 8.74208 1.41082 8.74207 1.41083 8.74205L10.7441 1.4831L10.7442 1.48305C10.8173 1.42616 10.9073 1.39526 11 1.39526C11.0927 1.39526 11.1827 1.42615 11.2558 1.48305L11.2559 1.4831L20.5892 8.74205C20.5892 8.74207 20.5892 8.74208 20.5892 8.74209C20.6393 8.78108 20.6798 8.83098 20.7077 8.88801C20.7356 8.94506 20.75 9.00772 20.75 9.07122V9.07174V21.3334C20.75 21.4439 20.7061 21.5499 20.628 21.628C20.5498 21.7062 20.4438 21.7501 20.3333 21.7501H1.66667C1.55616 21.7501 1.45018 21.7062 1.37204 21.628C1.2939 21.5499 1.25 21.4439 1.25 21.3334L1.25 9.07174ZM5.16667 14.7501H4.41667V15.5001V17.8334V18.5834H5.16667H16.8333H17.5833V17.8334V15.5001V14.7501H16.8333H5.16667Z" fill="#E99315" stroke="#E99315" stroke-width="1.5"/>
</svg>
