<svg width="24" height="25" viewBox="0 0 24 25" fill="none" xmlns="http://www.w3.org/2000/svg">
<path d="M13.1109 11.4632L13.4606 11.1134L13.1109 11.4632C13.4059 11.7582 13.5724 12.1578 13.5741 12.575C13.5739 12.886 13.4816 13.19 13.3088 13.4486C13.1358 13.7074 12.89 13.9092 12.6024 14.0283C12.3147 14.1475 11.9983 14.1786 11.6929 14.1179C11.3876 14.0572 11.1071 13.9073 10.887 13.6871C10.6668 13.467 10.5169 13.1865 10.4562 12.8812C10.3954 12.5758 10.4266 12.2593 10.5457 11.9717C10.6649 11.6841 10.8666 11.4382 11.1255 11.2653C11.3841 11.0925 11.6881 11.0002 11.9991 11C12.4163 11.0017 12.8159 11.1682 13.1109 11.4632ZM5.19957 11.2653C5.45818 11.0925 5.76217 11.0002 6.07319 11C6.49035 11.0017 6.88996 11.1682 7.18496 11.4632C7.47996 11.7582 7.64644 12.1578 7.64815 12.575C7.64797 12.886 7.55566 13.19 7.38287 13.4486C7.20991 13.7074 6.96407 13.9092 6.67645 14.0283C6.38882 14.1475 6.07233 14.1786 5.76699 14.1179L5.66944 14.6083L5.76699 14.1179C5.46165 14.0572 5.18117 13.9073 4.96104 13.6871C4.7409 13.467 4.59098 13.1865 4.53025 12.8812C4.46951 12.5758 4.50068 12.2593 4.61982 11.9717C4.73896 11.6841 4.94071 11.4382 5.19957 11.2653ZM17.0514 11.2653C17.31 11.0925 17.614 11.0002 17.925 11C18.3422 11.0017 18.7418 11.1682 19.0368 11.4632C19.3318 11.7582 19.4983 12.1578 19.5 12.575C19.4998 12.886 19.4075 13.19 19.2347 13.4486C19.0618 13.7074 18.8159 13.9092 18.5283 14.0283C18.2407 14.1475 17.9242 14.1786 17.6188 14.1179C17.3135 14.0572 17.033 13.9073 16.8129 13.6871C16.5927 13.467 16.4428 13.1865 16.3821 12.8812C16.3214 12.5758 16.3525 12.2593 16.4717 11.9717C16.5908 11.6841 16.7926 11.4382 17.0514 11.2653Z" fill="white" stroke="white"/>
</svg>
