<svg width="28" height="28" viewBox="0 0 28 28" fill="none" xmlns="http://www.w3.org/2000/svg">
<path d="M6.14684 11.3751C6.14539 10.3378 6.34917 9.31041 6.74647 8.35217C7.14376 7.39393 7.72671 6.52376 8.46174 5.79178C9.19677 5.0598 10.0694 4.48047 11.0292 4.08717C11.9891 3.69386 13.0173 3.49435 14.0547 3.50012C18.3859 3.53293 21.8531 7.13137 21.8531 11.4736V12.2501C21.8531 16.1657 22.6734 18.4407 23.3953 19.6876C23.4719 19.8204 23.5124 19.971 23.5125 20.1244C23.5126 20.2777 23.4725 20.4284 23.3961 20.5613C23.3196 20.6942 23.2096 20.8047 23.077 20.8817C22.9444 20.9588 22.7939 20.9996 22.6406 21.0001H5.35934C5.20601 20.9996 5.05551 20.9588 4.92293 20.8817C4.79034 20.8047 4.68032 20.6942 4.60388 20.5613C4.52745 20.4284 4.48729 20.2777 4.48743 20.1244C4.48756 19.971 4.52799 19.8204 4.60466 19.6876C5.32653 18.4407 6.14684 16.1657 6.14684 12.2501V11.3751Z" stroke="#BDBDBD" stroke-width="2" stroke-linecap="round" stroke-linejoin="round"/>
<path d="M10.5 21V21.875C10.5 22.8033 10.8687 23.6935 11.5251 24.3499C12.1815 25.0063 13.0717 25.375 14 25.375C14.9283 25.375 15.8185 25.0063 16.4749 24.3499C17.1313 23.6935 17.5 22.8033 17.5 21.875V21" stroke="#BDBDBD" stroke-width="2" stroke-linecap="round" stroke-linejoin="round"/>
</svg>
