<?xml version="1.0" encoding="utf-8"?>
<!-- Generator: Adobe Illustrator 27.5.0, SVG Export Plug-In . SVG Version: 6.00 Build 0)  -->
<svg version="1.1" xmlns="http://www.w3.org/2000/svg" xmlns:xlink="http://www.w3.org/1999/xlink" x="0px" y="0px"
	 viewBox="0 0 500 500" style="enable-background:new 0 0 500 500;" xml:space="preserve">
<g id="Floor">
	<ellipse id="Floor_4_" style="fill:#F0F0F0;" cx="249.945" cy="355.92" rx="208.258" ry="123.53"/>
</g>
<g id="Shadows">
	<ellipse id="Shadow_13_" style="fill:#E0E0E0;" cx="128.326" cy="385.43" rx="62.212" ry="35.918"/>
	<path id="Shadow" style="fill:#E0E0E0;" d="M331.322,441.661c-2.395,0-4.72-0.58-6.544-1.634l-166.841-96.326
		c-2.614-1.51-4.114-3.895-4.114-6.544c0-2.649,1.499-5.034,4.113-6.544l100.678-58.126c1.824-1.053,4.148-1.634,6.544-1.634
		c2.394,0,4.719,0.581,6.544,1.634l166.841,96.326c2.614,1.51,5.903,2.952,5.903,6.545c0,3.593-3.289,5.035-5.904,6.544
		l-100.675,58.126C336.04,441.081,333.716,441.661,331.322,441.661z"/>
</g>
<g id="Plants">
	<g id="Plants_4_">
		<g id="XMLID_273_">
			<g id="XMLID_276_">
				<path id="XMLID_277_" style="fill:#37474F;" d="M414.489,334.883l-12.331-7.113c0,0-3.955-19.235-1.298-38.54
					c4.526-32.889,22.385-37.812,29.211-35.484c6.826,2.329,8.826,10.25-2.408,26.51
					C421.036,289.85,412.919,309.816,414.489,334.883z"/>
			</g>
			<g id="XMLID_274_">
				<path id="XMLID_275_" style="fill:#FFFFFF;" d="M406.741,324.132c0.028,0,0.055-0.003,0.084-0.006
					c0.33-0.047,0.56-0.352,0.513-0.682c-3.588-25.325,6.506-53.118,17.916-64.344c0.237-0.233,0.241-0.617,0.007-0.854
					c-0.234-0.235-0.617-0.241-0.854-0.007c-11.618,11.431-21.905,39.677-18.264,65.374
					C406.184,323.914,406.444,324.133,406.741,324.132z"/>
			</g>
		</g>
		<g id="XMLID_266_">
			<g id="XMLID_271_">
				<path id="XMLID_272_" style="fill:#455A64;" d="M437.341,347.987c1.378,0.696,5.026-2.447,6.044-3.211
					c1.742-1.309,3.114-3.103,3.982-5.097c1.011-2.32,1.166-4.756,0.678-7.237c-0.253-1.286-0.683-2.53-1.112-3.769
					c-0.421-1.216-0.842-2.433-1.263-3.649c-0.416-1.2-0.837-2.442-0.743-3.709c0.188-2.552,2.343-4.448,4.307-6.089
					c2.171-1.815,4.407-4.176,4.23-7.227c-0.136-2.354-1.472-4.475-3.03-6.245c-1.558-1.77-3.376-3.309-4.799-5.189
					c-1.024-1.353-1.853-2.963-1.789-4.659c0.04-1.054,0.422-2.065,0.874-3.017c0.971-2.044,2.295-3.94,2.924-6.114
					c0.629-2.174,0.381-4.823-1.367-6.261c-1.434-1.181-3.475-1.247-5.32-1.025c-1.706,0.205-3.338,1.067-4.791,1.98
					c-4.7,2.953-7.158,8.838-12.187,11.185c-1.94,0.906-4.103,1.197-6.14,1.854c-2.038,0.657-4.088,1.825-4.943,3.788
					c-1.878,4.312,2.544,8.42-0.584,12.614c-0.968,1.298-2.232,2.345-3.263,3.594c-2.903,3.517-4.195,7.207-3.373,12.912
					c0.822,5.705,4.57,9.018,6.483,10.122C412.157,333.538,437.13,347.88,437.341,347.987z"/>
			</g>
			<g id="XMLID_269_">
				<path id="XMLID_270_" style="fill:#FFFFFF;" d="M423.991,341.081c0.008,0,0.016-0.001,0.016-0.001
					c0.341-0.033,0.584-0.328,0.553-0.659c-2.278-23.894,7.591-50.934,15.385-59.054c0.231-0.24,0.223-0.623-0.017-0.854
					c-0.242-0.231-0.623-0.222-0.854,0.017c-7.951,8.283-18.026,35.775-15.717,60.005
					C423.388,340.859,423.669,341.098,423.991,341.081z"/>
			</g>
			<g id="XMLID_267_">
				<path id="XMLID_268_" style="fill:#FFFFFF;" d="M426.275,311.604c0.059-0.003,0.118-0.015,0.176-0.037
					c7.566-2.79,17.133-3.723,17.228-3.731c0.332-0.032,0.576-0.327,0.545-0.659c-0.032-0.331-0.298-0.581-0.659-0.545
					c-0.098,0.01-9.816,0.956-17.532,3.802c-0.313,0.115-0.474,0.462-0.358,0.775C425.77,311.465,426.017,311.618,426.275,311.604z"
					/>
			</g>
		</g>
	</g>
	<g id="Plants_1_">
		<g id="XMLID_258_">
			<g id="XMLID_259_">
				<g id="XMLID_264_">
					<path id="XMLID_265_" style="fill:#27DEBF;" d="M96.096,368.339l7.815-2.811c0,0,1.593-14.155-0.529-28.177
						c-3.175-20.983-18.379-38.828-31.367-41.324c-16.752-3.218-14.199,12.354-4.767,19.3
						C82.266,326.386,93.792,342.991,96.096,368.339z"/>
				</g>
				<g id="XMLID_262_" style="opacity:0.2;">
					<path id="XMLID_263_" d="M96.096,368.339l7.815-2.811c0,0,1.593-14.155-0.529-28.177
						c-3.175-20.983-18.379-38.828-31.367-41.324c-16.752-3.218-14.199,12.354-4.767,19.3
						C82.266,326.386,93.792,342.991,96.096,368.339z"/>
				</g>
				<g id="XMLID_260_">
					<path id="XMLID_261_" style="fill:#FFFFFF;" d="M99.929,367.366c-0.031-0.003-0.062-0.008-0.093-0.015
						c-0.496-0.109-0.809-0.598-0.701-1.094c4.19-19.193-10.692-55.425-31.653-66.18c-0.451-0.231-0.629-0.786-0.397-1.237
						c0.231-0.45,0.78-0.631,1.237-0.397c21.596,11.081,36.928,48.422,32.608,68.207
						C100.829,367.115,100.392,367.419,99.929,367.366z"/>
				</g>
			</g>
		</g>
		<g>
			<g id="XMLID_255_">
				<g id="XMLID_256_">
					<path id="XMLID_257_" style="fill:#27DEBF;" d="M101.089,366.543c0.378-2.271,0.613-5.61,0.679-6.43
						c0.235-2.891-0.06-5.837-1.009-8.585c-1.244-3.603-3.645-6.844-6.886-8.851c-1.76-1.09-3.836-1.897-4.952-3.64
						c-0.96-1.498-1.005-3.379-1.171-5.151c-0.272-2.892-1.084-5.968-3.346-7.792c-2.249-1.814-5.394-1.965-8.275-1.742
						c-4.151,0.321-8.038,0.77-11.848-1.235c-3.091-1.627-6.152-3.342-9.422-4.57c-4.086-1.535-13.297-3.826-15.411,1.924
						c-0.573,1.558-0.152,3.343,0.714,4.76c0.866,1.417,2.131,2.537,3.378,3.634c2.105,1.854,4.211,3.708,6.316,5.561
						c0.715,0.63,1.445,1.277,1.904,2.113c1.197,2.183,0.229,4.881,0.438,7.362c0.212,2.518,1.714,4.842,3.786,6.288
						c2.072,1.446,4.662,2.055,7.187,1.954c3.383-0.135,8.969-2.574,10.922,1.474c0.64,1.326,0.728,2.839,0.877,4.304
						c0.149,1.465,0.397,2.991,1.282,4.168c1.299,1.726,3.62,2.276,5.762,2.556c2.989,0.391,6.077,0.505,8.854,1.682
						c1.146,0.486,1.834,1.989,2.482,2.986C95.481,368.591,97.823,367.806,101.089,366.543z"/>
				</g>
			</g>
			<g id="XMLID_254_">
				<path style="fill:#FFFFFF;" d="M97.404,368.658c-0.312-0.026-0.596-0.227-0.714-0.538c-7.642-20.188-25.81-36.329-51.156-45.449
					c-0.435-0.157-0.661-0.637-0.505-1.072c0.158-0.436,0.644-0.656,1.072-0.505c25.815,9.289,44.337,25.779,52.156,46.432
					c0.163,0.433-0.054,0.917-0.487,1.081C97.65,368.652,97.524,368.668,97.404,368.658z"/>
			</g>
		</g>
	</g>
</g>
<g id="Platform">
	<g id="Bench">
		<g>
			<path style="fill:#27DEBF;" d="M329.089,431.886l-166.841-96.326c-2.291-1.323-4.149-4.54-4.149-7.186l0-21.877
				c0-2.646,1.857-5.863,4.149-7.186l100.677-58.126c2.291-1.323,6.006-1.323,8.298,0l166.841,96.326
				c2.291,1.323,4.149,4.54,4.149,7.186l0,21.877c0,2.646-1.857,5.863-4.149,7.186l-100.677,58.126
				C335.095,433.209,331.38,433.209,329.089,431.886z"/>
			<path style="opacity:0.2;" d="M442.208,344.695v21.884c0,2.644-1.849,5.854-4.149,7.186l-100.671,58.12
				c-1.15,0.661-2.654,0.996-4.148,0.996v-31.465c1.504,0,2.999-0.326,4.148-0.987l100.671-58.13c2.146-1.236,2.29-3.19,0.422-4.522
				C440.579,339.234,442.208,342.214,442.208,344.695z"/>
			<path style="opacity:0.1;" d="M333.24,401.416v31.465c-1.504,0-2.999-0.335-4.149-0.996l-166.839-96.32
				c-2.299-1.322-4.148-4.542-4.148-7.186l-0.01-21.884c0-2.481,1.638-5.461,3.727-6.918c-1.859,1.332-1.715,3.286,0.422,4.522
				l166.848,96.33C330.241,401.091,331.736,401.416,333.24,401.416z"/>
			<path style="fill:#27DEBF;" d="M438.063,342.302l-100.677,58.126c-2.291,1.323-6.006,1.323-8.297,0l-166.841-96.326
				c-2.291-1.323-2.291-3.468,0-4.791l100.677-58.126c2.291-1.323,6.006-1.323,8.298,0l166.841,96.326
				C440.355,338.834,440.355,340.979,438.063,342.302z"/>
		</g>
		<g>
			<g>
				<path style="fill:#27DEBF;" d="M223.073,339.829c-2.193-1.266-4.235-1.32-5.891-0.354c-0.561,0.327-2.893,1.648-3.496,2.022
					c-1.807,1.122-3.133,3.484-3.661,6.848c-0.607-0.938-1.319-1.75-2.118-2.441c0,0,0.391-0.224,0.603-0.348
					c1.197-0.696,1.766-2.452,1.766-4.829c0-5.781-2.678-9.28-6.074-11.241l-6.123-3.534l-2.874,1.652l0.002-3.31l-4.496-2.596
					l-3.359,1.939v7.018l-4.533-13.514l-4.496-2.596l-3.359,1.939v3.271c-1.725-5.648-4.907-10.535-8.555-12.641
					c-2.151-1.242-4.151-1.307-5.79-0.399l0.012-0.019l-0.128,0.073c-0.002,0.001-0.004,0.002-0.006,0.003l-3.293,1.884
					c-1.708,0.84-4.102,3.868-4.102,10.379c0,8.875,4.114,18.137,9.948,21.505c2.265,1.308,4.3,1.376,5.93,0.428
					c0.562-0.327,2.735-1.592,3.274-1.89c1.103-0.61,2.023-1.683,2.709-3.152v10.94l4.497,2.596l3.358-1.939v-7.018l4.533,13.513
					l4.497,2.596l2.872-1.659l0,3.318l7.486,4.321c1.839,1.062,3.33,1.221,4.413,0.619c0.591-0.328,2.858-1.65,3.421-1.982
					c0.368-0.216,0.688-0.523,0.956-0.915c1.635,5.708,4.782,10.666,8.718,12.938c2.185,1.262,4.156,1.37,5.757,0.524
					c0.63-0.333,2.899-1.684,3.435-1.976c2.512-1.371,4.091-5.117,4.091-10.518C232.998,352.409,228.549,342.991,223.073,339.829z
					 M167.398,332.332c-0.312-0.097-0.637-0.23-0.989-0.433c-3.682-2.127-5.093-7.47-5.093-12c0-1.772,0.253-3.393,0.763-4.599
					c0.308,0.093,0.628,0.222,0.972,0.42c3.492,2.016,5.07,7.457,5.07,11.986C168.121,329.479,167.89,331.115,167.398,332.332z
					 M202.576,353.59v-2.855c0.793,0.936,1.241,2.109,1.324,3.62L202.576,353.59z M224.062,365.046
					c-0.312-0.097-0.637-0.23-0.988-0.433c-3.683-2.127-5.094-7.47-5.094-12c0-1.772,0.253-3.394,0.763-4.599
					c0.308,0.093,0.629,0.222,0.972,0.421c3.492,2.016,5.069,7.457,5.069,11.986C224.784,362.194,224.553,363.829,224.062,365.046z"
					/>
				<path style="fill:#27DEBF;" d="M325.745,413.028l3.286-1.859l2.942-3.274c-1.721-4.198-4.137-7.581-7.604-9.583
					c-2.069-1.195-3.928-1.284-5.448-0.479c-0.626,0.331-2.986,1.705-3.557,2.043c-1.054,0.624-1.934,1.695-2.597,3.136v-10.846
					l-4.496-2.596l-3.359,1.939v7.018l-4.533-13.514l-4.496-2.596l-2.87,1.661v-3.318l-4.497-2.596l-3.358,1.939v3.482
					c-1.743-5.526-4.964-10.227-8.578-12.313l-5.715-3.299l-3.358,1.939v21.935l-4.095-9.935c0,0,1.052-0.609,1.583-0.91
					c1.383-0.786,2.233-2.807,2.233-6.107c0-5.966-2.775-10.625-6.433-12.737l-7.055-4.073l-3.358,1.939v16.626l-5.374-23.607
					l-4.161-2.402l-3.358,1.939l-7.963,25.784l4.831,2.79l3.358-1.939l0.527-1.894l5.081,2.933l1.459,6.919l4.83,2.789l0.77-0.444
					v0.889l4.496,2.596l3.358-1.939v-1.437l2.668,6.855l5.715,3.3l0.888-0.513v1.025l5.715,3.3c2.243,1.295,4.33,1.418,6.007,0.492
					c0.602-0.332,2.908-1.692,3.476-2.026c0.981-0.578,1.816-1.522,2.453-2.811v11.237l4.496,2.596l2.87-1.654l0,3.311l4.496,2.596
					l3.358-1.939v-7.018l4.533,13.513l4.496,2.596l3.358-1.939v-3.232c1.68,5.555,4.738,10.398,8.243,12.423
					c2.016,1.163,4.108,1.481,5.804,0.523c0.565-0.319,2.72-1.606,3.257-1.89c1.612-0.85,2.881-2.821,3.408-6.287v-6.592
					L325.745,413.028z M258.761,374.465l-0.526-0.304v-3.212c0.539,0.885,0.898,2.043,0.898,3.631c0,0.034-0.003,0.06-0.003,0.093
					C259.006,374.605,258.883,374.535,258.761,374.465z M275.36,381.612c1.83,2.528,2.956,6.179,2.956,9.752
					c-0.008,1.798-0.305,3.276-0.826,4.36c-0.453-0.09-0.93-0.266-1.436-0.558l-0.694-0.401V381.612z M325.553,422.135
					c0,0.687-0.073,1.276-0.205,1.775c-0.237-0.084-0.476-0.192-0.716-0.33c-1.162-0.671-2.228-2.03-3.079-3.755L325.553,422.135z
					 M324.368,412.233l-3.359,1.939v4.43c-0.866-2.182-1.401-4.767-1.401-7.275c0-2.061,0.348-3.758,0.933-4.973
					c0.239,0.072,0.482,0.167,0.731,0.311c1.718,0.992,3.203,2.893,4.344,6.289L324.368,412.233z"/>
			</g>
			<g>
				<path style="opacity:0.2;" d="M219.714,341.768c5.476,3.162,9.924,12.58,9.924,21.455c0,5.402-1.583,9.142-4.095,10.516
					c0.702-0.38,2.843-1.653,3.363-1.936c2.512-1.371,4.091-5.117,4.091-10.518c0-8.875-4.448-18.293-9.924-21.455
					c-2.193-1.266-4.234-1.32-5.891-0.354c-0.56,0.327-2.893,1.648-3.496,2.022c-0.007,0.004-0.013,0.01-0.02,0.014
					C215.352,340.453,217.452,340.462,219.714,341.768z"/>
				<path style="opacity:0.3;" d="M202.576,353.59v-2.855c-0.513-0.606-1.165-1.12-1.948-1.573l-1.411-0.814v7.181l1.411,0.815
					c2.127,1.228,3.299,0.91,3.299-1.484c0-0.177-0.018-0.337-0.028-0.505L202.576,353.59z"/>
				<polygon style="opacity:0.2;" points="187.305,342.464 187.352,342.492 187.352,330.654 182.82,317.142 178.323,314.546 
					174.965,316.485 179.461,319.081 				"/>
				<polygon style="opacity:0.1;" points="179.461,319.081 182.82,317.142 187.353,330.655 187.352,342.492 				"/>
				<path style="opacity:0.3;" d="M202.565,340.853c0-2.173-1.028-3.687-2.989-4.82l-0.359-0.207v6.555l0.359,0.207
					C201.514,343.707,202.565,343.394,202.565,340.853z"/>
				<path style="opacity:0.2;" d="M210.025,348.344c-0.607-0.938-1.319-1.749-2.118-2.44c0,0,0.405-0.23,0.623-0.36
					c1.184-0.704,1.746-2.453,1.746-4.817c0-5.781-2.678-9.28-6.074-11.241l-6.122-3.534l-2.874,1.652l0.002-3.31l-4.497-2.596
					l-3.358,1.939l4.496,2.596v30.381l0,0l2.872-1.659v-27.064l6.122,3.535c3.396,1.961,6.074,5.459,6.074,11.241
					c0,2.799-0.788,4.736-2.463,5.097c2.463,2.084,4.209,5.192,4.209,10.09c0,2.776-0.73,4.651-2.075,5.375
					c0.01-0.005,0.021-0.008,0.031-0.014c0.59-0.328,2.858-1.65,3.421-1.982c0.368-0.216,0.687-0.523,0.956-0.915
					c-0.789-2.754-1.231-5.679-1.231-8.567C209.766,350.52,209.861,349.389,210.025,348.344z"/>
				<path style="opacity:0.3;" d="M223.073,364.614c-3.683-2.127-5.094-7.47-5.094-12c0-1.772,0.253-3.394,0.763-4.6
					c0.148,0.045,0.299,0.099,0.454,0.164c-3.11-1.365-4.576,2.078-4.576,6.374c0,4.53,1.411,9.873,5.094,12
					c2.183,1.26,3.582,0.387,4.346-1.507C223.749,364.949,223.424,364.816,223.073,364.614z"/>
				<path style="opacity:0.2;" d="M166.407,307.105c-2.145-1.239-4.14-1.306-5.777-0.405l0.002-0.004l-0.023,0.013
					c-0.063,0.035-0.127,0.07-0.189,0.108l-3.214,1.838c0.58-0.319,1.173-0.507,1.778-0.584c1.247-0.158,2.621,0.139,4.065,0.972
					c5.476,3.162,9.924,12.58,9.924,21.455c0,5.357-1.557,9.078-4.033,10.479c0.013-0.007,0.027-0.012,0.04-0.019
					c0.562-0.327,2.735-1.592,3.274-1.89c1.102-0.61,2.023-1.682,2.709-3.151v-16.173
					C173.237,314.098,170.054,309.211,166.407,307.105z"/>
				<path style="opacity:0.3;" d="M161.316,319.899c0-1.772,0.253-3.393,0.763-4.599c0.148,0.045,0.299,0.099,0.454,0.164
					c-3.11-1.365-4.576,2.078-4.576,6.374c0,4.53,1.411,9.873,5.093,12c2.183,1.26,3.583,0.387,4.347-1.506
					c-0.312-0.097-0.637-0.23-0.988-0.433C162.727,329.772,161.316,324.429,161.316,319.899z"/>
				<path style="opacity:0.2;" d="M263.411,381.914c0,0,1.052-0.609,1.583-0.91c1.383-0.786,2.233-2.807,2.233-6.107
					c0-5.966-2.775-10.625-6.433-12.737l-7.055-4.073l-3.358,1.939l7.055,4.073c3.658,2.112,6.433,6.771,6.433,12.737
					c0,4.566-1.627,6.684-4.042,6.468l6.792,16.479l0,0.001l0.887-0.512v-7.423L263.411,381.914z"/>
				<path style="opacity:0.3;" d="M320.543,406.354c0.109,0.033,0.219,0.073,0.33,0.117c-2.587-1.108-4.622,1.784-4.622,6.794
					c0,5.156,2.248,10.652,5.022,12.254c1.755,1.013,3.493,0.595,4.075-1.609c-0.237-0.084-0.476-0.192-0.716-0.33
					c-1.162-0.671-2.228-2.029-3.079-3.755l-0.543-0.314V418.6c-0.866-2.181-1.4-4.766-1.4-7.274
					C319.609,409.266,319.957,407.569,320.543,406.354z"/>
				<path style="opacity:0.2;" d="M276.58,371.274l-5.715-3.299l-3.358,1.939l5.715,3.299c5.404,3.12,9.949,12.078,9.949,20.916
					c0,5.419-1.69,8.905-4.238,10.095c0.099-0.046,0.202-0.084,0.298-0.137c0.602-0.332,2.908-1.692,3.476-2.026
					c0.981-0.578,1.815-1.522,2.452-2.81v-15.665C283.414,378.061,280.193,373.36,276.58,371.274z"/>
				<path style="opacity:0.3;" d="M275.36,394.764v-13.153c-0.773-1.069-1.67-1.941-2.665-2.516l-0.694-0.401v18.008l0.694,0.401
					c2.145,1.238,3.847,0.59,4.794-1.381c-0.453-0.09-0.93-0.266-1.436-0.558L275.36,394.764z"/>
				<polygon style="opacity:0.3;" points="254.876,393.003 254.877,393.004 258.235,391.064 258.235,389.628 254.876,380.998 				
					"/>
				<polygon style="opacity:0.2;" points="297.021,386.953 304.864,410.337 304.912,410.365 304.912,398.527 300.379,385.015 
					295.883,382.419 293.012,384.079 293.012,380.761 288.516,378.165 285.158,380.104 289.654,382.7 289.654,413.082 
					289.654,413.082 292.524,411.428 292.524,384.358 				"/>
				<polygon style="opacity:0.3;" points="235.812,375.92 234.354,381.155 234.355,381.155 237.713,379.216 238.24,377.322 				"/>
				<polygon style="opacity:0.3;" points="239.543,363.159 237.343,370.728 241.791,373.296 239.59,363.187 				"/>
				<polygon style="opacity:0.3;" points="297.021,398.48 297.021,417.335 297.021,417.336 300.379,415.396 300.379,408.379 
					297.068,398.508 				"/>
				<path style="opacity:0.2;" d="M312.767,403.012v-10.845l-4.496-2.596l-3.358,1.939l4.495,2.596v30.381l0.001,0l3.358-1.939
					v-3.231c-0.864-2.858-1.37-5.902-1.37-8.855C311.396,407.433,311.895,404.906,312.767,403.012z"/>
				<polygon style="opacity:0.2;" points="245.007,353.045 240.845,350.643 237.487,352.582 241.648,354.984 249.61,389.963 
					249.611,389.964 250.38,389.519 250.38,376.65 				"/>
				<path style="opacity:0.3;" d="M258.235,374.161v-3.211c-0.748-1.23-1.846-1.931-2.833-2.501l-0.526-0.304v7.955l0.526,0.304
					c1.683,0.971,3.692,1.945,3.728-1.731c-0.124-0.068-0.247-0.138-0.369-0.208L258.235,374.161z"/>
				<path style="opacity:0.2;" d="M325.745,413.028l3.286-1.859l2.942-3.274c-1.721-4.198-4.137-7.581-7.604-9.583
					c-2.069-1.195-3.928-1.284-5.448-0.479c-0.571,0.303-2.575,1.466-3.356,1.924c1.521-0.796,3.38-0.699,5.445,0.493
					c3.467,2.002,5.883,5.385,7.605,9.583l-2.942,3.274c-0.018-0.054-0.038-0.101-0.056-0.154l-1.248-0.721l-3.358,1.939l9.11,5.26
					v6.592c-0.523,3.439-1.778,5.404-3.371,6.268c0.021-0.012,0.044-0.018,0.065-0.03c0.565-0.319,2.72-1.606,3.257-1.89
					c1.612-0.85,2.881-2.821,3.408-6.287v-6.592L325.745,413.028z"/>
			</g>
			<g>
				<path style="opacity:0.1;" d="M174.964,335.928v-16.173c-0.227-0.745-0.482-1.475-0.757-2.188l-3.361,1.926
					c1.329,3.429,2.128,7.269,2.128,11.016c0,5.357-1.557,9.078-4.033,10.479c0.013-0.007,0.027-0.012,0.04-0.019
					c0.561-0.327,2.735-1.592,3.274-1.89C173.358,338.468,174.278,337.397,174.964,335.928z"/>
				<polygon style="opacity:0.1;" points="191.849,326.233 195.208,324.294 195.206,327.604 194.721,327.891 194.721,354.955 
					191.849,356.614 				"/>
				<polygon style="opacity:0.1;" points="241.648,354.984 245.007,353.045 250.38,376.652 250.38,389.519 249.61,389.963 				"/>
				<path style="opacity:0.1;" d="M263.411,381.914l-1.708,0.988c-0.582,0.37-1.208,0.499-1.877,0.401l6.792,16.479l0.888-0.512
					v-7.421L263.411,381.914z"/>
				<polygon style="opacity:0.1;" points="293.012,380.761 289.654,382.7 289.654,413.082 292.524,411.428 292.524,384.358 
					293.012,384.079 				"/>
				<polygon style="opacity:0.1;" points="297.021,386.953 300.379,385.015 304.912,398.528 304.912,410.365 				"/>
				<polygon style="opacity:0.1;" points="328.614,409.834 331.973,407.895 329.031,411.169 325.672,413.108 				"/>
				<path style="opacity:0.1;" d="M330.12,426.024c-0.523,3.439-1.778,5.404-3.371,6.268c0.021-0.012,0.044-0.018,0.065-0.03
					c0.565-0.319,2.72-1.606,3.257-1.89c1.612-0.85,2.881-2.821,3.408-6.287v-6.592l-3.359,1.939V426.024z"/>
				<path style="opacity:0.1;" d="M283.169,394.129c0,5.419-1.69,8.905-4.238,10.095c0.099-0.046,0.202-0.084,0.298-0.137
					c0.602-0.332,2.908-1.692,3.476-2.026c0.981-0.578,1.815-1.522,2.452-2.81v-15.665c-0.185-0.587-0.391-1.162-0.608-1.729
					l-3.357,1.937C282.424,387.002,283.169,390.572,283.169,394.129z"/>
				<path style="opacity:0.1;" d="M232.998,361.284c0-3.595-0.739-7.272-1.971-10.593l-3.359,1.939
					c1.232,3.321,1.971,6.998,1.971,10.593c0,5.402-1.583,9.142-4.095,10.516c0.702-0.38,2.843-1.653,3.363-1.936
					C231.419,370.431,232.998,366.685,232.998,361.284z"/>
				<path style="opacity:0.1;" d="M208.663,357.853c0,2.776-0.73,4.651-2.075,5.375c0.01-0.005,0.021-0.008,0.031-0.014
					c0.59-0.328,2.858-1.65,3.421-1.982c0.368-0.216,0.687-0.523,0.956-0.915c-0.789-2.754-1.231-5.679-1.231-8.567
					c0-1.23,0.095-2.361,0.259-3.405c-0.607-0.938-1.319-1.749-2.118-2.44l-2.709,1.561c-0.033,0.019-0.064,0.03-0.096,0.048
					c-0.046,0.026-0.094,0.048-0.142,0.07c-0.172,0.082-0.342,0.149-0.506,0.179C206.917,349.847,208.663,352.955,208.663,357.853z"
					/>
				<polygon style="opacity:0.3;" points="179.461,330.607 179.461,349.462 179.461,349.463 182.82,347.523 182.82,340.506 
					179.509,330.635 				"/>
				<path style="opacity:0.1;" d="M309.408,394.106v30.381l3.359-1.939v-3.231c-0.864-2.858-1.37-5.902-1.37-8.855
					c0-3.029,0.499-5.556,1.37-7.451v-10.845L309.408,394.106z"/>
			</g>
			<g>
				<path style="fill:#27DEBF;" d="M163.051,309.054c5.476,3.162,9.924,12.58,9.924,21.455c0,8.875-4.256,13.304-9.924,10.032
					c-5.834-3.368-9.948-12.63-9.948-21.505S157.623,305.92,163.051,309.054z M163.051,333.838c3.587,2.071,5.07-1.603,5.07-6.132
					s-1.578-9.97-5.07-11.986c-3.467-2.002-5.093,1.589-5.093,6.118C157.957,326.368,159.368,331.711,163.051,333.838z"/>
				<path style="fill:#27DEBF;" d="M179.461,349.462l-4.497-2.596v-30.382l4.497,2.596l7.844,23.384l0.048,0.027v-18.855
					l4.496,2.596v30.381l-4.496-2.596l-7.844-23.383l-0.048-0.027V349.462z"/>
				<path style="fill:#27DEBF;" d="M200.843,331.426c3.396,1.961,6.074,5.459,6.074,11.241c0,2.799-0.788,4.736-2.463,5.097
					c2.463,2.084,4.209,5.192,4.209,10.09c0,5.008-2.367,7.103-6.457,4.741l-7.486-4.321v-30.382L200.843,331.426z M199.576,342.589
					c1.938,1.119,2.989,0.805,2.989-1.736c0-2.173-1.028-3.687-2.989-4.82l-0.359-0.207v6.555L199.576,342.589z M200.628,356.344
					c2.127,1.228,3.299,0.91,3.299-1.484c0-2.799-1.172-4.469-3.299-5.698l-1.411-0.814v7.181L200.628,356.344z"/>
				<path style="fill:#27DEBF;" d="M219.714,341.768c5.476,3.162,9.924,12.58,9.924,21.455c0,8.875-4.257,13.304-9.924,10.032
					c-5.835-3.369-9.948-12.63-9.948-21.505C209.766,342.875,214.286,338.634,219.714,341.768z M219.714,366.553
					c3.586,2.071,5.069-1.603,5.069-6.132c0-4.53-1.577-9.97-5.069-11.986c-3.467-2.002-5.094,1.589-5.094,6.118
					C214.62,359.082,216.031,364.426,219.714,366.553z"/>
				<path style="fill:#27DEBF;" d="M249.61,389.963l-4.83-2.789l-1.459-6.919l-7.509-4.335l-1.458,5.235l-4.831-2.79l7.963-25.784
					l4.161,2.402L249.61,389.963z M239.59,363.187l-0.048-0.027l-2.2,7.568l4.448,2.569L239.59,363.187z"/>
				<path style="fill:#27DEBF;" d="M257.435,364.099c3.658,2.112,6.433,6.771,6.433,12.737c0,4.566-1.627,6.684-4.042,6.468
					l6.792,16.479l-5.715-3.3l-6.026-15.484v12.005l-4.496-2.596v-30.382L257.435,364.099z M255.402,376.404
					c1.698,0.98,3.731,1.969,3.731-1.824s-2.033-5.151-3.731-6.131l-0.526-0.304v7.955L255.402,376.404z"/>
				<path style="fill:#27DEBF;" d="M273.221,373.213c5.404,3.12,9.949,12.078,9.949,20.916c0,8.875-4.52,12.599-9.949,9.465
					l-5.715-3.3v-30.381L273.221,373.213z M272.695,397.104c3.324,1.919,5.596-0.673,5.62-5.741c0-5.082-2.272-10.334-5.62-12.267
					l-0.694-0.401v18.008L272.695,397.104z"/>
				<path style="fill:#27DEBF;" d="M289.654,413.082l-4.496-2.596v-30.382l4.496,2.596V413.082z"/>
				<path style="fill:#27DEBF;" d="M297.021,417.335l-4.496-2.596v-30.382l4.496,2.596l7.844,23.384l0.048,0.027V391.51l4.496,2.596
					v30.381l-4.496-2.596l-7.844-23.383l-0.048-0.027V417.335z"/>
				<path style="fill:#27DEBF;" d="M330.12,426.024c-1.076,7.076-5.237,7.95-9.111,5.715c-5.309-3.066-9.613-12.585-9.613-21.276
					c0-8.728,4.065-13.414,9.613-10.211c3.467,2.002,5.883,5.385,7.605,9.583l-2.942,3.274c-1.148-3.499-2.654-5.437-4.4-6.444
					c-2.774-1.602-5.022,1.335-5.022,6.601c0,5.156,2.248,10.652,5.022,12.254c2.153,1.242,4.28,0.335,4.28-3.384l-4.543-2.624
					v-5.34l9.111,5.261V426.024z"/>
			</g>
		</g>
	</g>
	<ellipse id="Shadow_12_" style="opacity:0.1;" cx="241.65" cy="302.268" rx="47.415" ry="27.375"/>
	<ellipse id="Shadow_11_" style="opacity:0.1;" cx="330.114" cy="351.292" rx="53.29" ry="30.767"/>
</g>
<g id="Speech_Bubbles">
	<g id="Speach_Bubble_4_">
		<g>
			<path id="XMLID_253_" style="fill:#27DEBF;" d="M153.465,24.845l35.487,20.445c0.783,0.452,1.417,1.551,1.417,2.455v48.533
				c0,0.904-0.638,1.997-1.425,2.441l-5.078,2.847c-0.787,0.444-2.06,0.438-2.843-0.014l-35.487-20.445
				c-0.783-0.452-1.417-1.551-1.417-2.455V30.119c0-0.904,0.638-1.997,1.425-2.441l5.078-2.847
				C151.409,24.387,152.682,24.393,153.465,24.845z"/>
			<path id="XMLID_252_" style="fill:#27DEBF;" d="M182.44,100.734V52.201c0-0.904-0.635-2.003-1.418-2.455l-35.487-20.445
				c-0.783-0.452-1.417-0.086-1.417,0.818v48.533c0,0.904,0.635,2.003,1.417,2.455l35.487,20.445
				C181.805,102.005,182.44,101.638,182.44,100.734z"/>
			<path id="XMLID_251_" style="opacity:0.2;" d="M181.023,101.553c0.755,0.438,2.133,0.453,2.845,0.017l5.076-2.852
				c0.786-0.439,1.427-1.532,1.427-2.436V47.745c0-0.471-0.177-0.989-0.452-1.447l-7.897,4.509c0.262,0.439,0.419,0.943,0.419,1.395
				v48.53C182.44,101.559,181.857,102.036,181.023,101.553z"/>
			<path id="XMLID_250_" style="opacity:0.4;fill:#FFFFFF;" d="M144.137,29.862c0.111-0.714,0.694-0.969,1.401-0.563l35.482,20.447
				c0.393,0.229,0.746,0.615,1.002,1.061l7.904-4.509c-0.256-0.426-0.596-0.792-0.976-1.008l-35.488-20.447
				c-0.779-0.452-2.049-0.458-2.842-0.013l-5.076,2.846C144.831,28.081,144.235,29.018,144.137,29.862z"/>
		</g>
		<g>
			<path id="XMLID_249_" style="fill:#27DEBF;" d="M194.255,83.737c0.89-0.53,7.556-4.283,7.772-4.408
				c0.655-0.399,0.891-1.368,0.282-2.023l-12.061-15.048l-7.806,4.437l12.054,15.055C195.085,82.378,194.85,83.305,194.255,83.737z"
				/>
			<path id="XMLID_248_" style="opacity:0.4;fill:#FFFFFF;" d="M194.255,83.737c0.89-0.53,7.556-4.283,7.772-4.408
				c0.655-0.399,0.891-1.368,0.282-2.023l-12.061-15.048l-7.806,4.437l12.054,15.055C195.085,82.378,194.85,83.305,194.255,83.737z"
				/>
			<path id="XMLID_247_" style="fill:#27DEBF;" d="M182.44,66.697l12.057,15.05c0.817,0.877,0.217,2.079-0.81,2.174l-11.247,1.219
				L182.44,66.697z"/>
		</g>
		<g id="XMLID_238_">
			<path id="XMLID_245_" style="fill:#FAFAFA;" d="M159.733,57.592c0-2.802,1.475-4.222,3.296-3.172
				c1.82,1.051,3.296,4.175,3.296,6.977c0,2.802-1.475,4.222-3.296,3.171C161.209,63.517,159.733,60.394,159.733,57.592z"/>
			<path id="XMLID_243_" style="fill:#FAFAFA;" d="M167.025,82.455l-7.991-4.614c-1.093-0.631-1.937-2.597-1.797-4.185l0.381-4.316
				c0.276-3.122,2.09-4.53,4.239-3.289l2.344,1.353c2.149,1.241,3.964,4.744,4.239,8.184l0.381,4.757
				C168.962,82.095,168.117,83.086,167.025,82.455z"/>
			<path id="XMLID_241_" style="fill:#FAFAFA;" d="M168.298,57.173c0-3.079,1.621-4.639,3.621-3.485
				c2,1.155,3.621,4.587,3.621,7.666c0,3.079-1.621,4.639-3.621,3.485C169.919,63.685,168.298,60.252,168.298,57.173z"/>
			<path style="fill:#FAFAFA;" d="M176.09,84.36l-5.292-3.055l-0.379-4.741c-0.282-3.558-1.755-7.192-3.722-9.55
				c0.864-1.226,2.205-1.538,3.713-0.667l2.575,1.487c2.364,1.365,4.358,5.205,4.657,8.99l0.421,5.215
				C178.22,83.962,177.292,85.053,176.09,84.36z"/>
			<path id="XMLID_239_" style="fill:#FAFAFA;" d="M158.267,52.5c0-2.926-1.541-6.187-3.441-7.284
				c-1.9-1.097-3.441,0.385-3.441,3.311c0,2.926,1.541,6.187,3.441,7.284C156.727,56.908,158.267,55.425,158.267,52.5z"/>
			<path style="fill:#FAFAFA;" d="M159.788,63.605c-1.869,0.082-3.268,1.919-3.537,4.99l-0.36,4.089l-5.028-2.903
				c-1.142-0.659-2.023-2.714-1.876-4.372l0.4-4.493c0.285-3.268,2.179-4.729,4.425-3.432l2.447,1.413
				C157.693,59.725,158.967,61.493,159.788,63.605z"/>
		</g>
	</g>
	<g id="Speach_Bubble_3_">
		<g id="XMLID_233_">
			<path id="XMLID_237_" style="fill:#27DEBF;" d="M403.428,113.825l0-14.134l-11.931-1.04c-0.186-0.016-0.354,0.023-0.496,0.101
				c-0.462,0.253-10.075,5.779-10.222,5.867c-0.441,0.264-0.6,0.906-0.194,1.346l12.649,13.711L403.428,113.825z"/>
			<path id="XMLID_236_" style="fill:#27DEBF;" d="M393.234,119.675l-12.649-13.711c-0.541-0.587-0.077-1.532,0.718-1.463
				l11.931,1.04V119.675z"/>
			<path id="XMLID_235_" style="fill:#27DEBF;" d="M403.424,99.686l-10.189,5.861l-11.933-1.045c-0.15-0.01-0.291,0.01-0.412,0.06
				c0.954-0.563,9.677-5.579,10.109-5.81c0.141-0.08,0.311-0.12,0.502-0.101L403.424,99.686z"/>
			<path id="XMLID_234_" style="opacity:0.5;fill:#FFFFFF;" d="M403.424,99.686l-10.189,5.861l-11.933-1.045
				c-0.15-0.01-0.291,0.01-0.412,0.06c0.954-0.563,9.677-5.579,10.109-5.81c0.141-0.08,0.311-0.12,0.502-0.101L403.424,99.686z"/>
		</g>
		<g>
			<path id="XMLID_232_" style="fill:#27DEBF;" d="M402.43,80.699l35.487,20.445c0.783,0.452,1.418,1.551,1.418,2.455v48.533
				c0,0.904-0.638,1.997-1.425,2.441l-5.078,2.847c-0.787,0.444-2.06,0.438-2.843-0.014l-35.487-20.445
				c-0.783-0.452-1.418-1.551-1.418-2.455V85.973c0-0.904,0.638-1.997,1.426-2.441l5.078-2.847
				C400.375,80.241,401.648,80.247,402.43,80.699z"/>
			<path id="XMLID_231_" style="fill:#27DEBF;" d="M431.406,156.588v-48.533c0-0.904-0.635-2.003-1.418-2.455l-35.487-20.445
				c-0.783-0.452-1.418-0.086-1.418,0.818v48.533c0,0.904,0.635,2.003,1.418,2.455l35.487,20.445
				C430.771,157.859,431.406,157.492,431.406,156.588z"/>
			<path id="XMLID_230_" style="opacity:0.2;" d="M429.988,157.406c0.755,0.438,2.133,0.453,2.845,0.017l5.076-2.852
				c0.786-0.439,1.427-1.532,1.427-2.436v-48.537c0-0.471-0.177-0.989-0.452-1.447l-7.897,4.509
				c0.262,0.439,0.419,0.943,0.419,1.395v48.53C431.406,157.413,430.823,157.89,429.988,157.406z"/>
			<path id="XMLID_229_" style="opacity:0.4;fill:#FFFFFF;" d="M393.103,85.716c0.111-0.714,0.694-0.969,1.401-0.563l35.482,20.447
				c0.393,0.229,0.746,0.615,1.002,1.061l7.904-4.509c-0.256-0.426-0.596-0.792-0.976-1.008l-35.488-20.447
				c-0.779-0.452-2.049-0.458-2.842-0.013l-5.075,2.846C393.797,83.935,393.201,84.872,393.103,85.716z"/>
		</g>
		<g id="XMLID_223_">
			<g id="XMLID_224_">
				<path id="XMLID_225_" style="fill:#FFFFFF;" d="M397.713,117.214l1.482,4.98c0.068,0.235,0.365,0.483,0.665,0.554l2.937,0.709
					c0.3,0.071,0.631,0.319,0.749,0.554c0.464,0.934,0.99,1.857,1.578,2.745c0.151,0.229,0.235,0.579,0.176,0.78l-0.956,3.237
					c-0.059,0.198,0.059,0.539,0.263,0.752l3.438,3.63c0.167,0.176,0.368,0.232,0.498,0.152c0.031-0.015,0.056-0.04,0.077-0.071
					l1.603-2.448c0.112-0.173,0.409-0.161,0.669,0.019c0.316,0.214,0.631,0.415,0.944,0.597c0.331,0.192,0.665,0.368,0.993,0.523
					c0.288,0.139,0.597,0.427,0.684,0.662l1.699,4.549c0.087,0.232,0.393,0.446,0.684,0.477l3.129,0.309
					c0.118,0.012,0.22-0.009,0.294-0.053c0.003-0.003,0.006-0.003,0.009-0.006c0.105-0.065,0.158-0.173,0.13-0.307l-0.987-4.481
					c-0.052-0.229,0.099-0.474,0.322-0.56c0.492-0.192,0.95-0.455,1.368-0.796c0.167-0.136,0.473-0.087,0.699,0.118l3.197,2.924
					c0.121,0.108,0.244,0.164,0.35,0.164h0.003c0.04,0,0.077-0.009,0.114-0.028c0,0,0.003,0,0.009-0.003c0,0,0,0,0-0.003
					c0.037-0.022,0.068-0.053,0.087-0.099l1.424-3.144c0.083-0.189,0.003-0.523-0.183-0.746l-2.996-3.63
					c-0.186-0.223-0.313-0.575-0.291-0.792c0.077-0.82,0.074-1.69-0.006-2.587c-0.018-0.226,0.18-0.421,0.452-0.436l2.686-0.152
					c0.269-0.015,0.436-0.217,0.365-0.449l-1.479-4.983c-0.071-0.232-0.368-0.48-0.665-0.551l-2.94-0.709
					c-0.297-0.071-0.628-0.322-0.746-0.557c-0.467-0.935-0.993-1.854-1.581-2.742c-0.152-0.232-0.232-0.582-0.173-0.78l0.956-3.24
					c0.059-0.198-0.059-0.535-0.266-0.752l-3.435-3.63c-0.207-0.214-0.464-0.251-0.579-0.077l-1.6,2.445
					c-0.114,0.173-0.409,0.161-0.672-0.016c-0.65-0.446-1.297-0.82-1.937-1.123c-0.288-0.136-0.597-0.424-0.684-0.659l-1.696-4.549
					c-0.087-0.235-0.393-0.449-0.684-0.477l-3.129-0.313c-0.118-0.009-0.22,0.009-0.297,0.052c-0.111,0.065-0.167,0.18-0.136,0.316
					l0.987,4.478c0.049,0.232-0.102,0.474-0.322,0.56c-0.495,0.192-0.953,0.455-1.368,0.795c-0.167,0.136-0.474,0.09-0.699-0.117
					l-3.2-2.922c-0.164-0.152-0.34-0.201-0.458-0.142c-0.006,0.003-0.012,0.006-0.019,0.009c-0.037,0.022-0.068,0.056-0.087,0.099
					l-1.424,3.147c-0.084,0.186-0.003,0.52,0.183,0.746l2.996,3.627c0.186,0.226,0.312,0.579,0.294,0.792
					c-0.043,0.433-0.062,0.879-0.059,1.334c0.003,0.409,0.025,0.83,0.062,1.253c0.022,0.226-0.179,0.421-0.452,0.436l-2.683,0.152
					c-0.074,0.003-0.142,0.022-0.195,0.05c-0.006,0.003-0.012,0.006-0.016,0.009C397.732,116.902,397.667,117.05,397.713,117.214z
					 M409.489,126.35c-3.206-3.383-4.729-8.508-3.401-11.445c0.52-1.145,1.393-1.789,2.46-1.944c0.04-0.009,0.081-0.012,0.121-0.015
					c0.037-0.006,0.074-0.009,0.115-0.013c0.037-0.003,0.074-0.006,0.111-0.006c0.009-0.003,0.016-0.003,0.025-0.003
					c0.687-0.031,1.439,0.127,2.219,0.471c0.26,0.111,0.526,0.248,0.789,0.402c0.792,0.461,1.594,1.102,2.371,1.922
					c2.405,2.541,3.862,6.057,3.881,8.895c0.003,0.313-0.012,0.616-0.049,0.91c-0.065,0.594-0.208,1.148-0.43,1.64
					c-0.594,1.317-1.663,1.968-2.948,1.982c-0.031,0-0.062,0-0.094,0c-0.066-0.001-0.133-0.003-0.2-0.007
					c-0.106-0.007-0.213-0.016-0.323-0.031c-0.093-0.013-0.186-0.028-0.279-0.046c-0.04-0.009-0.081-0.016-0.124-0.028
					c-0.059-0.012-0.115-0.028-0.173-0.044C412.259,128.656,410.832,127.768,409.489,126.35z"/>
			</g>
		</g>
	</g>
</g>
<g id="Character_2">
	<g id="Character_9_">
		<g>
			<path style="fill:#B16668;" d="M317.899,122.248c-6.603,1.301-10.872,4.782-12.284,15.12c-1.697,12.418-4.39,31.516-4.39,31.516
				s-8.776,24.845-13.246,30.428c-1.047,1.308-2.578,2.684-4.255,4.064c-4.114,5.151-13.673,8.587-9.332,11.483
				c3.325,2.219,8.362,2.659,13.122,0.005c6.423-3.582,9.052-7.715,12.246-13.019c3.971-6.596,17.73-31.252,17.73-31.252
				L317.899,122.248z"/>
			<path style="fill:#B16668;" d="M289.574,196.856c-0.858,1.421-3.779,1.772-6.573,2.331s-4.934,2.202-6.872,2.599
				c-1.665,0.34-1.188,2.337,1.791,2.492c2.98,0.155,6.494-2.111,7.065,0C285.557,206.388,291.076,200.641,289.574,196.856z"/>
			<path style="fill:#EBEBEB;" d="M295.398,183.381l-1.774,4.143c2.844,0.181,9.774,3.646,11.03,5.997l2.445-4.266L295.398,183.381z
				"/>
			<path style="fill:#37474F;" d="M317.899,122.248c0,0-6.71-0.206-9.953,5.556c-3.243,5.761-7.248,40.975-7.248,40.975
				l-6.463,16.413c2.724-0.186,11.091,4.065,12.168,6.66l11.278-18.478L317.899,122.248z"/>
		</g>
		<g id="XMLID_14957_">
			<rect id="XMLID_14963_" x="348.727" y="336.555" style="fill:#B16668;" width="9.79" height="16.759"/>
			<polygon id="XMLID_14962_" style="fill:#B16668;" points="319.493,329.337 309.709,329.673 309.219,311.938 319.493,311.602 			
				"/>
			<path id="XMLID_14961_" style="fill:#37474F;" d="M358.158,194.882c0,9.348-0.373,85.741-0.373,85.741
				c0.228,2.69,2.817,7.473,3.019,17.162c0.292,14.051-1.868,47.148-1.868,47.148s-4.752,2.777-10.9,0.215
				c0,0-7.689-46.815-9.443-60.723c-1.531-12.138-5.796-66.579-5.796-66.579l-7.482,51.782c0,0,1.805,7.239,1.213,15.558
				c-0.457,6.433-6.414,38.656-6.414,38.656s-4.608,3.126-11.303,0.865c0,0-0.584-50.58-0.698-56.483
				c-0.129-6.729,1.411-75.366,1.411-75.366L358.158,194.882z"/>
			<path id="XMLID_14960_" style="fill:#263238;" d="M348.727,348.481c0,0,0.002-1.398,0-1.398c-0.524-0.011-0.85,0.51-1.051,1.77
				c-0.143,0.901-0.276,1.583-0.573,2.769c-0.454,1.813-0.862,2.922-1.71,5.01c-1.384,3.411-2.546,4.681-5.715,8.667
				c-0.752,0.946-2.448,2.448-3.04,3.502c-0.591,1.053-0.8,3.984,0.205,4.654c3.696,2.464,9.309,2.533,13.279,1.369
				c3.054-0.895,5.258-3.335,5.765-6.477c0.146-0.902,0.092-1.825,0.195-2.733c0.236-2.072,1.277-3.964,2.452-5.687
				c0.682-0.999,1.423-1.975,1.881-3.095c0.822-2.012,0.163-4.276-0.362-6.28c-0.454-1.731-0.946-3.634-1.537-3.472
				c-0.002,0.211,0,1.067,0,1.067c-0.711,0.788-2.677,1.569-4.894,1.655C352.19,349.858,348.715,349.573,348.727,348.481z"/>
			<path id="XMLID_14959_" style="fill:#263238;" d="M309.605,326.655c0.027,0.258-0.908,1.057-1.953,2.024
				c-0.92,0.852-1.822,1.466-3.366,2.601c-2.44,1.794-4.616,3.126-7.486,4.699c-3.094,1.696-5.882,2.733-9.579,4.402
				c-0.379,0.171-0.756,0.375-1.033,0.685c-0.23,0.257-0.372,0.584-0.451,0.92c-0.319,1.373,0.443,2.82,1.548,3.696
				c1.105,0.876,2.497,1.291,3.862,1.644c3.098,0.802,6.534,1.071,9.637,0.289c2.74-0.69,4.939-2.066,7.324-3.579
				c2.034-1.29,4.208-2.49,6.624-2.842c2.073-0.302,4.629-0.201,6.429-1.442c2.001-1.379,1.2-4.324,0.635-6.854
				c-0.617-2.762-1.389-7.069-2.303-6.88v0.952c-1.177,1.782-7.25,2.507-9.836,1.196
				C309.657,328.165,309.606,326.663,309.605,326.655z"/>
			<path id="XMLID_14958_" style="fill:#263238;" d="M332.796,217.847c0,0-7.825-2.204-13.632-7.816c0,0,2.63,4.925,10.453,9.508
				l-3.785,47.249L332.796,217.847z"/>
		</g>
		<g id="XMLID_14947_">
			<path id="XMLID_14956_" style="fill:#F5F5F5;" d="M341.184,123.161c3.327,0.801,10.041,1.899,11.549,8.538
				c1.81,7.969,2.4,25.323,2.4,25.323l0.617,38.614c-6.742,4.911-32.897,7.584-47.086-2.778c0,0,3.13-46.368,3.13-53.585
				c0-7.217,4.01-15.888,15.083-16.531L341.184,123.161z"/>
			<path id="XMLID_14955_" style="fill:#455A64;" d="M327.032,121.994c0,0-4.151,4.854-5.498,10.694
				c-1.348,5.839-2.61,72.125-2.61,72.125s-7.574-0.92-10.817-3.465c0,0-0.662-54.164,0.688-62.59
				c2.384-14.877,2.157-16.362,18.227-17.723L327.032,121.994z"/>
			<path id="XMLID_14954_" style="fill:#455A64;" d="M344.101,121.035c-0.001-0.006-9.226,5.678-9.329,28.26
				c-0.089,19.525,0.205,58.361,0.205,58.361s15.318,0.956,24.994-4.825c0,0-2.041-24.663-2.155-38.456
				c4.031-19.575,7.502-38.661,1.875-40.211C353.909,122.571,344.101,121.035,344.101,121.035z"/>
			<polygon id="XMLID_14949_" style="fill:#37474F;" points="345.135,133.385 340.91,138.614 343.023,144.568 337.468,158.801 
				344.166,144.568 341.821,138.948 			"/>
			<polygon id="XMLID_14948_" style="fill:#37474F;" points="315.333,131.704 316.252,137.11 312.592,141.873 317.68,157.897 
				313.741,142.05 317.117,137.597 			"/>
		</g>
		<g id="XMLID_14919_">
			<g id="XMLID_14939_">
				<path id="XMLID_14946_" style="fill:#263238;" d="M338.796,89.332c0,7.43-6.023,13.453-13.454,13.453
					c-7.43,0-13.454-6.023-13.454-13.453c0-7.431,6.023-13.454,13.454-13.454C332.772,75.878,338.796,81.902,338.796,89.332z"/>
				<path id="XMLID_14945_" style="fill:#263238;" d="M348.599,98.898c0,0-2.18,10.243-3.054,11.926
					c-0.874,1.683-2.681,2.161-2.681,2.161l0.152-7.205L348.599,98.898z"/>
				<path id="XMLID_14944_" style="fill:#263238;" d="M345.862,84.225c0,0,2.348-0.402,4.178,1.469
					c1.795,1.835,0.793,7.579-1.442,13.204l-4.107,0.472L345.862,84.225z"/>
				<path id="XMLID_14943_" style="fill:#B16668;" d="M343.26,99.373c0.824,0.492,1.998-1.09,3.014-2.153
					c1.015-1.063,4.331-2.514,5.984,0.97c1.685,3.551-1.46,8.243-4.07,9.063c-4.498,1.412-5.173-1.473-5.173-1.473l-0.332,18.375
					l0,0c-3.11,3.987-10.096,8.673-13.858,8.004c-3.002-0.534-3.657-5.606-0.787-8.93l0.013-6.592c0,0-4.076,0.619-6.063,0.311
					c-3.308-0.511-5.401-3.118-6.392-6.701c-1.514-5.472-2-11.608-0.856-21.704c1.406-12.407,15.917-12.526,23.704-7.625
					C346.229,85.818,343.26,99.373,343.26,99.373z"/>
				<path id="XMLID_14942_" style="fill:#263238;" d="M343.26,100.758c0.414,0.008,1.989-2.605,3.014-3.538
					c1.42-1.292-0.412-12.996-0.412-12.996s1.757-3.308-0.978-6.318c-1.946-2.142-4.66-4.756-13.489-3.713
					c-6.294,0.744-13.144,2.707-18.678-0.012c-0.829,3.444-0.159,7.285,3.281,10.006c0,0,2.003,1.291,7.272,1.933
					c5.269,0.641,13.475-0.123,14.598-0.277c1.528-0.209,1.854,1.272,2.678,5.317C341.269,94.713,341.868,100.732,343.26,100.758z"
					/>
				<path id="XMLID_14941_" style="fill:#263238;" d="M345.854,85.135l4.979-2.673c-0.707-1.426-2.394-1.985-3.769-1.247
					C345.689,81.954,345.148,83.708,345.854,85.135z"/>
				<path id="XMLID_14940_" style="fill:#9A4A4D;" d="M328.051,116.637c0,0,7.384-1.488,9.965-2.86
					c1.728-0.918,3.151-2.51,3.569-3.531c0,0-0.484,2.191-2.027,4.165c-1.888,2.413-11.506,4.34-11.506,4.34V116.637z"/>
			</g>
			<g id="XMLID_14931_">
				<path id="XMLID_14938_" style="fill:#263238;" d="M327.346,97.106c0,0.849,0.663,1.536,1.48,1.533
					c0.817-0.002,1.479-0.692,1.479-1.542c0-0.849-0.662-1.535-1.479-1.533C328.009,95.567,327.346,96.257,327.346,97.106z"/>
				<path id="XMLID_14937_" style="fill:#263238;" d="M328.617,92.77l3.165,1.747c0.467-0.909,0.136-2.038-0.738-2.52
					C330.17,91.514,329.083,91.86,328.617,92.77z"/>
				<path id="XMLID_14935_" style="fill:#9A4A4D;" d="M328.72,107.748l-3.378,1.268c0.334,0.968,1.361,1.469,2.294,1.12
					C328.569,109.785,329.055,108.717,328.72,107.748z"/>
				<path id="XMLID_14934_" style="fill:#263238;" d="M315.308,93.866l3.324-1.492c-0.381-0.941-1.434-1.369-2.351-0.957
					C315.363,91.829,314.927,92.925,315.308,93.866z"/>
				<path id="XMLID_14933_" style="fill:#263238;" d="M315.965,97.106c0,0.849,0.662,1.535,1.48,1.533
					c0.817-0.003,1.48-0.692,1.48-1.542c0-0.849-0.663-1.535-1.48-1.533C316.628,95.566,315.965,96.257,315.965,97.106z"/>
				<polygon id="XMLID_14932_" style="fill:#9A4A4D;" points="323.03,96.309 322.545,105.208 317.899,103.624 				"/>
			</g>
			<g id="XMLID_14920_">
				<path id="XMLID_14930_" style="fill:#37474F;" d="M323.451,131.136c0.908,2.157,2.582,3.036,5.618,3.377
					c3.036,0.34,6.725-1.163,8.399-2.923l-2.87-2.856l-5.694,2.705l-1.558-3.635L323.451,131.136z"/>
				<g id="XMLID_14926_">
					<path id="XMLID_14929_" style="fill:#455A64;" d="M325.83,129.959c0,0-0.748,2.081-0.499,4.041
						c0.267,2.098,1.349,3.367,1.349,3.367s1.205,0.958,3.263,0.355c1.608-1.484,3.229-3.863,3.106-6.757l-4.145,0.473
						L325.83,129.959z"/>
					<path id="XMLID_14928_" style="fill:#455A64;" d="M326.679,137.367c-3.228,12.663-5.177,34.203-4.794,36.368
						c0.383,2.164,2.823,9.964,4.696,10.03c1.873,0.066,5.162-7.751,4.912-9.725c-0.478-3.769-2.338-36.663-1.551-36.318
						L326.679,137.367z"/>
					<path id="XMLID_14927_" style="fill:#37474F;" d="M329.943,137.722c0,0-1.675,0.828-3.263-0.355l-0.107,0.423
						c0,0,1.186,1.403,3.206,0.831L329.943,137.722z"/>
				</g>
				<g id="XMLID_14921_">
					<g id="XMLID_14922_">
						<path id="XMLID_14924_" style="fill:#E0E0E0;" d="M328.904,131.439c5.852-2.95,12.933-7.254,13.873-11.999l0.052-2.639
							c0,0,2.305,0.733,2.901,4.595c-0.5,5.802-4.526,11.762-9.775,14.754l-2.907-5.184L328.904,131.439z"/>
						<path id="XMLID_14923_" style="fill:#E0E0E0;" d="M328.059,118.463c0,0-1.295,0.438-2.355,1.858
							c-3.515,4.706-3.186,12.646-3.186,12.646l3.312-3.008l3.074,1.479c-1.028-1.861-1.568-6.059-0.865-8.21L328.059,118.463z"/>
					</g>
				</g>
			</g>
		</g>
		<g>
			<path style="fill:#B16668;" d="M359.692,124.164c4.581,1.173,7.609,1.551,10.746,7.539c2.73,5.21,15.332,27.009,18.038,32.227
				c1.341,2.585,2.678,5.554-0.87,9.138c-2.836,2.865-21.531,20.407-24.575,23.409c-1.943,1.916-4.372,3.665-8.36,4.02
				c-4.755,0.424-7.068-1.262-7.909-2.293c-5.044-6.186,4.603-7.121,7.907-9.177c2.629-1.637,4.066-3.489,4.066-3.489l-0.206-3.282
				c0,0,3.506,0.027,4.622-0.889c1.116-0.916,11.044-13.867,11.044-13.867s-14.257-18.774-16.089-22.7
				C356.274,140.875,354.196,127.178,359.692,124.164z"/>
			<path style="fill:#EBEBEB;" d="M365.671,177.569c-0.078,0.116-2.287,3.14-2.287,3.14s-0.349,2.636,1.861,5.505
				c2.21,2.869,5.001,4.032,5.001,4.032l3.017-2.884L365.671,177.569z"/>
			<path style="fill:#37474F;" d="M364.352,178.77c0,0,0.737,8.219,7.831,10.486c0,0,16.856-16.088,18.432-18.27
				c1.576-2.183,0.485-4.468-2.91-10.419c-3.395-5.951-16.733-30.232-18.916-32.764c-2.183-2.531-5.777-2.986-10.913-4.106
				c0,0-4.133,6.842-2.127,15.061c2.006,8.219,3.825,10.401,3.825,10.401l13.095,18.552L364.352,178.77z"/>
		</g>
	</g>
</g>
<g id="Characters_Shaking_Hands">
	<g id="Girl_2_">
		<g>
			<g id="XMLID_127_">
				<g id="XMLID_128_">
					<path style="fill:#37474F;" d="M230.507,283.715c0.049,0.902-0.046,1.57-0.744,2.936c-0.844,1.65-3.098,4.475-4.846,6.353
						c-2.591,2.785-6.467,6.074-9.242,8.498c-1.545,1.349-1.602,3.385,0.606,4.101c2.208,0.716,7.095,1.022,12.152-1.696
						c2.755-1.481,6.687-8.328,8.984-9.364c2.637-1.19,4.12-1.788,5.01-3.002c1.332-1.817,1.677-3.181,0.538-5.3
						c-1.243-2.313-3.111-5.883-3.88-5.486l0.239,0.737c-0.605,1.887-5.751,4.085-8.39,3.56L230.507,283.715z"/>
				</g>
			</g>
			<g id="XMLID_125_">
				<g id="XMLID_126_">
					<path style="fill:#37474F;" d="M250.667,296.506v-1.263c-0.251,1.925-2.808,7.858-6.312,11.054
						c-2.785,2.54-6.585,5.475-7.552,8.307c-1.005,2.946,4.489,4.112,8.09,3.752c4.216-0.421,7.505-2.954,9.064-4.742
						c2.292-2.628,2.252-4.422,3.321-5.868c1.069-1.446,3.533-3.061,4.111-4.735c0.318-0.92-0.059-2.934-0.506-4.636
						c-0.409-1.561-0.853-3.278-1.386-3.132c-0.002,0.19,0,0.963,0,0.963c-0.641,0.71-2.415,1.416-4.415,1.492
						C253.791,297.748,250.656,297.492,250.667,296.506z"/>
				</g>
			</g>
			<path style="fill:#FFA8A7;" d="M265.149,203.987c1.29-12.646,3.876-32.715,0.99-46.883c-14.62-2.215-29.095-4.195-43.875-6.012
				c-3.56,18.356-5.265,67.256-3.391,74.105c5.176,20.954,7.831,36.684,10.919,57.621c0.21,1.363,0.169,2.571-0.686,4.088
				c-1.046,1.856-2.453,3.817-4.18,5.661c-1.239,1.323-2.407,2.793-3.749,4.086c-0.182,0.175-0.435,0.58-0.385,0.987
				c0.245,1.979,3.141,1.681,5.16,0.986c2.472-0.85,4.424-2.439,6.355-4.88c1.354-1.712,3.981-4.821,5.399-6.668
				c0.599-0.779,1.268-1.765,1.463-2.258c0.561-1.417,0.501-2.09,0.275-3.344c-0.027-0.148-0.12-0.65-0.126-0.879
				c-0.081-2.863,2.787-34.106,1.933-41.242c-0.925-7.734-1.981-9.934-4.591-16.404c1.821-13.327,3.542-27.474,5.32-41.017
				c0.316,14.615,0.373,31.294,2.248,45.32c1.502,11.237,2.232,18.956,3.424,29.976c1.142,10.553,2.521,29.964,2.653,32.885
				c0.068,1.523,0.102,3.525-0.164,5.47c-0.266,1.945-2.292,7.526-5.784,10.711c-0.667,0.608-1.393,1.24-2.122,1.886
				c-1.481,1.65-1.061,3.09,2.42,3.391c3.482,0.3,6.543-1.801,9.184-5.042c1.178-1.446,5.651-8.825,5.656-10.318
				c0-0.001,0.004-0.008,0.004-0.008c-0.001,0.001-0.002,0.002-0.004,0.003c0.002-0.435,0.004-0.846,0.008-1.206
				c0.034-2.89,0.255-5.367,0.732-8.2c1.455-8.641,4.6-24.225,5.12-31.135c0.827-10.977,0-16.312-2.798-25.04
				C263.624,220.031,263.893,216.294,265.149,203.987z"/>
			<path style="fill:#37474F;" d="M224.249,143.361c0,0-3.771,13.358-5.046,28.711c-1.276,15.354-2.603,46.603-2.029,49.673
				c0.573,3.071,9.606,41.725,9.606,41.725s3.827,1.987,7.693,1.084c3.866-0.903,6.082-2.694,6.082-2.694s1.938-17.569,1.215-24.417
				c-0.723-6.848-4.154-14.976-4.154-14.976l4.364-40.533c0,0-0.542,24.096,0.798,38.185c1.34,14.089,5.806,46.922,5.806,46.922
				s2.281,2.932,6.856,2.932c4.575,0,8.175-2.077,8.175-2.077s1.576-7.316,2.239-13.096c0.663-5.78,0.663-14.756-2.407-23.454
				c0,0,3.337-38.415,4.502-46.811c1.165-8.396,4.188-23.44-5.395-37.37C261.639,146.784,224.249,143.361,224.249,143.361z"/>
			<path style="fill:#263238;" d="M241.979,181.935v-1.814c0,0-9.012-2.826-13.333-8.394c0,0,2.078,5.29,10.97,10.208
				c0,0-0.19,23.715-0.162,23.46C239.481,205.14,241.979,181.935,241.979,181.935z"/>
		</g>
		<g>
			<g id="XMLID_124_">
				<path style="fill:#FFA8A7;" d="M219.274,104.39c-3.21,9.451-8.577,36.604-8.577,36.604s-10.004,14.583-13.414,18.78
					c-1.713,2.108-5.417,6.301-5.417,6.301l8.374,6.58c6.056-6.985,15.196-16.292,18.962-21.117c1.802-2.309,3.3-4.284,3.774-6.316
					l3.815-24.151c0,0-0.035-19.304,2.96-21.837c2.995-2.533,3.794-3.066,3.794-3.066C229.763,95.897,221.795,96.968,219.274,104.39
					z"/>
			</g>
			<g id="XMLID_123_">
				<path style="fill:#455A64;" d="M235.303,95.895c-5.218-0.6-11.907-0.492-15.166,5.347c-3.258,5.839-8.684,35.922-8.684,35.922
					s5.129,3.99,10.673,3.922L235.303,95.895z"/>
			</g>
		</g>
		<g>
			<g id="XMLID_122_">
				<path style="fill:#37474F;" d="M220.793,123.986c0,0,1.557,6.876,1.087,13.686c-0.417,6.035-4.707,17.095-4.707,17.095
					s3.38,3.074,12.578,1.635c7.481-1.171,4.838-23.748,0.536-28.122C225.985,123.906,220.793,123.986,220.793,123.986z"/>
			</g>
			<g id="XMLID_120_">
				<g id="XMLID_121_">
					<path style="fill:#27DEBF;" d="M248.674,96.332c0,0,12.493,1.437,13.988,2.108c-11.719,8.243-2.232,26.59-2.232,26.59
						l-4.493,14.073c2.885,3.693,5.543,6.523,7.786,9.605c1.642,2.255,3.062,4.646,4.188,7.609
						c2.975,7.833-30.447,20.277-48.709,5.855c0.732-4.534,1.886-9.239,2.925-13.465c1.438-5.846,2.657-10.776,2.244-13.07
						c-5.251-16.164-5.575-19.079-4.643-22.684c2.622-10.148,12.968-17.013,15.522-17.013L248.674,96.332z"/>
				</g>
			</g>
			<g id="XMLID_119_">
				<path style="fill:#455A64;" d="M248.674,96.332c0,0,11.693,1.013,13.988,2.108c2.294,1.095,6.108,7.685,2.691,17.275
					c-3.417,9.59-6.511,20.847-6.161,23.113c0.349,2.267,8.498,13.972,8.498,13.972c-2.368,1.531-4.881,3.115-7.499,3.601
					l-4.179-9.122l0.98,9.693c0,0-7.515,1.821-12.885,1.354C244.107,158.328,240.144,121.152,248.674,96.332z"/>
			</g>
		</g>
		<g>
			<g id="XMLID_117_">
				<g id="XMLID_118_">
					<path style="fill:#263238;" d="M218.956,92.844h19.362c12.736,0,23.06-10.324,23.06-23.06l0,0
						c0-11.715-9.497-21.211-21.211-21.211l0,0c-11.715,0-21.211,9.497-21.211,21.211V92.844z"/>
				</g>
			</g>
			<g id="XMLID_115_">
				<g id="XMLID_116_">
					<path style="fill:#FFA8A7;" d="M227.105,58.146c-2.24,1.324-5.009,6.959-4.736,18.772c0.232,10.012,3.477,12.485,5.107,13.198
						c1.629,0.713,4.772,0.279,7.827-0.23v6.009c0,0-4.223,4.904-3.957,7.66c0.266,2.755,6.097,3.406,10.049,0.715
						c3.951-2.692,7.28-7.938,7.28-7.938l-0.069-13.816c0,0,1.798,1.747,4.847-0.919c2.517-2.201,3.365-5.912,1.403-7.903
						c-1.961-1.991-5.587-1.449-6.977,1.39c0,0-1.698-4.715-8.735-7.015C232.784,65.99,229.328,63.597,227.105,58.146z"/>
				</g>
			</g>
			<g id="XMLID_113_">
				<g id="XMLID_114_">
					<path style="fill:#263238;" d="M233.82,74.02c-0.036,0.722,0.497,1.333,1.192,1.366c0.695,0.033,1.287-0.525,1.323-1.247
						c0.036-0.721-0.497-1.333-1.192-1.366C234.449,72.741,233.856,73.299,233.82,74.02z"/>
				</g>
			</g>
			<g id="XMLID_111_">
				<g id="XMLID_112_">
					<path style="fill:#F28F8F;" d="M233.211,82.89l-2.924,0.933c0.243,0.837,1.094,1.307,1.902,1.049
						C232.996,84.615,233.454,83.727,233.211,82.89z"/>
				</g>
			</g>
			<g id="XMLID_109_">
				<g id="XMLID_110_">
					<path style="fill:#263238;" d="M223.633,70.946l2.547-1.766c-0.465-0.727-1.412-0.922-2.116-0.434
						C223.362,69.234,223.169,70.219,223.633,70.946z"/>
				</g>
			</g>
			<g id="XMLID_107_">
				<g id="XMLID_108_">
					<path style="fill:#263238;" d="M237.211,71.469l-2.548-1.766c0.465-0.728,1.412-0.922,2.116-0.434
						C237.482,69.757,237.676,70.742,237.211,71.469z"/>
				</g>
			</g>
			<g id="XMLID_105_">
				<g id="XMLID_106_">
					<path style="fill:#263238;" d="M224.305,73.72c-0.036,0.721,0.497,1.333,1.192,1.366c0.694,0.033,1.287-0.525,1.323-1.246
						c0.036-0.721-0.497-1.333-1.192-1.366C224.933,72.441,224.341,72.999,224.305,73.72z"/>
				</g>
			</g>
			<g id="XMLID_103_">
				<g id="XMLID_104_">
					<polygon style="fill:#F28F8F;" points="230.37,72.772 230.17,80.351 226.181,79.116 					"/>
				</g>
			</g>
			<g id="XMLID_101_">
				<g id="XMLID_102_">
					<path style="fill:#F28F8F;" d="M235.303,89.887c3.22-0.423,9.844-2.325,10.876-4.944c0,0-0.344,1.646-2.323,3.342
						c-1.979,1.696-8.554,3.607-8.554,3.607V89.887z"/>
				</g>
			</g>
		</g>
		<g>
			<g id="XMLID_100_">
				<path style="fill:#FFA8A7;" d="M278.486,141.995c0.925-5.52,0.008-7.319-1.941-12.725l-10.854,6.336c0,0,1.59,4.069,1.46,6.388
					c-0.089,1.583-2.253,17.391-4.286,22.906c-0.36,0.977-1.091,1.77-2.01,2.261c-2.464,1.315-3.521,2.767-5.428,4.508
					c-1.493,1.363-2.704,1.645-2.553,2.121c0.195,0.612,1.123,1.646,2.865,1.242c0.877-0.203,2.032-0.799,3.477-1.588
					c0,0-1.188,2.835-3.838,5.664c-3.591,3.834-3.908,6.318,2.776,6.837c4.188,0.325,7.71-2.031,11.498-11.05
					c1.091-2.598,2.014-6.654,2.899-10.115C274.566,156.904,277.556,147.542,278.486,141.995z"/>
			</g>
			<g id="XMLID_99_">
				<path style="fill:#37474F;" d="M262.662,98.439c4.711,2.117,6.3,6.194,8.731,12.579c2.267,5.953,7.3,24.332,7.3,24.332
					s-5.704,5.635-12.247,4.025l-8.339-20.384C258.107,118.991,254.19,105.697,262.662,98.439z"/>
			</g>
		</g>
	</g>
	<g id="Boy_2_">
		<g>
			<g id="XMLID_88_">
				<g id="XMLID_97_">
					<path id="XMLID_98_" style="fill:#263238;" d="M93.691,368.562c-0.715,0.267-1.124,1.614-1.44,4.904
						c-0.196,2.037-0.891,4.732,2.216,6.386c1.768,0.941,4.951,1.409,7.347-0.077c2.691-1.669,3.529-5.479,6.685-7.954
						c2.768-2.17,7.216-4.337,8.773-7.69c1.282-2.763,1.275-6.708-3.312-6.496c-5.593,0.258-8.756,4.665-12.552,4.75
						C99.286,362.432,94.406,368.295,93.691,368.562z"/>
				</g>
				<g id="XMLID_95_">
					<path id="XMLID_96_" style="fill:#FFBDA7;" d="M93.699,366.939l-0.017,3.318c-0.001,1.625,6.898,4.041,8.831,0.336
						c0.147-0.319,0.896-4.864,0.896-4.864L93.699,366.939z"/>
				</g>
				<g id="XMLID_93_">
					<path id="XMLID_94_" style="fill:#263238;" d="M125.674,387.881c0,0-1.31,0-1.826,5.353c-0.196,2.038-0.684,6.219,0.011,7.732
						c0.695,1.512,4.468,2.182,8.699,2.562c3.157,0.284,6.008,1.81,8.936,3.464c2.699,1.525,6.007,2.472,9.056,2.496
						c3.999,0.031,7.387-0.4,10.238-2.655c1.518-1.201,3.44-3.729,2.033-5.637c-0.502-0.68-1.372-0.841-2.135-1.126
						c-1.78-0.663-3.58-1.273-5.392-1.842c-2.699-0.848-5.379-1.786-7.92-3.039c-3.734-1.84-7.895-3.901-10.717-7.047
						L125.674,387.881z"/>
				</g>
				<g id="XMLID_91_">
					<path id="XMLID_92_" style="fill:#FFBDA7;" d="M125.694,385.112c0,0,0,2.462-0.02,3.869c-0.02,1.407,1.632,3.512,5.934,3.38
						c3.022-0.093,5.135-0.894,5.028-3.383l0.018-3.587L125.694,385.112z"/>
				</g>
				<g id="XMLID_89_">
					<path id="XMLID_90_" style="fill:#37474F;" d="M91.766,322.897c1.574-10.833,4.006-17.26,4.006-17.26
						s-1.109-14.915-1.605-29.053c-0.536-15.271,0.248-34.136,1.208-43.433c0,0,48.048-4.556,48.837,13.099
						c0.789,17.655-0.355,62.569-0.977,70.32c-0.622,7.751-1.247,15.017-2.886,29.441c-1.412,12.424-3.693,39.382-3.693,39.382
						c-5.644,3.014-10.961-0.28-10.961-0.28s-3.62-36.201-4.034-45.146c-0.537-11.594,2.165-17.992,2.165-17.992
						s-1.027-7.296-2.81-22.294c-1.26-10.596-2.945-22.665-2.945-22.665s-1.639,14.939-2.638,23.265
						c-0.926,7.72-2.491,13.823-4.808,28.214c-2.009,12.484-7.497,38.911-7.497,38.911c-5.644,3.014-9.427-0.466-9.427-0.466
						S90.191,333.73,91.766,322.897z"/>
				</g>
			</g>
			<path style="fill:#263238;" d="M118.069,277.015l-2.272-14.75c0,0-9.35-2.974-14.104-8.539c0,0,2.535,6.479,11.252,9.965
				l3.49,12.42l0.597,10.248L118.069,277.015z"/>
		</g>
		<g>
			<path style="fill:#27DEBF;" d="M105.262,173.956c-7.494-1.809-12.228,1.827-14.994,12.018c-2.37,8.734-5.84,26.811-7.188,33.567
				c-0.498,2.498-1.481,5.365,3.78,8.52c10.4,6.236,23.574,11.899,23.574,11.899l2.876-10.775l-11.618-23.79L105.262,173.956z"/>
			<path style="opacity:0.25;" d="M105.262,173.956c-7.494-1.809-12.228,1.827-14.994,12.018c-2.37,8.734-5.84,26.811-7.188,33.567
				c-0.498,2.498-1.481,5.365,3.78,8.52c10.4,6.236,23.574,11.899,23.574,11.899l2.876-10.775l-11.618-23.79L105.262,173.956z"/>
		</g>
		<g>
			<polygon id="XMLID_87_" style="fill:#FFBDA7;" points="125.96,169.212 123.716,184.978 109.534,184.488 110.897,166.066 			"/>
			<g id="XMLID_85_">
				<path id="XMLID_86_" style="fill:#F0997A;" d="M136.142,149.75c0,0,3.805,5.581,3.391,6.141
					c-0.415,0.561-3.142,1.104-3.142,1.104L136.142,149.75z"/>
			</g>
			<g id="XMLID_81_">
				<path id="XMLID_82_" style="fill:#263238;" d="M130.187,148.833c-0.04-2.554,2.005-4.666,4.56-4.706
					c2.554-0.04,4.666,2.006,4.706,4.56c0.04,2.555-2.005,4.667-4.56,4.707C132.339,153.434,130.228,151.389,130.187,148.833z
					 M131.218,148.817c0.031,1.987,1.673,3.578,3.66,3.547c1.987-0.031,3.577-1.674,3.546-3.661
					c-0.031-1.987-1.673-3.577-3.66-3.546C132.777,145.189,131.186,146.83,131.218,148.817z"/>
			</g>
			<g id="XMLID_79_">
				<path id="XMLID_80_" style="fill:#FFBDA7;" d="M125.576,134.313c7.546,1.468,9.769,4.739,10.667,16.675
					c0.938,12.472-0.275,16.416-1.888,18.123c-1.09,1.151-7.238,1.454-10.355,0.647c-3.902-1.01-12.729-3.982-16.94-10.196
					c-4.952-7.312-6.381-17.304-1.268-21.493C112.987,132.173,122.506,133.715,125.576,134.313z"/>
			</g>
			<path style="fill:#F0997A;" d="M125.842,170.075c3.246,0.358,7.611-0.011,8.513-0.964c-3.625,0.224-8.071-1.589-8.071-1.589
				L125.842,170.075z"/>
			<g id="XMLID_76_">
				<g id="XMLID_77_">
					<path id="XMLID_78_" style="fill:#263238;" d="M137.413,137.322c-0.076,0.08-0.153,0.158-0.232,0.236
						c-1.491,1.46-3.415,2.402-4.976,3.787c-1.723,1.529-2.883,3.535-3.484,5.746c-0.494,1.818-0.664,3.967-2.618,4.837
						c0,0-1.32-4.809-5.38-4.137c-4.087,0.676-4.557,5.905-1.926,9.037c2.632,3.131,5.018,1.877,5.018,1.877
						s-0.017,6.903-3.012,10.858c0,0-3.463,1.181-9.883-0.082c-3.946-0.777-9.587-5.605-12.007-10.775
						c-5.12-10.935-5.622-20.84,1.362-23.921c0.68-5.087,4.64-7.426,9.179-8.544c6.788-1.673,13.222,2.271,19.936,0.656
						c1.407-0.338,2.771-0.866,4.204-1.066c0.164-0.023,0.339-0.04,0.488,0.032c0.346,0.166,0.331,0.66,0.237,1.033
						c-0.338,1.353-1.003,2.622-1.923,3.669c2.633,0.14,5.11-0.282,7.619-1.085C140.359,132.305,139.372,135.26,137.413,137.322z"/>
				</g>
			</g>
			<g id="XMLID_69_">
				<g id="XMLID_73_">
					<g id="XMLID_74_">
						<path id="XMLID_75_" style="fill:#263238;" d="M101.282,137.24l-4.542-2.582c0.713-1.254,2.308-1.693,3.562-0.98
							C101.556,134.391,101.995,135.986,101.282,137.24z"/>
					</g>
				</g>
				<g id="XMLID_70_">
					<g id="XMLID_71_">
						<path id="XMLID_72_" style="fill:#263238;" d="M126.18,154.63l-0.221-5.22c1.441-0.061,2.66,1.058,2.72,2.5
							C128.741,153.351,127.622,154.569,126.18,154.63z"/>
					</g>
				</g>
			</g>
			<polygon id="XMLID_68_" style="fill:#263238;" points="139.005,147.726 125.043,149.758 125.622,150.732 139.021,148.777 			"/>
		</g>
		<g id="XMLID_66_">
			<path id="XMLID_67_" style="fill:#27DEBF;" d="M93.874,182.245c1.655-6.471,3.992-8.584,9.624-8.735
				c1.687-0.045,7.441,0.857,8.659,1.106c0.592,2.733,7.658,4.593,14.812,3.116c2.127,0.621,7.758,2.152,9.525,2.794
				c5.061,1.837,7.512,7.092,7.847,23.773c0,0,0.969,39.562-0.014,46.392c-12.759,4.974-26.001,4.751-33.313,3.115
				c-15.221-3.407-17.027-9.737-17.027-9.737s0.798-15.878,1.316-27.953c-0.763-7.689-1.91-13.471-2.325-19.604
				C92.558,190.3,93.251,184.68,93.874,182.245z"/>
		</g>
		<g>
			<g id="XMLID_65_">
				<path style="fill:#FFBDA7;" d="M180.235,179.523c1.225-3.127,3.023-8.686,5.939-12.484c2.848-3.709,3.977-6.591,5.128-4.927
					c1.521,2.198-1.913,6.596-1.152,7.035c0.761,0.44,3.619,6.237,3.907,9.459c0.288,3.222-8.24,11.316-8.24,11.316L180.235,179.523
					z"/>
			</g>
			<path style="fill:#FFBDA7;" d="M136.494,180.527c0,0,3.783,0.566,7.087,3.347c3.549,2.986,21.472,17.023,21.472,17.023
				l16.099-23.35l7.874,9.072c0,0-11.792,22.462-16.733,30.859c-1.547,2.629-5.443,3.128-12.174-0.755
				c-5.6-3.231-24.026-14.786-24.026-14.786S131.532,188.562,136.494,180.527z"/>
			<path style="fill:#27DEBF;" d="M135.521,180.203c0,0,2.686,0.054,5.353,1.411c2.667,1.356,24.179,18.856,24.179,18.856
				l5.484-7.527c4.438,1.116,7.684,3.149,11.085,7.619c0,0-5.993,12.807-8.526,17.123c-2.533,4.316-4.691,3.378-9.476,1.313
				c-4.785-2.064-24.488-13.601-24.488-13.601s-5.615-3.832-6.491-10.225C130.969,182.97,135.521,180.203,135.521,180.203z"/>
			<path style="opacity:0.1;" d="M135.521,180.203c0,0,2.686,0.054,5.353,1.411c2.667,1.356,24.179,18.856,24.179,18.856
				l5.484-7.527c4.438,1.116,7.684,3.149,11.085,7.619c0,0-5.993,12.807-8.526,17.123c-2.533,4.316-4.691,3.378-9.476,1.313
				c-4.785-2.064-24.488-13.601-24.488-13.601s-5.615-3.832-6.491-10.225C130.969,182.97,135.521,180.203,135.521,180.203z"/>
			<path style="opacity:0.1;" d="M165.053,200.47c0,0,2.912,2.837,4.549,4.928c0,0-0.121-3.077-3.599-6.231L165.053,200.47z"/>
			<path style="fill:#27DEBF;" d="M170.537,192.943l2.803-4.066c0,0,3.187,0.344,6.461,2.613c3.274,2.269,4.258,4.512,4.258,4.512
				l-2.437,4.56C178.653,197.219,174.841,194.378,170.537,192.943z"/>
			<path style="opacity:0.25;" d="M170.537,192.943l2.803-4.066c0,0,3.187,0.344,6.461,2.613c3.274,2.269,4.258,4.512,4.258,4.512
				l-2.437,4.56C178.653,197.219,174.841,194.378,170.537,192.943z"/>
			<path style="fill:#455A64;" d="M182.371,196.513c0,0.414-0.336,0.749-0.749,0.749s-0.749-0.335-0.749-0.749
				c0-0.414,0.335-0.749,0.749-0.749S182.371,196.099,182.371,196.513z"/>
		</g>
		<g>
			<path style="fill:#27DEBF;" d="M110.567,170.524l-0.112,1.517c0,0,0.746,2.143,5.05,2.942c7.234,1.343,9.763-0.903,9.763-0.903
				l0.185-1.302c0,0,0.694-0.286,1.868,0.617c1.174,0.903,5.006,5.862,5.006,5.862s-1.378-0.402-5.899,1.52
				c-4.69,1.994-10.501,1.738-14.114,0.533c-3.613-1.206-4.976-4.462-5.156-5.787C106.977,174.197,109.324,169.982,110.567,170.524z
				"/>
			<path style="opacity:0.25;" d="M110.567,170.524l-0.112,1.517c0,0,0.746,2.143,5.05,2.942c7.234,1.343,9.763-0.903,9.763-0.903
				l0.185-1.302c0,0,0.694-0.286,1.868,0.617c1.174,0.903,5.006,5.862,5.006,5.862s-1.378-0.402-5.899,1.52
				c-4.69,1.994-10.501,1.738-14.114,0.533c-3.613-1.206-4.976-4.462-5.156-5.787C106.977,174.197,109.324,169.982,110.567,170.524z
				"/>
		</g>
	</g>
	<g id="Hands_2_">
		<path style="fill:#FFBDA7;" d="M189.913,168.654c0,0,10.311-0.895,11.814-0.028c1.502,0.867,1.049,5.356,0,8.093
			c-1.049,2.737-6.309,4.519-11.189,7.824C190.527,184.072,189.913,168.654,189.913,168.654z"/>
		<path style="fill:#FFA8A7;" d="M190.538,184.543c1.971-1.475,2.03-3.27,2.418-6.146c0.388-2.877,8.274-5.962,8.522-3.82
			c0.248,2.142,0.97,3.93-1.455,6.52C197.599,183.686,194.146,186.467,190.538,184.543z"/>
		<path style="fill:#FFA8A7;" d="M191.095,166.074c-1.885,2.44-2.205,5.313-3.198,6.903c-0.994,1.59-2.499,3.418-0.312,3.716
			c2.186,0.298,4.831-2.558,6.023-5.142c1.192-2.584,3.18-3.286,3.18-3.286c-1.03-0.345-0.486-4.454-1.211-5.019
			C195.576,163.246,191.866,164.765,191.095,166.074z"/>
	</g>
</g>
</svg>
