<svg width="328" height="328" viewBox="0 0 328 328" fill="none" xmlns="http://www.w3.org/2000/svg">
<g clip-path="url(#clip0_442_7195)">
<path d="M328 0H0V328H328V0Z" fill="white"/>
<path d="M27.4052 173.03C27.2327 172.616 27.021 172.171 26.9347 172.031C26.8407 171.945 26.8014 171.929 26.8014 171.929C26.8563 171.953 27.021 171.968 27.1778 171.867C27.3268 171.773 27.3739 171.64 27.3739 171.609L25.8134 171.906C25.7037 171.289 25.9311 170.735 26.4094 170.485C26.7074 170.329 27.3268 170.172 28.1031 170.93C28.1815 171.008 28.3775 171.203 28.8951 172.413L27.4287 173.03H27.4052Z" fill="#CFDBF4"/>
<path d="M304.955 195.112L303.394 194.784C303.778 192.98 304.147 191.083 304.484 189.139L306.052 189.412C305.715 191.372 305.339 193.293 304.955 195.112ZM306.946 183.673L305.37 183.454C305.629 181.565 305.864 179.644 306.06 177.746L307.644 177.91C307.44 179.831 307.205 181.768 306.946 183.673ZM308.154 172.132L306.57 172.023C306.703 170.102 306.813 168.166 306.884 166.284L308.475 166.339C308.405 168.244 308.303 170.196 308.162 172.132H308.154ZM31.3965 169.907L30.0713 169.025C30.9181 167.76 31.8513 166.097 32.8236 164.074L34.2585 164.761C33.247 166.854 32.2904 168.58 31.3965 169.907ZM306.978 160.537C306.978 158.601 306.938 156.664 306.86 154.798L308.452 154.736C308.53 156.625 308.569 158.585 308.577 160.545H306.985L306.978 160.537ZM36.6187 159.436L35.1446 158.835C35.5445 157.867 35.9522 156.828 36.36 155.766C36.6579 154.993 36.9794 154.22 37.3245 153.455L38.7751 154.103C38.4458 154.837 38.1321 155.587 37.842 156.328C37.4264 157.406 37.0108 158.452 36.6109 159.436H36.6187ZM119.062 149.551C117.815 149.551 116.545 149.434 115.274 149.192L115.565 147.63C117.431 147.981 119.297 148.052 121.101 147.841L121.281 149.418C120.552 149.504 119.799 149.543 119.054 149.543L119.062 149.551ZM41.4333 149.09L40.0767 148.263C41.0647 146.638 42.186 145.014 43.4093 143.437L44.6717 144.405C43.4877 145.943 42.3978 147.521 41.4333 149.09ZM306.484 149.067C306.311 147.13 306.092 145.21 305.833 143.367L307.409 143.148C307.676 145.014 307.895 146.959 308.068 148.926L306.484 149.067ZM127.083 147.817L126.433 146.373C128.048 145.647 129.647 144.671 131.184 143.453L132.172 144.694C130.534 145.99 128.824 147.044 127.083 147.817ZM109.582 147.365C107.849 146.576 106.116 145.576 104.438 144.397L105.355 143.101C106.947 144.226 108.594 145.17 110.24 145.92L109.582 147.365ZM99.8977 140.595C99.8036 140.501 99.7095 140.407 99.6233 140.314C98.2197 138.877 96.9729 137.636 95.8124 136.519L96.9181 135.379C98.0864 136.503 99.3488 137.76 100.76 139.205C100.847 139.291 100.933 139.385 101.027 139.47L99.8977 140.587V140.595ZM136.438 140.587L135.238 139.541C136.414 138.198 137.567 136.683 138.681 135.028L140.006 135.91C138.861 137.62 137.661 139.197 136.438 140.587ZM48.3414 139.994L47.1417 138.947C48.4826 137.417 49.8234 135.988 51.1251 134.684L52.2542 135.801C50.9761 137.081 49.6666 138.487 48.3414 139.994ZM304.868 137.729C304.515 136.019 304.037 134.153 303.449 132.193L304.978 131.74C305.574 133.747 306.06 135.652 306.429 137.409L304.868 137.729ZM91.5703 132.654C89.9785 131.295 88.5044 130.147 87.0616 129.156L87.9712 127.852C89.461 128.883 90.9744 130.062 92.6054 131.451L91.5703 132.654ZM56.4493 131.92L55.4221 130.71C57.0139 129.367 58.5978 128.18 60.1347 127.18L61.0051 128.508C59.5231 129.468 57.994 130.616 56.4571 131.912L56.4493 131.92ZM143.017 130.897L141.613 130.147C142.476 128.555 143.33 126.829 144.146 125.017L145.597 125.666C144.765 127.508 143.895 129.265 143.009 130.897H143.017ZM301.63 126.743C300.987 124.986 300.273 123.19 299.513 121.402L300.979 120.785C301.747 122.597 302.469 124.424 303.128 126.204L301.63 126.751V126.743ZM82.1765 126.306C80.3652 125.463 78.6322 124.893 76.8758 124.572L77.1659 123.011C79.0321 123.354 80.9454 123.979 82.8508 124.869L82.1765 126.306ZM65.9764 125.861L65.3727 124.393C67.3094 123.596 69.2541 123.073 71.1595 122.839L71.3555 124.408C69.5991 124.627 67.7878 125.119 65.9843 125.861H65.9764ZM147.863 120.325L146.396 119.708C147.126 117.974 147.996 116.202 148.976 114.445L150.372 115.21C149.423 116.92 148.576 118.638 147.871 120.325H147.863ZM297.145 116.171C296.314 114.453 295.435 112.727 294.526 111.056L295.929 110.307C296.847 112.001 297.741 113.75 298.587 115.491L297.152 116.179L297.145 116.171ZM153.367 110.354L152.05 109.463C153.109 107.902 154.277 106.325 155.516 104.755L156.763 105.739C155.547 107.277 154.402 108.823 153.367 110.354ZM291.664 106.067C290.66 104.412 289.617 102.787 288.559 101.226L289.876 100.336C290.95 101.913 292.009 103.568 293.02 105.239L291.656 106.059L291.664 106.067ZM160.471 101.366L159.287 100.312C160.558 98.8989 161.906 97.4778 163.31 96.088L164.439 97.2046C163.059 98.5788 161.726 99.9843 160.479 101.366H160.471ZM285.202 96.5721C284.018 95.0261 282.803 93.5269 281.58 92.1214L282.787 91.0829C284.034 92.5196 285.273 94.0422 286.473 95.6117L285.202 96.5721ZM168.603 93.2458L167.536 92.0746C168.956 90.794 170.438 89.5056 171.951 88.2641L172.97 89.4822C171.481 90.7081 170.014 91.9809 168.611 93.2458H168.603ZM277.675 87.9284C276.295 86.5541 274.875 85.2502 273.464 84.0477L274.491 82.8374C275.942 84.0633 277.385 85.3985 278.796 86.804L277.667 87.9206L277.675 87.9284ZM177.487 85.9139L176.523 84.6489C178.075 83.4777 179.659 82.3299 181.251 81.2367L182.16 82.5407C180.592 83.6261 179.024 84.7582 177.487 85.9139ZM268.94 80.573C267.348 79.4643 265.709 78.457 264.086 77.5825L264.847 76.1926C266.525 77.0984 268.203 78.1369 269.849 79.2769L268.94 80.5808V80.573ZM186.967 79.3706L186.12 78.0276C187.814 76.9656 189.508 75.9662 191.147 75.0526L191.923 76.4347C190.307 77.3326 188.637 78.3165 186.967 79.3628V79.3706ZM258.926 75.201C257.139 74.5139 255.312 73.9595 253.5 73.5456L253.853 71.9996C255.735 72.4291 257.633 73.0069 259.499 73.7252L258.926 75.201ZM197.035 73.8189L196.361 72.3822C198.376 71.4374 200.219 70.6956 201.834 70.1725L202.328 71.6795C200.776 72.1792 198.996 72.8976 197.043 73.8111L197.035 73.8189ZM247.902 72.7102C246.718 72.6243 245.502 72.6008 244.318 72.6321C244.279 72.6321 244.248 72.6321 244.208 72.6321C243.409 72.6321 242.656 72.39 241.958 72.148L242.483 70.6488C243.103 70.8674 243.699 71.0548 244.271 71.0392C245.51 71.008 246.772 71.0392 248.011 71.1251L247.902 72.7024V72.7102ZM236.445 70.8518C234.571 70.5082 232.658 70.2271 230.761 70.0007L230.949 68.4234C232.878 68.6499 234.822 68.9388 236.736 69.2902L236.445 70.8518ZM207.864 70.4458L207.605 68.8841C209.495 68.5718 211.455 68.3219 213.416 68.1502L213.557 69.7274C211.636 69.8992 209.722 70.1413 207.864 70.4458ZM225.036 69.5244C223.813 69.4619 222.566 69.4229 221.343 69.4151C221.131 69.4151 220.928 69.4151 220.716 69.4151H220.261C219.94 69.4151 219.61 69.4151 219.289 69.4307L219.265 67.8456C219.595 67.8456 219.932 67.8378 220.261 67.8378H220.724C220.935 67.8378 221.147 67.8378 221.359 67.8378C222.606 67.8456 223.868 67.8847 225.123 67.9471L225.044 69.5322L225.036 69.5244Z" fill="#CFDBF4"/>
<path d="M302.783 203.537L301.261 203.061C301.528 202.225 301.795 201.304 302.061 200.328L303.598 200.742C303.324 201.741 303.049 202.686 302.783 203.545V203.537Z" fill="#CFDBF4"/>
<path d="M311.635 260.428L31.3102 260.342C31.3102 260.342 31.2082 260.232 31.0201 260.022C28.1109 256.742 4.34408 228.578 15.5963 194.878C17.5566 189.006 20.5833 182.962 24.9666 176.856C52.6071 138.346 84.8346 140.985 108.476 156.61C118.544 163.262 147.58 157.429 172.288 118.248C180.184 105.731 192.636 97.9229 206.805 94.3702C207.268 94.2531 207.731 94.1437 208.193 94.0344C208.335 94.0032 208.468 93.972 208.609 93.9407C208.86 93.8861 209.119 93.8314 209.37 93.7768C214.506 92.6836 219.83 92.137 225.232 92.098C225.648 92.098 226.064 92.098 226.479 92.098C228.134 92.1136 229.788 92.1761 231.451 92.2854C236.32 92.6055 241.205 93.3395 246.012 94.4639C246.678 94.62 247.337 94.784 247.996 94.948C248.231 95.0105 248.458 95.0651 248.693 95.1276C248.717 95.1276 248.741 95.1432 248.764 95.1432C250.113 95.5024 251.454 95.8928 252.779 96.3222C264.078 99.9062 274.664 105.723 283.25 113.555C283.681 113.953 284.112 114.351 284.536 114.757C284.967 115.171 285.398 115.593 285.822 116.022C300.65 130.991 308.452 152.541 301.489 179.425C291.185 219.208 332.862 220.653 311.62 260.42L311.635 260.428Z" fill="#EAF2F9"/>
<path opacity="0.5" d="M283.266 113.571C274.679 105.739 264.086 99.9218 252.794 96.3378C251.461 95.9162 250.128 95.5258 248.78 95.1588C248.756 95.1588 248.733 95.1432 248.709 95.1432C248.482 95.0807 248.246 95.0183 248.011 94.9636C247.353 94.7918 246.694 94.6278 246.027 94.4795C245.149 94.2765 244.263 94.0813 243.377 93.9017C239.433 93.0974 235.442 92.5665 231.466 92.301C229.804 92.1917 228.149 92.1292 226.495 92.1136C226.079 92.1136 225.664 92.1136 225.248 92.1136C219.853 92.1448 214.521 92.6055 209.385 93.5113C209.126 93.5581 208.875 93.605 208.625 93.6518C208.483 93.6752 208.35 93.7065 208.209 93.7299V176.606H284.559V114.781C284.136 114.375 283.705 113.977 283.273 113.578L283.266 113.571Z" fill="#F7FBFF"/>
<path d="M227.005 233.13L231.153 242.156L239.151 259.545C239.284 259.842 239.582 260.029 239.903 260.029H239.966C240.554 260.029 240.978 259.475 240.821 258.905L234.469 236.285L233.544 232.982L226.997 233.122L227.005 233.13Z" fill="#F8DCBE"/>
<path d="M231.153 242.156C230.76 238.049 234.477 236.285 234.477 236.285L233.552 232.982L227.005 233.122L231.153 242.149V242.156Z" fill="#E9C2A1"/>
<path d="M269.873 233.13L274.021 242.156L282.019 259.545C282.152 259.842 282.45 260.029 282.772 260.029H282.834C283.422 260.029 283.846 259.475 283.689 258.905L277.338 236.285L276.412 232.982L269.865 233.122L269.873 233.13Z" fill="#F8DCBE"/>
<path d="M274.021 242.156C273.629 238.049 277.346 236.285 277.346 236.285L276.42 232.982L269.873 233.122L274.021 242.149V242.156Z" fill="#E9C2A1"/>
<path d="M282.011 215.351H92.6367C91.6883 215.351 90.9194 216.116 90.9194 217.061V232.131C90.9194 233.075 91.6883 233.841 92.6367 233.841H282.011C282.959 233.841 283.728 233.075 283.728 232.131V217.061C283.728 216.116 282.959 215.351 282.011 215.351Z" fill="#F8DCBE"/>
<path d="M99.4899 232.99L98.5646 236.292L92.2132 258.913C92.0564 259.475 92.4798 260.037 93.0679 260.037H93.1306C93.4521 260.037 93.7501 259.85 93.8834 259.553L101.881 242.164L106.03 233.138L99.482 232.997L99.4899 232.99Z" fill="#E9C2A1"/>
<path d="M133.262 232.99L132.337 236.292L125.986 258.913C125.829 259.475 126.252 260.037 126.84 260.037H126.903C127.224 260.037 127.522 259.85 127.656 259.553L135.654 242.164L139.802 233.138L133.254 232.997L133.262 232.99Z" fill="#E9C2A1"/>
<path d="M161.216 161.24H90.3157C89.2287 161.24 88.3475 162.117 88.3475 163.2V231.881C88.3475 232.963 89.2287 233.841 90.3157 233.841H161.216C162.303 233.841 163.185 232.963 163.185 231.881V163.2C163.185 162.117 162.303 161.24 161.216 161.24Z" fill="#E9C2A1"/>
<path d="M165.756 163.161V221.472C165.756 222.534 164.988 223.401 164.039 223.401H92.6289C91.6879 223.401 90.9116 222.534 90.9116 221.472V163.161C90.9116 162.099 91.6801 161.232 92.6289 161.232H164.039C164.98 161.232 165.756 162.099 165.756 163.161Z" fill="#F8DCBE"/>
<path d="M104.524 220.286C104.524 220.286 91.3821 219.239 90.9194 218.919V206.91C93.6874 204.302 99.1292 201.327 99.1292 201.327L104.524 220.278V220.286Z" fill="#E9C2A1"/>
<path d="M108.272 175.263C108.272 174.568 108.758 174.006 109.354 174.006C109.95 174.006 110.436 174.568 110.436 175.263C110.436 175.958 109.95 176.52 109.354 176.52C108.758 176.52 108.272 175.958 108.272 175.263Z" fill="#E9C2A1"/>
<path d="M151.47 175.263C151.47 174.568 151.956 174.006 152.552 174.006C153.148 174.006 153.634 174.568 153.634 175.263C153.634 175.958 153.148 176.52 152.552 176.52C151.956 176.52 151.47 175.958 151.47 175.263Z" fill="#E9C2A1"/>
<path d="M108.272 198.907C108.272 198.212 108.758 197.65 109.354 197.65C109.95 197.65 110.436 198.212 110.436 198.907C110.436 199.602 109.95 200.164 109.354 200.164C108.758 200.164 108.272 199.602 108.272 198.907Z" fill="#273F76"/>
<path d="M151.47 198.907C151.47 198.212 151.956 197.65 152.552 197.65C153.148 197.65 153.634 198.212 153.634 198.907C153.634 199.602 153.148 200.164 152.552 200.164C151.956 200.164 151.47 199.602 151.47 198.907Z" fill="#E9C2A1"/>
<path d="M220.457 217.061V232.138C220.457 233.075 219.673 233.848 218.716 233.848H90.8175C89.8609 233.848 89.0768 233.083 89.0768 232.138V217.061C89.0768 216.124 89.8609 215.351 90.8175 215.351H218.724C219.681 215.351 220.465 216.116 220.465 217.061H220.457Z" fill="#E9C2A1"/>
<path d="M132.596 192.582C132.596 192.582 127.789 206.496 130.306 215.476H138.618C138.618 215.476 141.684 199.102 132.596 192.582Z" fill="#EBF2FD"/>
<path d="M132.596 192.582C132.596 192.582 149.329 190.255 158.542 192.582L165.466 215.476H138.618C138.618 215.476 141.684 201.772 132.596 192.582Z" fill="white"/>
<path d="M224.903 214.773C224.738 214.687 224.652 214.64 224.652 214.64C224.77 214.672 224.856 214.719 224.903 214.773Z" fill="#D57330"/>
<path d="M100.007 192.582C100.007 192.582 95.2007 206.496 97.7178 215.476H106.03C106.03 215.476 109.095 199.102 100.007 192.582Z" fill="#EBF2FD"/>
<path d="M100.007 192.582C100.007 192.582 116.741 190.255 125.954 192.582L132.878 215.476H106.03C106.03 215.476 109.095 201.772 100.007 192.582Z" fill="white"/>
<path d="M79.9025 202.756V204.208C79.9025 204.716 79.7378 205.13 79.534 205.13H26.4486C26.2447 205.13 26.0801 204.716 26.0801 204.208V202.756C26.0801 202.249 26.2447 201.835 26.4486 201.835H79.534C79.7378 201.835 79.9025 202.249 79.9025 202.756Z" fill="#77A3E4"/>
<path d="M79.9024 202.756V204.208C79.9024 204.716 79.7535 205.13 79.5653 205.13H37.4185C37.2303 205.13 37.0813 204.716 37.0813 204.208V202.756C37.0813 202.249 37.2303 201.835 37.4185 201.835H79.5653C79.7535 201.835 79.9024 202.249 79.9024 202.756Z" fill="#9EC2F6"/>
<path d="M66.4626 205.122H28.7775V259.819H66.4626V205.122Z" fill="#77A3E4"/>
<path d="M77.0247 205.122H39.3396V259.819H77.0247V205.122Z" fill="#AFD3FF"/>
<path d="M75.0017 256.805H41.3627V206.668H75.0017V256.805ZM41.7312 256.445H74.641V207.035H41.7312V256.445Z" fill="#77A3E4"/>
<path d="M74.8214 223.253H41.5509V223.612H74.8214V223.253Z" fill="#77A3E4"/>
<path d="M74.8214 240.165H41.5509V240.524H74.8214V240.165Z" fill="#77A3E4"/>
<path d="M61.5931 209.901H55.422C55.1241 209.901 54.881 209.659 54.881 209.362C54.881 209.065 55.1241 208.823 55.422 208.823H61.5931C61.8911 208.823 62.1341 209.065 62.1341 209.362C62.1341 209.659 61.8911 209.901 61.5931 209.901Z" fill="#77A3E4"/>
<path d="M61.5931 226.438H55.422C55.1241 226.438 54.881 226.196 54.881 225.9C54.881 225.603 55.1241 225.361 55.422 225.361H61.5931C61.8911 225.361 62.1341 225.603 62.1341 225.9C62.1341 226.196 61.8911 226.438 61.5931 226.438Z" fill="#77A3E4"/>
<path d="M61.5931 243.671H55.422C55.1241 243.671 54.881 243.429 54.881 243.132C54.881 242.836 55.1241 242.594 55.422 242.594H61.5931C61.8911 242.594 62.1341 242.836 62.1341 243.132C62.1341 243.429 61.8911 243.671 61.5931 243.671Z" fill="#77A3E4"/>
<path d="M43.8248 182.509C43.8248 182.509 40.7196 178.902 43.6366 176.606C43.6366 176.606 45.7616 175.326 47.5023 175.427C47.5023 175.427 45.0402 179.534 45.84 179.94C46.6319 180.347 48.2472 175.17 48.2472 175.17C48.2472 175.17 53.0931 174.701 54.6457 175.451C54.6457 175.451 50.5055 178.824 51.3759 179.027C52.2463 179.23 56.7236 175.919 56.7236 175.919C56.7236 175.919 61.2324 176.684 60.9893 179.425C60.7462 182.166 59.1936 183.009 58.5115 182.939C57.8293 182.869 53.8381 181.346 53.744 181.908C53.6577 182.463 56.065 184.282 57.743 184.368C57.743 184.368 54.5673 187.858 52.4502 186.851C50.3409 185.843 50.1605 184.243 48.8432 183.649C47.5258 183.048 46.4045 183.048 46.9456 183.665C47.4866 184.274 49.8704 184.867 50.6231 186.195C51.3759 187.522 52.0502 188.412 49.8625 188.092C47.6748 187.772 44.1227 186.171 43.9659 184.352L43.8091 182.525L43.8248 182.509Z" fill="#81B278"/>
<path d="M58.7703 179.488C58.7703 179.488 46.5222 179.019 43.8248 182.502C43.8248 182.502 43.2289 184.282 41.3862 185.906L41.0961 186.687C41.0961 186.687 43.2211 184.461 43.9738 184.321C43.9738 184.321 42.7898 180.003 58.7703 179.48V179.488Z" fill="#81B278"/>
<path d="M41.3861 185.914C41.3861 185.914 38.7593 187.85 38.579 191.309L39.0573 191.348C39.0573 191.348 39.8963 187.772 41.4175 186.374C42.9309 184.977 41.394 185.914 41.394 185.914H41.3861Z" fill="#81B278"/>
<path d="M32.9647 177.973C32.9647 177.973 37.9047 175.217 35.5993 171.476C35.5993 171.476 33.7566 169.181 31.7807 168.587C31.7807 168.587 32.8314 174.162 31.7807 174.295C30.7299 174.428 31.0593 168.002 31.0593 168.002C31.0593 168.002 25.8527 165.511 23.8139 165.706C23.8139 165.706 27.0445 171.148 25.986 171.016C24.9352 170.883 21.3126 165.378 21.3126 165.378C21.3126 165.378 15.9805 164.394 15.118 167.541C14.2633 170.688 15.6433 172.265 16.4353 172.46C17.2273 172.655 22.3006 172.593 22.1673 173.249C22.034 173.905 18.6073 174.951 16.7019 174.365C16.7019 174.365 18.8112 179.55 21.5792 179.285C24.3471 179.019 25.2018 177.317 26.9112 177.184C28.6206 177.051 29.8752 177.512 29.0205 177.973C28.1658 178.433 25.2646 178.121 23.8845 179.292C22.5044 180.464 21.3831 181.182 23.9472 181.713C26.5192 182.236 31.1298 181.908 32.0473 179.94L32.9725 177.973H32.9647Z" fill="#A7D19E"/>
<path d="M17.5566 168.525C17.5566 168.525 31.3886 172.983 32.9726 177.973C32.9726 177.973 32.9098 180.206 34.2899 182.759V183.743C34.2899 183.743 32.8393 180.401 32.0473 179.94C32.0473 179.94 35.1446 175.615 17.5566 168.525Z" fill="#81B278"/>
<path d="M34.282 182.759C34.282 182.759 36.4148 185.984 35.1994 189.912L34.6505 189.763C34.6505 189.763 35.1837 185.437 34.0703 183.267C32.9568 181.088 34.282 182.759 34.282 182.759Z" fill="#81B278"/>
<path d="M40.8294 174.17C40.8294 174.17 34.3212 170.539 37.3558 165.612C37.3558 165.612 39.7866 162.583 42.3899 161.81C42.3899 161.81 41.002 169.157 42.3899 169.329C43.7778 169.501 43.3465 161.029 43.3465 161.029C43.3465 161.029 50.2076 157.742 52.8972 157.999C52.8972 157.999 48.6393 165.175 50.0351 165.003C51.423 164.832 56.1983 157.57 56.1983 157.57C56.1983 157.57 63.2319 156.274 64.3611 160.42C65.4902 164.574 63.6632 166.643 62.6282 166.901C61.5853 167.158 54.8967 167.073 55.077 167.939C55.2495 168.806 59.7661 170.188 62.2831 169.407C62.2831 169.407 59.5073 176.239 55.8611 175.888C52.215 175.544 51.0858 173.296 48.8275 173.124C46.5693 172.952 44.9226 173.553 46.0517 174.162C47.1809 174.771 50.9996 174.358 52.8266 175.904C54.6536 177.45 56.1278 178.394 52.7403 179.089C49.3529 179.784 43.2759 179.347 42.0605 176.755L40.8451 174.162L40.8294 174.17Z" fill="#A7D19E"/>
<path d="M61.1462 161.716C61.1462 161.716 42.9153 167.596 40.8295 174.17C40.8295 174.17 40.9157 177.106 39.0966 180.479V181.775C39.0966 181.775 41.0098 177.364 42.0449 176.763C42.0449 176.763 37.9674 171.055 61.1462 161.716Z" fill="#81B278"/>
<path d="M39.0887 180.479C39.0887 180.479 36.2737 184.735 37.8811 189.904L38.6025 189.709C38.6025 189.709 37.8968 184.009 39.371 181.143C40.8451 178.277 39.0887 180.479 39.0887 180.479Z" fill="#81B278"/>
<path d="M53.3598 188.436C53.3598 195.448 47.6514 201.14 40.6021 201.14C39.1279 201.14 37.7165 200.89 36.407 200.437C31.4278 198.711 27.8522 193.987 27.8522 188.436H53.3676H53.3598Z" fill="#EC7D2B"/>
<path d="M44.9696 188.436C44.9696 193.199 43.8248 198.04 39.9355 200.218C39.2925 200.578 37.1205 200.187 36.4148 200.437C31.4356 198.711 27.86 193.987 27.86 188.436H44.9775H44.9696Z" fill="#F89646"/>
<path d="M53.5402 201.78H27.6719C27.6719 201.351 27.8444 200.952 28.1345 200.671C28.4246 200.39 28.8167 200.211 29.248 200.211H51.9641C52.8345 200.211 53.5402 200.913 53.5402 201.78Z" fill="#EC7D2B"/>
<path d="M41.4176 201.78H27.6719C27.6719 201.351 27.8444 200.952 28.1345 200.671C28.4246 200.39 28.8167 200.211 29.248 200.211H39.8494C40.7197 200.211 41.4255 200.913 41.4255 201.78H41.4176Z" fill="#F89646"/>
<path d="M53.6499 188.436H27.4287V188.826H53.6499V188.436Z" fill="#B4453C"/>
<path d="M59.2407 194.472C59.2407 191.169 61.9303 188.49 65.2471 188.49C68.564 188.49 71.2535 191.169 71.2535 194.472C71.2535 197.774 68.564 200.453 65.2471 200.453C61.9303 200.453 59.2407 197.774 59.2407 194.472Z" fill="#F89646"/>
<path d="M61.2795 198.86L60.5816 201.038C60.464 201.405 60.7384 201.78 61.1226 201.78H61.2795C61.4206 201.78 61.5617 201.725 61.6637 201.632L63.3103 200.148C63.5926 199.898 63.5534 199.445 63.2319 199.242L62.1263 198.547C61.8127 198.352 61.3892 198.501 61.2795 198.852V198.86Z" fill="#F89646"/>
<path d="M69.5442 198.86L70.2421 201.038C70.3597 201.405 70.0853 201.78 69.701 201.78H69.5442C69.4031 201.78 69.2619 201.725 69.16 201.632L67.5133 200.148C67.231 199.898 67.2702 199.445 67.5917 199.242L68.6974 198.547C69.011 198.352 69.4344 198.501 69.5442 198.852V198.86Z" fill="#F89646"/>
<path d="M59.3506 187.366C58.1901 188.303 57.7509 189.802 58.1195 191.161C58.3155 191.895 59.2016 192.184 59.7897 191.707L63.5221 188.694C64.0945 188.233 64.0318 187.327 63.381 186.983C62.1185 186.312 60.5267 186.414 59.3506 187.366Z" fill="#F89646"/>
<path d="M71.4809 187.866C70.4302 186.804 68.8854 186.523 67.5681 187.023C66.8545 187.296 66.6507 188.194 67.1839 188.733L70.5635 192.129C71.081 192.652 71.9827 192.496 72.2572 191.817C72.7982 190.505 72.5395 188.936 71.4731 187.858L71.4809 187.866Z" fill="#F89646"/>
<path d="M60.3699 194.472C60.3699 191.793 62.5497 189.623 65.2393 189.623C67.9288 189.623 70.1087 191.793 70.1087 194.472C70.1087 197.15 67.9288 199.32 65.2393 199.32C62.5497 199.32 60.3699 197.15 60.3699 194.472Z" fill="white"/>
<path d="M68.7208 196.275C68.8384 196.338 68.8777 196.486 68.8149 196.603C68.7522 196.72 68.6032 196.759 68.4856 196.697C68.368 196.634 68.3288 196.486 68.3915 196.369C68.4542 196.252 68.6032 196.213 68.7208 196.275Z" fill="#AFD3FF"/>
<path d="M62.0087 192.504C62.1263 192.566 62.1655 192.715 62.1028 192.832C62.04 192.949 61.891 192.988 61.7734 192.926C61.6558 192.863 61.6166 192.715 61.6793 192.598C61.7421 192.48 61.891 192.441 62.0087 192.504Z" fill="#AFD3FF"/>
<path d="M65.004 190.63C65.004 190.497 65.1138 190.388 65.2471 190.388C65.3804 190.388 65.4902 190.497 65.4902 190.63C65.4902 190.763 65.3804 190.872 65.2471 190.872C65.1138 190.872 65.004 190.763 65.004 190.63Z" fill="#AFD3FF"/>
<path d="M65.004 198.313C65.004 198.18 65.1138 198.071 65.2471 198.071C65.3804 198.071 65.4902 198.18 65.4902 198.313C65.4902 198.446 65.3804 198.555 65.2471 198.555C65.1138 198.555 65.004 198.446 65.004 198.313Z" fill="#AFD3FF"/>
<path d="M67.082 191.083C67.1526 190.966 67.3016 190.934 67.4192 191.005C67.5368 191.075 67.5682 191.223 67.4976 191.34C67.427 191.458 67.278 191.489 67.1604 191.419C67.0428 191.348 67.0114 191.2 67.082 191.083Z" fill="#AFD3FF"/>
<path d="M62.9967 197.595C63.0672 197.478 63.2162 197.447 63.3338 197.517C63.4515 197.587 63.4828 197.735 63.4123 197.853C63.3417 197.97 63.1927 198.001 63.0751 197.931C62.9575 197.86 62.9261 197.712 62.9967 197.595Z" fill="#AFD3FF"/>
<path d="M68.4856 192.379C68.6032 192.317 68.7522 192.356 68.8149 192.473C68.8777 192.59 68.8384 192.738 68.7208 192.801C68.6032 192.863 68.4542 192.824 68.3915 192.707C68.3288 192.59 68.368 192.441 68.4856 192.379Z" fill="#AFD3FF"/>
<path d="M61.7656 196.135C61.8832 196.072 62.0322 196.111 62.095 196.228C62.1577 196.346 62.1185 196.494 62.0009 196.556C61.8832 196.619 61.7343 196.58 61.6715 196.463C61.6088 196.346 61.648 196.197 61.7656 196.135Z" fill="#AFD3FF"/>
<path d="M69.105 194.23C69.2383 194.23 69.3481 194.339 69.3481 194.472C69.3481 194.604 69.2383 194.714 69.105 194.714C68.9717 194.714 68.8619 194.604 68.8619 194.472C68.8619 194.339 68.9717 194.23 69.105 194.23Z" fill="#AFD3FF"/>
<path d="M61.3892 194.23C61.5225 194.23 61.6323 194.339 61.6323 194.472C61.6323 194.604 61.5225 194.714 61.3892 194.714C61.2559 194.714 61.1461 194.604 61.1461 194.472C61.1461 194.339 61.2559 194.23 61.3892 194.23Z" fill="#AFD3FF"/>
<path d="M67.3408 197.603C67.4035 197.72 67.3643 197.868 67.2467 197.931C67.1291 197.993 66.9801 197.954 66.9174 197.837C66.8546 197.72 66.8939 197.571 67.0115 197.509C67.1291 197.447 67.2781 197.486 67.3408 197.603Z" fill="#AFD3FF"/>
<path d="M63.577 190.895C63.6397 191.013 63.6005 191.161 63.4829 191.223C63.3653 191.286 63.2163 191.247 63.1536 191.13C63.0908 191.013 63.1301 190.864 63.2477 190.802C63.3653 190.739 63.5143 190.778 63.577 190.895Z" fill="#AFD3FF"/>
<path d="M64.8629 194.472C64.8629 194.261 65.0354 194.089 65.2471 194.089C65.4588 194.089 65.6314 194.261 65.6314 194.472C65.6314 194.682 65.4588 194.854 65.2471 194.854C65.0354 194.854 64.8629 194.682 64.8629 194.472Z" fill="#F89646"/>
<path d="M62.7615 194.37C63.5456 194.323 65.059 194.23 65.059 194.23V194.643L62.7537 194.433C62.7066 194.433 62.7066 194.37 62.7537 194.362L62.7615 194.37Z" fill="#F89646"/>
<path d="M65.3334 191.754C65.3804 192.902 65.451 194.472 65.451 194.472H65.0354L65.2079 191.747C65.2079 191.622 65.3255 191.629 65.3334 191.747V191.754Z" fill="#F89646"/>
<path d="M231.662 120.981C231.662 119.435 232.925 118.177 234.477 118.177C236.03 118.177 237.292 119.435 237.292 120.981C237.292 122.527 236.03 123.784 234.477 123.784C232.925 123.784 231.662 122.527 231.662 120.981Z" fill="white"/>
<path d="M213.314 144.725C213.314 144.725 215.533 141.399 220.849 141.766C220.849 141.766 228.565 136.222 236.79 141.024C236.79 141.024 245.533 139.83 252.01 142.055C256.331 143.539 257.75 145.092 257.75 145.092L213.314 144.725Z" fill="#F7FBFF"/>
<path d="M239.033 174.514C239.033 174.514 236.924 162.552 247.368 157.789C257.813 153.026 261.992 154.072 266.179 143.921C270.367 133.77 283.266 139.72 283.266 139.72V174.451L239.025 174.506L239.033 174.514Z" fill="#A7D19E"/>
<path d="M273.613 215.554C273.613 215.554 247.047 203.514 242.264 203.482C237.481 203.451 215.752 209.409 210.765 208.417C205.778 207.425 178.271 198.938 174.484 198.914C170.697 198.891 111.879 205.13 103.105 215.484C101.497 217.381 128.785 253.377 144.82 251.331C155.469 249.98 179.212 215.117 182.176 214.64C185.148 214.164 242.248 215.359 242.248 215.359C255.076 215.359 273.613 215.562 273.613 215.562V215.554Z" fill="#9EC2F6"/>
<path d="M243.056 97.0562C241.887 100.047 235.285 103.404 229.796 104.006C224.307 104.599 226.511 109.167 221.923 112.47C217.336 115.773 209.385 115.273 209.385 115.273V93.5035C214.521 92.5899 219.846 92.1292 225.248 92.1058C225.664 92.1058 226.079 92.1058 226.495 92.1058C228.149 92.1214 229.804 92.1839 231.466 92.2932C235.442 92.5587 239.433 93.0896 243.377 93.8939C243.487 94.9636 243.44 96.0802 243.056 97.0562Z" fill="#A7D19E"/>
<path d="M284.552 114.773C284.128 114.367 283.697 113.969 283.266 113.571V174.467H209.385V93.7846C209.126 93.8392 208.876 93.8939 208.625 93.9485C208.484 93.9798 208.35 94.011 208.209 94.0422C207.746 94.1515 207.284 94.2609 206.821 94.378V179.16H285.845V116.038C285.422 115.609 284.999 115.187 284.559 114.773H284.552Z" fill="#B4CEFB"/>
<path d="M292.832 179.16H199.215C199.215 176.599 201.301 174.522 203.873 174.522H288.166C290.738 174.522 292.824 176.599 292.824 179.16H292.832Z" fill="#B4CEFB"/>
<path d="M248.701 95.1354V176.591H246.02V94.4639C246.686 94.62 247.345 94.784 248.003 94.948C248.239 95.0104 248.466 95.0651 248.701 95.1276V95.1354Z" fill="#B4CEFB"/>
<path d="M186.685 132.037C186.685 132.037 182.09 132.373 180.341 136.777C178.585 141.188 175.887 144.452 177.307 146.42C178.726 148.387 180.467 149.574 180.043 150.496C179.628 151.409 176.836 151.417 174.664 153.666C172.492 155.915 168.517 162.395 174.782 163.66C179.565 164.621 176.005 170.625 179.157 172.96C183.18 175.958 197.004 178.918 201.528 175.38C206.053 171.843 204.422 164.73 202.955 162.278C201.489 159.827 206.225 156.336 206.947 155.118C209.871 150.168 200.478 149.574 201.85 146.787C203.222 143.999 204.641 141.313 200.117 138.76C197.89 137.503 196.588 130.21 186.693 132.045L186.685 132.037Z" fill="#233862"/>
<path d="M236.061 206.949C235.254 215.546 229.451 215.608 207.66 215.359C200.603 215.281 193.954 215.179 188.19 215.054C176.146 214.796 181.431 211.267 182.6 211.517C183.015 211.603 185.72 212.454 189.186 211.408C195.514 209.487 204.641 205.067 208.774 205.278C215.164 205.614 223.46 205.091 223.46 205.091C223.46 205.091 200.925 202.202 200.117 198.376C199.309 194.55 187.195 188.483 189.829 188.006C192.464 187.522 202.093 188.842 202.093 188.842C202.093 188.842 207.417 191.465 213.792 193.457C223.868 196.603 236.681 200.421 236.061 206.949Z" fill="#E7935B"/>
<path d="M194.95 160.443C193.013 161.341 189.202 161.209 187.54 159.873C186.677 159.178 186.285 158.858 186.818 158.21C187.704 157.601 188.637 154.33 187.72 149.129H188.135L195.161 149.309C195.161 149.309 195.373 151.464 195.718 153.471C196 155.142 196.384 156.828 196.8 156.961C197.906 157.422 199.066 158.53 194.95 160.436V160.443Z" fill="#FFB17D"/>
<path d="M195.161 149.317C195.161 149.317 195.373 151.472 195.718 153.478C191.899 154.025 189.288 150.917 188.135 149.145L195.161 149.317Z" fill="#E7935B"/>
<path d="M197.31 149.996C197.31 149.996 188.778 153.244 186.834 147.927C184.881 142.609 182.474 139.439 187.837 137.144C193.201 134.848 195.012 136.488 196.094 138.104C197.176 139.72 199.482 149.012 197.318 149.996H197.31Z" fill="#FFB17D"/>
<path d="M191.695 135.598C191.695 135.598 191.625 142.695 188.355 144.921C185.085 147.146 183.172 146.756 183.172 146.756C183.172 146.756 185.14 143.57 184.317 139.541C184.317 139.541 188.833 133.271 191.695 135.598Z" fill="#233862"/>
<path d="M191.295 136.316C191.295 136.316 193.562 137.073 194.479 138.276C195.404 139.478 196.745 140.571 197.396 141.805C197.396 141.805 197.615 136.917 194.753 135.238C191.711 133.458 191.295 136.316 191.295 136.316Z" fill="#233862"/>
<path d="M191.703 136.41C191.703 136.41 192.417 143.554 188.629 147.294C188.629 147.294 191.711 141.633 190.519 137.175C189.327 132.716 191.695 136.41 191.695 136.41H191.703Z" fill="#233862"/>
<path d="M194.346 147.747C194.346 147.747 197.161 146.529 197.223 146.435C197.294 146.342 197.223 146.966 197.372 147.279C197.514 147.591 196.502 148.091 196.008 148.317C195.514 148.544 194.769 148.512 194.346 147.747Z" fill="white"/>
<path d="M195.263 156.344C195.263 156.344 199.05 157.094 204.343 152.643C206.421 150.894 215.25 145.233 217.877 143.445C220.504 141.657 228.965 138.237 228.965 138.237L230.557 139.861C230.557 139.861 220.857 148.083 219.932 148.45C219.014 148.809 210.13 157.016 209.793 157.796C209.456 158.569 205.912 161.708 206.249 165.644C206.445 167.955 195.255 156.352 195.255 156.352L195.263 156.344Z" fill="#FFB17D"/>
<path d="M187.461 157.016C187.461 157.016 184.474 157.32 182.106 154.759C180.263 152.768 171.198 147.349 168.571 145.561C165.945 143.773 155.069 140.025 155.069 140.025L154.104 141.54C154.104 141.54 165.592 150.207 166.517 150.574C167.435 150.933 174.264 157.359 175.386 159.327C176.436 161.177 179.573 165.714 180.733 167.721C182.529 170.844 187.469 157.023 187.469 157.023L187.461 157.016Z" fill="#FFB17D"/>
<path d="M200.885 156.344C200.885 156.344 206.562 165.331 206.899 167.322C207.237 169.321 204.453 178.637 204.335 179.964C204.226 181.291 201.999 188.834 201.999 188.834H185.179C185.179 188.834 184.317 176.716 183.078 173.514C181.839 170.313 179.055 163.699 179.055 163.699L188.041 157.859L200.885 156.336V156.344Z" fill="#FFB17D"/>
<path d="M249.901 247.81L245.502 248.583C245.094 247.802 244.655 247.029 244.193 246.256C240.429 239.986 235.105 234.083 231.607 229.648C221.226 216.514 234.846 211.861 212.545 212.267C190.245 212.673 181.588 208.893 181.486 202.342C181.447 199.828 185.273 188.834 185.273 188.834H202.093C202.093 188.834 200.391 190.099 201.089 191.653C201.787 193.207 225.091 199.875 228.322 200.867C233.944 202.584 234.587 207.222 238.845 217.482C241.064 222.823 246.31 237.596 248.686 244.351C249.431 246.467 249.893 247.802 249.893 247.802L249.901 247.81Z" fill="#FFB17D"/>
<path d="M156.425 140.587C156.425 140.587 153.798 138.783 152.387 138.526C150.976 138.268 149.494 138.01 149.752 138.526C150.011 139.041 151.681 139.064 151.556 139.658C151.43 140.251 146.224 139.377 146.671 140.579C147.118 141.782 150.364 142.68 151.54 142.68C152.716 142.68 156.049 142.071 156.049 142.071L156.433 140.579L156.425 140.587Z" fill="#FFB17D"/>
<path d="M228.785 138.354C228.785 138.354 231.411 136.55 232.823 136.293C234.234 136.035 235.716 135.777 235.457 136.293C235.199 136.808 233.529 136.831 233.654 137.425C233.779 138.018 238.986 137.144 238.539 138.346C238.092 139.549 234.846 140.446 233.67 140.446C232.493 140.446 229.161 139.837 229.161 139.837L228.777 138.346L228.785 138.354Z" fill="#FFB17D"/>
<path d="M186.199 156.937C186.199 156.937 191.139 167.432 181.862 170.266L184.497 180.776C184.497 180.776 189.719 184.836 204.257 180.893C204.257 180.893 207.456 171.156 206.892 167.33C206.366 163.762 198.204 156.094 198.204 156.094L197.161 156.211C197.161 156.211 201.168 161.677 200.948 163.223C200.729 164.777 194.824 166.136 191.005 163.746C189.908 163.059 187.273 157.023 187.273 157.023L186.199 156.93V156.937Z" fill="white"/>
<path d="M202.289 188.576L212.279 192.972C212.279 192.972 211.44 195.252 207.017 195.588C203.7 195.838 198.815 191.84 198.47 189.865L202.289 188.576Z" fill="#EC7D2B"/>
<path d="M185.273 188.842C185.273 188.842 184.96 188.483 185.203 187.897C185.203 187.897 192.887 191.13 202.336 188.014C202.336 188.014 202.571 188.334 202.093 188.834C202.093 188.834 194.071 192.215 185.273 188.834V188.842Z" fill="#EC7D2B"/>
<path d="M256.221 259.303C255.633 260.217 251.54 260.381 250.873 259.303C250.207 258.226 249.619 255.891 247.949 254.728C246.278 253.564 244.271 252.979 245.024 251.151C245.777 249.324 245.502 248.59 245.502 248.59C245.094 247.81 244.655 247.037 244.193 246.264C245.549 245.881 247.298 245.264 248.686 244.366C249.431 246.482 249.893 247.817 249.893 247.817C249.893 247.817 252.873 252.76 253.43 255.095C253.986 257.421 256.801 258.39 256.213 259.311L256.221 259.303Z" fill="white"/>
<path d="M194.008 215.171C181.964 214.914 173.237 214.437 173.394 213.906C173.613 213.133 174.28 211.689 178.193 211.353C182.105 211.017 182.772 209.026 184.866 208.94C186.951 208.854 186.7 211.267 187.877 211.517C188.292 211.603 190.888 210.806 194.353 209.76C194.448 211.283 194.887 213.352 194.016 215.163L194.008 215.171Z" fill="white"/>
<path d="M185.273 188.842C186.277 188.654 190.699 191.871 201.144 189.123C201.144 189.123 204.375 192.028 206.319 193.253C208.397 194.565 210.052 195.299 210.052 195.299C210.052 195.299 211.157 208.198 191.327 211.634C191.327 211.634 180.757 210.611 180.529 202.186C180.302 193.589 185.265 188.842 185.265 188.842H185.273Z" fill="#F89646"/>
<path d="M248.701 215.351C248.701 215.351 263.247 222.097 264.705 221.433C266.164 220.77 273.605 215.554 273.605 215.554L261.373 213.758L248.701 215.351Z" fill="#9EC2F6"/>
<path d="M144.82 251.323C144.82 251.323 143.73 253.01 144.82 255.087C144.82 255.087 146.271 255.087 147.376 254.072C147.376 254.072 146.961 251.44 144.82 251.323Z" fill="#9EC2F6"/>
<path d="M264.447 221.223C264.447 221.223 263.78 222.238 264.227 223.916C264.227 223.916 265.733 224.135 266.485 223.604C266.485 223.604 265.78 221.347 264.447 221.223Z" fill="#9EC2F6"/>
<path d="M160.315 253.205C160.315 253.205 152.473 255.563 152.089 259.904H176.562C176.562 259.904 176.373 258.788 175.668 258.788C174.962 258.788 165.168 258.663 165.168 258.663C165.168 258.663 163.177 253.143 160.307 253.205H160.315Z" fill="#EC7D2B"/>
<path d="M190.645 253.205C190.645 253.205 182.803 255.563 182.419 259.904H206.892C206.892 259.904 206.704 258.788 205.998 258.788C205.292 258.788 195.498 258.663 195.498 258.663C195.498 258.663 193.507 253.143 190.637 253.205H190.645Z" fill="#F89646"/>
<path d="M267.152 249.426C267.152 249.426 269.198 258.155 268.101 258.741C268.101 258.741 267.152 258.421 266.823 259.217C266.736 259.428 266.681 259.623 266.728 259.912H269.293C269.293 259.912 269.7 258.741 270.249 258.218C270.547 257.929 272.672 250.113 272.672 250.113L267.16 249.426H267.152Z" fill="#163560"/>
<path d="M264.18 249.426C264.18 249.426 266.227 258.155 265.129 258.741C265.129 258.741 264.18 258.421 263.851 259.217C263.764 259.428 263.835 259.623 263.882 259.912H266.187C266.187 259.912 266.728 258.741 267.277 258.218C267.575 257.929 269.7 250.113 269.7 250.113L264.188 249.426H264.18Z" fill="#2B478A"/>
<path d="M264.211 235.715C264.211 235.715 266.626 238.69 265.976 239.908L262.996 238.502C262.996 238.502 262.745 237.518 264.203 235.715H264.211Z" fill="#233862"/>
<path d="M267.269 243C268.038 240.923 266.744 238.611 264.58 238.12C263.584 237.893 262.259 237.768 261.271 239.33C261.043 239.689 260.236 240.126 259.812 240.165C259.577 240.189 259.334 241.438 259.35 241.594C259.585 243.859 260.761 244.39 262.612 245.264C264.564 246.193 266.501 245.061 267.269 242.992V243Z" fill="#2B478A"/>
<path d="M263.655 238.814L266.634 240.22C266.736 240.025 266.76 239.783 266.728 239.509C266.564 238.12 264.862 236.027 264.862 236.027C263.404 237.831 263.655 238.814 263.655 238.814Z" fill="#2B478A"/>
<path d="M266.721 239.509C266.721 239.509 267.905 240.478 267.999 241.985C267.999 241.985 267.889 241.711 267.74 241.602C267.74 241.602 268.077 242.5 267.677 243.023C267.677 243.023 267.677 242.82 267.591 242.648C267.591 242.648 267.677 243.382 266.885 244.03L266.909 243.773C266.909 243.773 266.634 244.187 266.556 244.436C266.477 244.686 266.054 244.577 266.038 244.53C266.031 244.483 266.423 241.54 266.423 241.54L265.96 239.9L266.713 239.502L266.721 239.509Z" fill="#2B478A"/>
<path d="M259.742 240.197C259.742 240.197 259.859 240.064 260.024 240.103C260.024 240.103 260.118 240.681 259.569 240.845C259.569 240.845 259.609 240.314 259.742 240.189V240.197Z" fill="#163560"/>
<path d="M261.067 241.219C261.067 241.219 263.357 241.5 265.262 242.851C263.325 241.477 261.098 241.149 261.075 241.149V241.219H261.067Z" fill="#163560"/>
<path d="M260.902 241.415C260.902 241.415 263.466 242.383 265.278 244.475C263.435 242.344 260.957 241.337 260.934 241.329L260.902 241.415Z" fill="#163560"/>
<path d="M260.722 241.649C260.722 241.649 262.659 242.898 263.78 244.936C262.643 242.859 260.777 241.594 260.761 241.579L260.722 241.641V241.649Z" fill="#163560"/>
<path opacity="0.5" d="M264.862 236.027C264.862 236.027 265.607 238.596 265.976 239.01C266.344 239.431 266.728 239.509 266.728 239.509C266.564 238.12 264.862 236.027 264.862 236.027Z" fill="#2B478A"/>
<path d="M287.163 248.676C288.174 246.139 287.139 240.681 282.176 242.812C281.125 243.132 279.855 243.89 278.333 245.272C278.333 245.272 276.154 250.386 284.748 253.767C284.748 253.767 285.602 254.134 285.72 254.915C285.838 255.696 285.979 259.21 285.689 259.319C285.398 259.428 284.967 259.022 284.654 259.467C284.34 259.912 284.45 260.646 284.45 260.646H287.57C287.57 260.646 289.06 252.752 288.982 252.12C288.896 251.495 286.637 250.011 287.171 248.684L287.163 248.676Z" fill="#163560"/>
<path d="M265.795 251.386C273.989 256.734 282.85 252.088 282.85 252.088L283.822 242.414C281.47 242.398 280.898 242.804 279.47 243.25C278.765 243.468 278.169 243.741 277.643 243.882C274.013 244.858 271.018 244.491 269.747 244.491C267.826 244.491 265.795 241.344 265.795 241.344L263.168 244.78C263.168 244.78 263.302 249.769 265.795 251.401V251.386Z" fill="#2B478A"/>
<path d="M286.512 243.648L287.022 245.803C287.022 245.803 296.227 242.906 293.867 238.643C293.193 237.425 292.181 235.387 293.514 234.559C294.651 233.848 294.212 232.373 293.561 232.021C292.181 231.28 290.77 232.217 290.111 233.138C288.856 234.887 290.519 237.62 290.519 237.62C292.558 241.992 286.512 243.648 286.512 243.648Z" fill="#2B478A"/>
<path d="M286.253 249.777C287.241 249.082 289.209 241.844 283.822 242.141C282.152 242.328 280.67 242.687 278.765 243.468C278.765 243.468 275.33 247.607 282.231 253.728C282.231 253.728 282.905 254.361 282.748 255.134C282.591 255.907 281.509 259.256 281.196 259.256C280.882 259.256 279.847 258.811 279.4 259.116C278.953 259.428 279.572 260.631 279.572 260.631H282.732C282.732 260.631 286.63 254.236 286.771 253.619C286.912 253.002 285.077 250.597 286.253 249.769V249.777Z" fill="#2B478A"/>
<path d="M262.533 165.323C262.533 165.323 259.318 166.62 257.037 163.364C257.037 163.364 260.746 162.739 262.533 165.323Z" fill="#6BB6BE"/>
<path d="M262.761 163.988C262.761 163.988 262.988 162.848 264.329 162.809C264.329 162.809 263.819 163.965 262.761 163.988Z" fill="#6BB6BE"/>
<path d="M262.086 157.297C262.086 157.297 260.526 157.461 259.946 155.766C259.946 155.766 261.632 155.954 262.086 157.297Z" fill="#6BB6BE"/>
<path d="M258.385 134.832C261.53 134.161 261.585 131.6 261.585 131.6C257.883 132.763 258.385 134.832 258.385 134.832Z" fill="#6BB6BE"/>
<path d="M258.174 134.247C258.174 134.247 256.213 135.035 254.818 133.044C254.818 133.044 257.076 132.662 258.174 134.247Z" fill="#6BB6BE"/>
<path d="M262.471 172.827L262.878 173.296C262.941 173.366 263.059 173.319 263.059 173.225C263.035 160.053 261.357 148.348 259.946 141.438C258.409 133.903 256.841 129.445 256.825 129.398C256.841 129.445 258.252 133.966 259.781 141.485C261.192 148.403 262.808 157.445 262.4 172.648C262.4 172.71 262.424 172.773 262.471 172.827Z" fill="#6BB6BE"/>
<path d="M256.856 127.61C257.358 128.008 259.279 129.718 257.413 131.038C257.413 131.038 255.986 131.49 255.515 130.39C255.155 129.554 255.061 128.625 255.029 128.227C255.029 128.125 255.1 128.039 255.202 128.031C255.311 128.024 255.46 128 255.602 127.938C255.782 127.867 255.868 127.602 256.103 127.547C256.252 127.508 256.401 127.477 256.582 127.493C256.684 127.5 256.77 127.547 256.848 127.602L256.856 127.61Z" fill="#F89646"/>
<path d="M257.923 130.561C257.923 130.561 257.358 131.014 257.562 131.74V132.006C257.562 132.006 257.413 131.334 256.723 131.131C256.723 131.131 257.35 131.202 257.923 130.561Z" fill="#6BB6BE"/>
<path d="M258.385 134.832C261.53 134.161 261.585 131.6 261.585 131.6C261.585 131.6 259.099 132.958 258.385 134.832Z" fill="#89D7DA"/>
<path d="M261.404 133.076C261.404 133.076 263.38 133.825 264.737 131.811C264.737 131.811 262.471 131.475 261.404 133.076Z" fill="#6BB6BE"/>
<path d="M257.883 171.742L257.483 172.218C257.421 172.288 257.303 172.249 257.303 172.156C257.06 158.983 258.503 147.247 259.773 140.314C261.161 132.748 262.635 128.258 262.651 128.219C262.635 128.266 261.318 132.818 259.938 140.361C258.668 147.302 257.233 156.375 257.946 171.562C257.946 171.625 257.923 171.695 257.883 171.742Z" fill="#6BB6BE"/>
<path d="M262.588 126.415C262.094 126.829 260.212 128.57 262.102 129.851C262.102 129.851 263.537 130.272 263.992 129.171C264.337 128.328 264.415 127.399 264.431 127.001C264.431 126.899 264.352 126.813 264.251 126.806C264.141 126.798 263.992 126.774 263.843 126.72C263.662 126.657 263.568 126.392 263.333 126.337C263.184 126.306 263.027 126.275 262.855 126.29C262.753 126.298 262.667 126.345 262.588 126.407V126.415Z" fill="#F89646"/>
<path d="M261.584 129.39C261.584 129.39 262.165 129.835 261.969 130.561V130.827C261.969 130.827 262.11 130.155 262.8 129.929C262.8 129.929 262.173 130.007 261.584 129.382V129.39Z" fill="#6BB6BE"/>
<path d="M260.573 130.772C260.573 130.772 258.487 131.123 257.562 128.875C257.562 128.875 259.852 128.992 260.573 130.772Z" fill="#6BB6BE"/>
<path d="M256.315 169.36L256.613 169.899C256.66 169.985 256.778 169.962 256.801 169.876C259.663 157.016 260.589 145.225 260.722 138.182C260.871 130.491 260.322 125.806 260.314 125.759C260.314 125.806 260.706 130.53 260.557 138.198C260.424 145.256 260.016 154.431 256.292 169.173C256.276 169.235 256.292 169.306 256.315 169.36Z" fill="#6BB6BE"/>
<path d="M260.738 124.01C261.138 124.51 262.635 126.595 260.534 127.477C260.534 127.477 259.044 127.61 258.824 126.439C258.652 125.548 258.762 124.611 258.824 124.221C258.84 124.12 258.934 124.049 259.036 124.065C259.146 124.08 259.295 124.088 259.452 124.065C259.64 124.034 259.781 123.799 260.032 123.792C260.189 123.792 260.338 123.792 260.51 123.846C260.604 123.877 260.683 123.94 260.746 124.01H260.738Z" fill="#F89646"/>
<path d="M261.13 127.118C261.13 127.118 260.479 127.438 260.526 128.188L260.471 128.453C260.471 128.453 260.471 127.766 259.836 127.415C259.836 127.415 260.432 127.618 261.13 127.118Z" fill="#6BB6BE"/>
<path d="M258.848 128.453C258.848 128.453 258.848 126.806 257.421 126.29C257.421 126.29 257.107 127.664 258.848 128.453Z" fill="#6BB6BE"/>
<path d="M262.188 125.814C262.188 125.814 262.149 124.557 263.31 124.198C263.31 124.198 263.592 125.369 262.188 125.814Z" fill="#EC9E4A"/>
<path d="M258.362 133.364C258.323 133.403 257.75 132.146 258.903 131.131C258.903 131.131 259.381 132.474 258.362 133.364Z" fill="#EC9E4A"/>
<path d="M257.562 133.263C257.562 133.263 257.57 132.638 256.974 132.545C256.974 132.545 256.872 133.076 257.562 133.263Z" fill="#6BB6BE"/>
<path d="M263.521 131.131C263.521 131.131 264.023 130.093 265.638 130.272C265.638 130.272 265.395 131.389 263.521 131.131Z" fill="#6BB6BE"/>
<path d="M254.59 174.373H264.948C265.646 174.373 266.179 173.756 266.078 173.069L261.255 139.978C261.208 139.666 260.942 139.439 260.628 139.439H259.091C258.754 139.439 258.472 139.681 258.425 140.009L253.484 173.1C253.383 173.772 253.908 174.365 254.582 174.365L254.59 174.373Z" fill="#F89646"/>
<path d="M262.659 173.374L260.103 139.455C260.377 139.494 260.604 139.705 260.644 139.986L265.466 173.077C265.568 173.764 265.035 174.381 264.337 174.381H262.267C262.533 174.139 262.698 173.78 262.667 173.382L262.659 173.374Z" fill="#FFB178"/>
<path d="M29.1617 260.131C29.1617 260.131 27.17 266.471 35.4112 268.056C46.6869 270.227 80.7337 263.418 70.9713 277.871C66.5174 284.461 92.1427 291.426 136.336 292.652C180.529 293.878 236.532 295.658 216.56 281.486C196.188 267.033 318.536 274.881 312.208 260.139H29.1617V260.131Z" fill="#CFDBF4"/>
</g>
<defs>
<clipPath id="clip0_442_7195">
<rect width="328" height="328" fill="white"/>
</clipPath>
</defs>
</svg>
