<svg width="18" height="18" viewBox="0 0 18 18" fill="none" xmlns="http://www.w3.org/2000/svg">
<path d="M8.99984 4.83329C6.69984 4.83329 4.83317 6.69996 4.83317 8.99996C4.83317 11.3 6.69984 13.1666 8.99984 13.1666C11.2998 13.1666 13.1665 11.3 13.1665 8.99996C13.1665 6.69996 11.2998 4.83329 8.99984 4.83329ZM8.99984 0.666626C4.39984 0.666626 0.666504 4.39996 0.666504 8.99996C0.666504 13.6 4.39984 17.3333 8.99984 17.3333C13.5998 17.3333 17.3332 13.6 17.3332 8.99996C17.3332 4.39996 13.5998 0.666626 8.99984 0.666626ZM8.99984 15.6666C5.3165 15.6666 2.33317 12.6833 2.33317 8.99996C2.33317 5.31663 5.3165 2.33329 8.99984 2.33329C12.6832 2.33329 15.6665 5.31663 15.6665 8.99996C15.6665 12.6833 12.6832 15.6666 8.99984 15.6666Z" fill="#E99315"/>
</svg>
