<svg width="28" height="28" viewBox="0 0 28 28" fill="none" xmlns="http://www.w3.org/2000/svg">
<path d="M18.0625 13.125C18.0625 15.3687 16.2437 17.1875 14 17.1875C11.7563 17.1875 9.9375 15.3687 9.9375 13.125C9.9375 10.8813 11.7563 9.0625 14 9.0625C16.2437 9.0625 18.0625 10.8813 18.0625 13.125Z" fill="white" stroke="white" stroke-width="1.5"/>
<path d="M14 2.625C11.7502 2.625 9.551 3.29213 7.68039 4.54203C5.80978 5.79193 4.35182 7.56847 3.49088 9.64698C2.62993 11.7255 2.40467 14.0126 2.84357 16.2192C3.28248 18.4257 4.36584 20.4525 5.95667 22.0433C7.54749 23.6342 9.57432 24.7175 11.7809 25.1564C13.9874 25.5953 16.2745 25.3701 18.353 24.5091C20.4315 23.6482 22.2081 22.1902 23.458 20.3196C24.7079 18.449 25.375 16.2498 25.375 14C25.3692 10.9849 24.1689 8.09502 22.037 5.96305C19.905 3.83107 17.0151 2.63078 14 2.625ZM21.1969 20.3875C20.4886 19.3715 19.5759 18.5146 18.5172 17.8719C17.3017 19.0364 15.6833 19.6865 14 19.6865C12.3167 19.6865 10.6984 19.0364 9.48282 17.8719C8.42414 18.5146 7.51142 19.3715 6.80313 20.3875C5.57132 19.0004 4.76662 17.2868 4.48587 15.4531C4.20511 13.6193 4.46027 11.7435 5.22064 10.0514C5.981 8.35927 7.21417 6.92293 8.77173 5.91524C10.3293 4.90755 12.1449 4.37144 14 4.37144C15.8551 4.37144 17.6707 4.90755 19.2283 5.91524C20.7858 6.92293 22.019 8.35927 22.7794 10.0514C23.5397 11.7435 23.7949 13.6193 23.5141 15.4531C23.2334 17.2868 22.4287 19.0004 21.1969 20.3875Z" fill="white"/>
</svg>
