<svg width="18" height="18" viewBox="0 0 18 18" fill="none" xmlns="http://www.w3.org/2000/svg">
<path d="M8.99996 4.83342C6.69996 4.83342 4.83329 6.70008 4.83329 9.00008C4.83329 11.3001 6.69996 13.1667 8.99996 13.1667C11.3 13.1667 13.1666 11.3001 13.1666 9.00008C13.1666 6.70008 11.3 4.83342 8.99996 4.83342ZM8.99996 0.666748C4.39996 0.666748 0.666626 4.40008 0.666626 9.00008C0.666626 13.6001 4.39996 17.3334 8.99996 17.3334C13.6 17.3334 17.3333 13.6001 17.3333 9.00008C17.3333 4.40008 13.6 0.666748 8.99996 0.666748ZM8.99996 15.6667C5.31663 15.6667 2.33329 12.6834 2.33329 9.00008C2.33329 5.31675 5.31663 2.33341 8.99996 2.33341C12.6833 2.33341 15.6666 5.31675 15.6666 9.00008C15.6666 12.6834 12.6833 15.6667 8.99996 15.6667Z" fill="#E99315"/>
</svg>
