<svg width="20" height="20" viewBox="0 0 20 20" fill="none" xmlns="http://www.w3.org/2000/svg">
<g clip-path="url(#clip0_106_9841)">
<path d="M3.05135 13.0512C3.39518 12.7074 3.84266 12.4911 4.32036 12.4326C4.31135 12.4897 4.30321 12.5468 4.29594 12.6041C3.90392 12.661 3.53526 12.8335 3.23882 13.1028C2.87078 13.4371 2.64044 13.8964 2.59271 14.3913L2.591 14.4091L2.59013 14.4269L2.5843 14.5469L2.58341 14.5651V14.5833V17.5833H2.41675V14.5833C2.41675 14.0087 2.64502 13.4576 3.05135 13.0512L2.52102 12.5209L3.05135 13.0512ZM16.8973 13.2387C16.5846 12.8945 16.1625 12.6707 15.7043 12.6041C15.697 12.5467 15.6889 12.4896 15.6799 12.4327C16.1576 12.4911 16.605 12.7074 16.9488 13.0512C17.3551 13.4576 17.5834 14.0087 17.5834 14.5833V17.5833H17.4167V14.5833V14.5833C17.4167 14.0861 17.2315 13.6067 16.8973 13.2387ZM10.1907 10.0888L10.1794 10.0881L10.168 10.0878L10.0214 10.0836L10.0108 10.0833L10.0001 10.0833C9.17115 10.0832 8.37348 10.4 7.77034 10.9687C7.1672 11.5374 6.80417 12.3151 6.75554 13.1426L6.75487 13.154L6.75455 13.1653L6.75038 13.312L6.75008 13.3226V13.3333V17.5833H6.58342V13.3333C6.58342 12.4271 6.94338 11.5581 7.58413 10.9173C8.22488 10.2766 9.09392 9.91663 10.0001 9.91663C10.9062 9.91663 11.7753 10.2766 12.416 10.9173C13.0568 11.5581 13.4167 12.4271 13.4167 13.3333V17.5833H13.2501V13.3333C13.2501 13.3333 13.2501 13.3333 13.2501 13.3333C13.2501 12.5043 12.9334 11.7067 12.3647 11.1036C11.796 10.5004 11.0183 10.1374 10.1907 10.0888ZM3.64061 9.69277L3.11028 10.2231L3.64061 9.69277C3.39056 9.44272 3.25008 9.10358 3.25008 8.74996C3.25008 8.39634 3.39056 8.0572 3.64061 7.80715C3.89065 7.5571 4.22979 7.41663 4.58341 7.41663C4.93704 7.41663 5.27618 7.5571 5.52622 7.80715C5.77627 8.0572 5.91675 8.39634 5.91675 8.74996C5.91675 9.10358 5.77627 9.44272 5.52622 9.69277C5.27618 9.94282 4.93704 10.0833 4.58341 10.0833C4.22979 10.0833 3.89065 9.94282 3.64061 9.69277ZM5.40837 7.925L4.87804 8.45533L5.40837 7.925C5.18958 7.70621 4.89283 7.58329 4.58341 7.58329C4.274 7.58329 3.97725 7.70621 3.75846 7.925C3.53966 8.14379 3.41675 8.44054 3.41675 8.74996C3.41675 9.05938 3.53966 9.35613 3.75846 9.57492C3.97725 9.79371 4.274 9.91663 4.58341 9.91663C4.89283 9.91663 5.18958 9.79371 5.40837 9.57492C5.62717 9.35613 5.75008 9.05938 5.75008 8.74996C5.75008 8.44054 5.62717 8.14379 5.40837 7.925ZM15.4167 7.41663C15.7704 7.41663 16.1095 7.5571 16.3596 7.80715C16.6096 8.0572 16.7501 8.39634 16.7501 8.74996C16.7501 9.10358 16.6096 9.44272 16.3596 9.69277C16.1095 9.94282 15.7704 10.0833 15.4167 10.0833C15.0631 10.0833 14.724 9.94282 14.4739 9.69277C14.2239 9.44272 14.0834 9.10358 14.0834 8.74996C14.0834 8.39634 14.2239 8.0572 14.4739 7.80715C14.724 7.5571 15.0631 7.41663 15.4167 7.41663ZM15.4167 7.58329C15.1073 7.58329 14.8106 7.70621 14.5918 7.925C14.373 8.14379 14.2501 8.44054 14.2501 8.74996C14.2501 9.05938 14.373 9.35613 14.5918 9.57492C14.8106 9.79371 15.1073 9.91663 15.4167 9.91663C15.7262 9.91663 16.0229 9.79371 16.2417 9.57492C16.4605 9.35612 16.5834 9.05937 16.5834 8.74996C16.5834 8.44055 16.4605 8.1438 16.2417 7.925C16.0229 7.70621 15.7262 7.58329 15.4167 7.58329ZM10.0001 2.41663C10.6852 2.41663 11.3423 2.6888 11.8268 3.17327C12.3112 3.65774 12.5834 4.31482 12.5834 4.99996C12.5834 5.6851 12.3112 6.34218 11.8268 6.82665C11.3423 7.31112 10.6852 7.58329 10.0001 7.58329C9.31494 7.58329 8.65786 7.31112 8.17339 6.82665C7.68892 6.34218 7.41675 5.6851 7.41675 4.99996C7.41675 4.31482 7.68892 3.65774 8.17339 3.17327C8.65786 2.6888 9.31494 2.41663 10.0001 2.41663ZM10.0001 2.58329C9.35914 2.58329 8.74445 2.83791 8.29124 3.29112C7.83803 3.74433 7.58342 4.35902 7.58342 4.99996C7.58342 5.6409 7.83803 6.25559 8.29124 6.7088C8.74445 7.16201 9.35914 7.41663 10.0001 7.41663C10.641 7.41663 11.2557 7.16201 11.7089 6.7088C12.1621 6.25559 12.4167 5.6409 12.4167 4.99996C12.4167 4.35902 12.1621 3.74433 11.7089 3.29112C11.2557 2.8379 10.641 2.58329 10.0001 2.58329Z" fill="black" stroke="white" stroke-width="1.5"/>
</g>
<defs>
<clipPath id="clip0_106_9841">
<rect width="20" height="20" fill="white"/>
</clipPath>
</defs>
</svg>
