<svg width="20" height="20" viewBox="0 0 20 20" fill="none" xmlns="http://www.w3.org/2000/svg">
<g clip-path="url(#clip0_183_283)">
<path d="M11.6667 11.8766V13.6183C10.9125 13.3517 10.1053 13.2699 9.31288 13.3798C8.52048 13.4897 7.76604 13.7882 7.1129 14.2502C6.45976 14.7121 5.92699 15.324 5.55934 16.0345C5.19169 16.745 4.99989 17.5333 5.00004 18.3333L3.33337 18.3325C3.33312 17.3149 3.56581 16.3107 4.01362 15.397C4.46144 14.4832 5.11249 13.6841 5.91689 13.0608C6.72129 12.4376 7.65769 12.0068 8.65434 11.8014C9.65098 11.5959 10.6814 11.6214 11.6667 11.8758V11.8766ZM10 10.8333C7.23754 10.8333 5.00004 8.59581 5.00004 5.83331C5.00004 3.07081 7.23754 0.833313 10 0.833313C12.7625 0.833313 15 3.07081 15 5.83331C15 8.59581 12.7625 10.8333 10 10.8333ZM10 9.16665C11.8417 9.16665 13.3334 7.67498 13.3334 5.83331C13.3334 3.99165 11.8417 2.49998 10 2.49998C8.15837 2.49998 6.66671 3.99165 6.66671 5.83331C6.66671 7.67498 8.15837 9.16665 10 9.16665ZM15 14.1666V11.6666H16.6667V14.1666H19.1667V15.8333H16.6667V18.3333H15V15.8333H12.5V14.1666H15Z" fill="white"/>
</g>
<defs>
<clipPath id="clip0_183_283">
<rect width="20" height="20" fill="white"/>
</clipPath>
</defs>
</svg>
