<svg width="16" height="16" viewBox="0 0 16 16" fill="none" xmlns="http://www.w3.org/2000/svg">
<path d="M14.5833 2.16667V1.64264C14.6882 1.79161 14.75 1.97256 14.75 2.16667V13.8333C14.75 14.0274 14.6882 14.2084 14.5833 14.3574V13.8333V2.16667ZM13.8333 1.25C14.0274 1.25 14.2084 1.31182 14.3574 1.41667H13.8333H2.16667H1.64264C1.79161 1.31182 1.97256 1.25 2.16667 1.25H13.8333ZM1.41667 1.64264V2.16667V13.8333V14.3574C1.31182 14.2084 1.25 14.0274 1.25 13.8333V2.16667C1.25 1.97256 1.31182 1.79161 1.41667 1.64264ZM2.16667 14.75C1.97256 14.75 1.79161 14.6882 1.64264 14.5833H2.16667H13.8333H14.3574C14.2084 14.6882 14.0274 14.75 13.8333 14.75H2.16667Z" fill="black" stroke="white" stroke-width="1.5"/>
</svg>
