<svg width="29" height="28" viewBox="0 0 29 28" fill="none" xmlns="http://www.w3.org/2000/svg">
<path d="M24.9405 5.93251L24.9414 5.93337C25.4547 6.447 25.7431 7.14344 25.7431 7.8696C25.7431 8.59577 25.4547 9.29221 24.9414 9.80583L24.9381 9.80911C24.6853 10.0653 24.3838 10.2684 24.0515 10.4066C23.7192 10.5449 23.3626 10.6154 23.0027 10.6141H23H22.6938H22.1628L21.9864 11.1149L19.0004 19.5915L18.8157 20.1158L19.2637 20.445C19.4158 20.5568 19.5597 20.6792 19.6944 20.8114C19.949 21.0655 20.1511 21.3673 20.289 21.6994C20.4274 22.0325 20.4985 22.3895 20.4985 22.7501C20.4985 23.1107 20.4274 23.4677 20.289 23.8007L20.9817 24.0884L20.289 23.8007C20.1507 24.1337 19.948 24.4361 19.6926 24.6906L19.6905 24.6926C19.4361 24.9481 19.1336 25.1508 18.8006 25.2891C18.4676 25.4274 18.1106 25.4986 17.75 25.4986C17.3894 25.4986 17.0324 25.4274 16.6994 25.2891C16.3664 25.1508 16.064 24.9481 15.8095 24.6926L15.8083 24.6914C15.4277 24.3111 15.167 23.8275 15.0586 23.3005C14.9501 22.7735 14.9986 22.2263 15.1981 21.7266L15.4135 21.187L14.9449 20.8436L7.28866 15.2326L6.82138 14.8902L6.37199 15.2558C5.87868 15.6572 5.26194 15.8759 4.62598 15.8751L4.62236 15.8751C4.26242 15.8763 3.90585 15.8058 3.57351 15.6676C3.24117 15.5293 2.93974 15.3262 2.68688 15.0701L2.6869 15.07L2.68244 15.0656C2.42698 14.8111 2.22428 14.5087 2.08597 14.1757C1.94766 13.8427 1.87646 13.4857 1.87646 13.1251C1.87646 12.7645 1.94766 12.4075 2.08597 12.0744C2.22428 11.7414 2.42698 11.439 2.68244 11.1845L2.68417 11.1828C3.13219 10.7336 3.72177 10.4531 4.35296 10.3889C4.98415 10.3247 5.61813 10.4807 6.14745 10.8305L6.63137 11.1503L7.06258 10.7623L10.7704 7.42637L11.2018 7.03825L10.9344 6.52323C10.6649 6.00412 10.5679 5.4126 10.6575 4.83461C10.7472 4.25662 11.0187 3.72226 11.4328 3.30916L11.4329 3.30913C11.8195 2.92336 12.3123 2.66146 12.8483 2.55681C13.3844 2.45216 13.9394 2.50951 14.4428 2.72154C14.9461 2.93357 15.3749 3.29068 15.6745 3.74734C15.9741 4.20401 16.131 4.73955 16.1251 5.28569L16.1188 5.86479L16.6775 6.01734L19.7618 6.85952L20.3223 7.01257L20.6106 6.5081C20.7297 6.29955 20.8777 6.10887 21.0502 5.94168L21.0503 5.94176L21.0595 5.93251C21.314 5.67705 21.6164 5.47435 21.9494 5.33604C22.2824 5.19773 22.6394 5.12653 23 5.12653C23.3606 5.12653 23.7176 5.19773 24.0506 5.33604C24.3836 5.47435 24.6861 5.67705 24.9405 5.93251ZM17.9933 20.0084L18.571 20.057L18.7637 19.5102L21.7496 11.0336L21.9343 10.5093L21.4863 10.1801C21.3338 10.068 21.1895 9.94523 21.0545 9.81264C20.7944 9.55585 20.589 9.24903 20.4507 8.91068C20.3123 8.57214 20.244 8.20906 20.2499 7.84337L20.2593 7.26118L19.6976 7.10781L16.6132 6.26562L16.0527 6.11258L15.7644 6.61704C15.6453 6.82559 15.4973 7.01628 15.3248 7.18346L15.3189 7.18919L15.3131 7.19505C15.0603 7.45121 14.7588 7.65435 14.4265 7.79257C14.0942 7.9308 13.7376 8.00135 13.3777 8.00008L13.3764 8.00007C12.834 7.9991 12.3037 7.84031 11.8501 7.54307L11.3669 7.22642L10.9374 7.61283L7.22962 10.9488L6.80046 11.3349L7.0639 11.8486C7.24529 12.2023 7.34912 12.5906 7.36845 12.9876C7.38778 13.3846 7.32217 13.7812 7.176 14.1508L6.96306 14.6893L7.43011 15.0316L15.0864 20.6425L15.5524 20.984L16.0015 20.6206C16.5617 20.1673 17.2753 19.9479 17.9933 20.0084Z" fill="#BDBDBD" stroke="#BDBDBD" stroke-width="1.5"/>
</svg>
