<svg width="112" height="22" viewBox="0 0 112 22" fill="none" xmlns="http://www.w3.org/2000/svg">
<path d="M17.7106 9.10174C18.6318 8.99661 19.554 8.49503 20.1954 7.88808C21.826 6.31427 21.8235 3.5004 20.1952 1.928C18.6339 0.288652 15.837 0.286058 14.2754 1.92776C13.6724 2.57336 13.1742 3.50181 13.0698 4.42932L13.0665 4.43686C12.5917 8.85472 8.73024 12.6616 4.3535 13.1113C3.43437 13.2426 2.6096 13.6693 1.98381 14.2995C0.359771 15.8712 0.360005 18.6922 1.98381 20.2634C3.54347 21.8978 6.34744 21.898 7.9071 20.2632L7.90733 20.2634C8.53312 19.6331 8.9571 18.803 9.0875 17.8776C9.53325 13.4708 13.3167 9.58234 17.7033 9.10527L17.7106 9.10174Z" fill="#E99315"/>
<path d="M4.95983 9.27344C7.35714 9.27344 9.30051 7.31683 9.30051 4.90319C9.30051 2.48979 7.35714 0.533186 4.95983 0.533186C2.56251 0.533186 0.619141 2.48979 0.619141 4.90319C0.619141 7.31683 2.56251 9.27344 4.95983 9.27344Z" fill="#E99315"/>
<path d="M17.4137 12.9236C15.0164 12.9236 13.073 14.8802 13.073 17.2938C13.073 19.7072 15.0164 21.6638 17.4137 21.6638C19.811 21.6638 21.7544 19.7072 21.7544 17.2938C21.7544 14.8802 19.811 12.9236 17.4137 12.9236Z" fill="#E99315"/>
<path d="M31.9485 16.8245V15.0932C31.9485 14.8811 32.0271 14.6762 32.169 14.5193L38.3725 7.65594H32.9631C32.4951 7.65594 32.1159 7.27409 32.1159 6.80291V5.61825C32.1159 5.14731 32.4951 4.76546 32.9631 4.76546H41.9493C42.4171 4.76546 42.7963 5.14731 42.7963 5.61825V7.16048C42.7963 7.37238 42.7179 7.57697 42.5763 7.73396L36.2545 14.7396H42.4433C42.9113 14.7396 43.2905 15.1215 43.2905 15.5924V16.8245C43.2905 17.2954 42.9113 17.6775 42.4433 17.6775H32.7957C32.3277 17.6775 31.9485 17.2954 31.9485 16.8245Z" fill="white"/>
<path d="M53.594 9.57495C53.3899 8.86429 53.0446 8.28798 52.5588 7.84556C52.0723 7.40361 51.4603 7.18205 50.7231 7.18205C49.9075 7.18205 49.2524 7.42318 48.7584 7.90473C48.2642 8.38675 47.9149 8.94349 47.7112 9.57495H53.594ZM47.6405 12.3233C47.7817 12.8763 48.0914 13.4804 48.5702 14.1356C49.0485 14.7911 49.766 15.1188 50.7231 15.1188C51.3505 15.1188 51.9035 14.9571 52.3823 14.633C52.6882 14.426 52.9221 14.2431 53.0839 14.0843C53.2438 13.9273 53.4559 13.8408 53.6792 13.8422L55.3791 13.854C56.0522 13.8584 56.4453 14.6085 56.081 15.1784C55.7619 15.6776 55.3564 16.1787 54.8646 16.6825C53.9389 17.6302 52.5665 18.104 50.7467 18.104C48.8483 18.104 47.2955 17.4207 46.0877 16.0545C44.8794 14.6886 44.2756 13.05 44.2756 11.1386C44.2756 9.19593 44.864 7.5613 46.0404 6.23451C47.217 4.90771 48.7856 4.24443 50.7467 4.24443C52.4722 4.24443 54.0058 4.88037 55.3471 6.15154C56.5546 7.29613 57.1294 9.071 57.072 11.4759C57.061 11.9351 56.6824 12.3004 56.2264 12.3016L47.6405 12.3233Z" fill="white"/>
<path d="M73.4675 17.6538C72.9997 17.6538 72.6204 17.272 72.6204 16.8008V10.0487C72.6204 9.30648 72.5261 8.66677 72.3379 8.12983C72.1496 7.59313 71.7179 7.33243 71.0437 7.34799C70.4001 7.36378 69.9141 7.62448 69.5847 8.12983C69.2553 8.63542 69.0907 9.37766 69.0907 10.3568V16.8008C69.0907 17.272 68.7115 17.6538 68.2435 17.6538H66.6197C66.1519 17.6538 65.7726 17.272 65.7726 16.8008V10.0487C65.7726 9.32251 65.6703 8.68657 65.4667 8.14162C65.2627 7.59666 64.8233 7.33243 64.1491 7.34799C63.4903 7.36378 63.0155 7.62448 62.7254 8.12983C62.4349 8.63542 62.29 9.37766 62.29 10.3568V16.8008C62.29 17.272 61.9107 17.6538 61.4427 17.6538H59.7957C59.3277 17.6538 58.9485 17.272 58.9485 16.8008V5.66575C58.9485 5.19481 59.3277 4.81296 59.7957 4.81296H61.4427C61.9107 4.81296 62.29 5.19481 62.29 5.66575C62.6196 5.33411 63.0312 5.03028 63.5254 4.7538C64.0196 4.47755 64.6274 4.33919 65.3491 4.33919C65.9922 4.33919 66.5803 4.48533 67.1139 4.77737C67.6472 5.06988 68.063 5.46846 68.361 5.97382C68.6588 5.5948 69.1024 5.19622 69.6908 4.77737C70.2788 4.35923 71.1614 4.20507 72.3379 4.31538C73.5457 4.42617 74.4556 4.92374 75.0676 5.80812C75.6794 6.69273 75.9853 7.67185 75.9853 8.74573V16.8008C75.9853 17.272 75.6058 17.6538 75.1381 17.6538H73.4675Z" fill="white"/>
<path d="M87.1651 14.0169C87.7141 13.2671 87.9887 12.2993 87.9887 11.1149C87.9887 9.93024 87.7141 8.97893 87.1651 8.26002C86.6159 7.54135 85.8475 7.1819 84.8591 7.1819C83.8861 7.1819 83.1213 7.54135 82.5648 8.26002C82.0079 8.97893 81.7295 9.93024 81.7295 11.1149C81.7295 12.2993 82.0079 13.2671 82.5648 14.0169C83.1213 14.7674 83.8861 15.1422 84.8591 15.1422C85.8475 15.1422 86.6159 14.7674 87.1651 14.0169ZM89.7771 6.15138C90.8437 7.43882 91.3773 9.09324 91.3773 11.1149C91.3773 13.1521 90.8437 14.8226 89.7771 16.1256C88.71 17.4286 87.314 18.08 85.5886 18.08C84.8668 18.08 84.1804 17.9417 83.5296 17.6654C82.8785 17.389 82.2862 17.0059 81.7529 16.5164V19.8806C81.7529 20.3516 81.3736 20.7334 80.9059 20.7334H79.2821C78.8143 20.7334 78.4351 20.3516 78.4351 19.8806V5.61845C78.4351 5.14727 78.8143 4.76543 79.2821 4.76543H80.9059C81.3736 4.76543 81.7529 5.14727 81.7529 5.61845V5.66559C82.2862 5.17626 82.8785 4.8128 83.5296 4.57592C84.1804 4.33903 84.8668 4.22047 85.5886 4.22047C87.314 4.22047 88.71 4.86419 89.7771 6.15138Z" fill="white"/>
<path d="M93.2024 16.7417V5.73678C93.2024 5.26583 93.5817 4.88399 94.0496 4.88399H95.6496C96.1176 4.88399 96.4968 5.26583 96.4968 5.73678V16.7648C96.4968 17.2407 96.1101 17.6244 95.6374 17.6176L94.0375 17.5945C93.5744 17.5879 93.2024 17.2079 93.2024 16.7417ZM93.2024 2.34896V0.903603C93.2024 0.432661 93.5817 0.0508156 94.0496 0.0508156H95.6496C96.1176 0.0508156 96.4968 0.432661 96.4968 0.903603V2.34896C96.4968 2.8199 96.1176 3.20175 95.6496 3.20175H94.0496C93.5817 3.20175 93.2024 2.8199 93.2024 2.34896Z" fill="white"/>
<path d="M107.899 9.57495C107.695 8.86429 107.349 8.28798 106.863 7.84556C106.377 7.40361 105.765 7.18205 105.028 7.18205C104.212 7.18205 103.557 7.42318 103.063 7.90473C102.569 8.38675 102.22 8.94349 102.016 9.57495H107.899ZM101.945 12.3233C102.087 12.8763 102.396 13.4804 102.875 14.1356C103.353 14.7911 104.071 15.1188 105.028 15.1188C105.655 15.1188 106.208 14.9571 106.687 14.633C106.993 14.426 107.227 14.2431 107.389 14.0843C107.549 13.9273 107.761 13.8405 107.984 13.8422L109.684 13.854C110.357 13.8584 110.75 14.6085 110.386 15.1784C110.067 15.6776 109.661 16.1787 109.169 16.6825C108.244 17.6302 106.871 18.104 105.052 18.104C103.153 18.104 101.6 17.4207 100.392 16.0545C99.1843 14.6886 98.5806 13.05 98.5806 11.1386C98.5806 9.19593 99.1689 7.5613 100.345 6.23451C101.522 4.90771 103.091 4.24443 105.052 4.24443C106.777 4.24443 108.311 4.88037 109.652 6.15154C110.86 7.29613 111.434 9.071 111.377 11.4759C111.366 11.9351 110.987 12.3004 110.531 12.3016L101.945 12.3233Z" fill="white"/>
</svg>
